  0
SECTION
  2
HEADER
  9
$ACADVER
  1
AC1024
  9
$ACADMAINTVER
 70
6
  9
$DWGCODEPAGE
  3
ANSI_1252
  9
$LASTSAVEDBY
  1
ezdxf
  9
$INSBASE
 10
0.0
 20
0.0
 30
0.0
  9
$EXTMIN
 10
1e+20
 20
1e+20
 30
1e+20
  9
$EXTMAX
 10
-1e+20
 20
-1e+20
 30
-1e+20
  9
$LIMMIN
 10
0.0
 20
0.0
  9
$LIMMAX
 10
420.0
 20
297.0
  9
$ORTHOMODE
 70
0
  9
$REGENMODE
 70
1
  9
$FILLMODE
 70
1
  9
$QTEXTMODE
 70
0
  9
$MIRRTEXT
 70
1
  9
$LTSCALE
 40
1.0
  9
$ATTMODE
 70
1
  9
$TEXTSIZE
 40
2.5
  9
$TRACEWID
 40
1.0
  9
$TEXTSTYLE
  7
OpenSans
  9
$CLAYER
  8
0
  9
$CELTYPE
  6
ByLayer
  9
$CECOLOR
 62
256
  9
$CELTSCALE
 40
1.0
  9
$DISPSILH
 70
0
  9
$DIMSCALE
 40
1.0
  9
$DIMASZ
 40
0.175
  9
$DIMEXO
 40
0.125
  9
$DIMDLI
 40
3.75
  9
$DIMRND
 40
0.0
  9
$DIMDLE
 40
0.0
  9
$DIMEXE
 40
0.375
  9
$DIMTP
 40
0.0
  9
$DIMTM
 40
0.0
  9
$DIMTXT
 40
0.25
  9
$DIMCEN
 40
2.5
  9
$DIMTSZ
 40
0.0
  9
$DIMTOL
 70
0
  9
$DIMLIM
 70
0
  9
$DIMTIH
 70
0
  9
$DIMTOH
 70
0
  9
$DIMSE1
 70
0
  9
$DIMSE2
 70
0
  9
$DIMTAD
 70
1
  9
$DIMZIN
 70
12
  9
$DIMBLK
  1
ARCHTICK
  9
$DIMASO
 70
1
  9
$DIMSHO
 70
1
  9
$DIMPOST
  1

  9
$DIMAPOST
  1

  9
$DIMALT
 70
0
  9
$DIMALTD
 70
3
  9
$DIMALTF
 40
0.03937007874
  9
$DIMLFAC
 40
100.0
  9
$DIMTOFL
 70
1
  9
$DIMTVP
 40
0.0
  9
$DIMTIX
 70
0
  9
$DIMSOXD
 70
0
  9
$DIMSAH
 70
0
  9
$DIMBLK1
  1

  9
$DIMBLK2
  1

  9
$DIMSTYLE
  2
EZDXF
  9
$DIMCLRD
 70
0
  9
$DIMCLRE
 70
0
  9
$DIMCLRT
 70
0
  9
$DIMTFAC
 40
0.5
  9
$DIMGAP
 40
0.1
  9
$DIMJUST
 70
0
  9
$DIMSD1
 70
0
  9
$DIMSD2
 70
0
  9
$DIMTOLJ
 70
0
  9
$DIMTZIN
 70
8
  9
$DIMALTZ
 70
0
  9
$DIMALTTZ
 70
0
  9
$DIMUPT
 70
1
  9
$DIMDEC
 70
2
  9
$DIMTDEC
 70
2
  9
$DIMALTU
 70
2
  9
$DIMALTTD
 70
3
  9
$DIMTXSTY
  7
OpenSansCondensed-Light
  9
$DIMAUNIT
 70
0
  9
$DIMADEC
 70
2
  9
$DIMALTRND
 40
0.0
  9
$DIMAZIN
 70
3
  9
$DIMDSEP
 70
46
  9
$DIMATFIT
 70
3
  9
$DIMFRAC
 70
0
  9
$DIMLDRBLK
  1

  9
$DIMLUNIT
 70
2
  9
$DIMLWD
 70
-2
  9
$DIMLWE
 70
-2
  9
$DIMTMOVE
 70
2
  9
$DIMFXL
 40
1.0
  9
$DIMFXLON
 70
0
  9
$DIMJOGANG
 40
0.785398163397
  9
$DIMTFILL
 70
0
  9
$DIMTFILLCLR
 70
0
  9
$DIMARCSYM
 70
0
  9
$DIMLTYPE
  6

  9
$DIMLTEX1
  6

  9
$DIMLTEX2
  6

  9
$DIMTXTDIRECTION
 70
0
  9
$LUNITS
 70
2
  9
$LUPREC
 70
4
  9
$SKETCHINC
 40
1.0
  9
$FILLETRAD
 40
10.0
  9
$AUNITS
 70
0
  9
$AUPREC
 70
2
  9
$MENU
  1
.
  9
$ELEVATION
 40
0.0
  9
$PELEVATION
 40
0.0
  9
$THICKNESS
 40
0.0
  9
$LIMCHECK
 70
0
  9
$CHAMFERA
 40
0.0
  9
$CHAMFERB
 40
0.0
  9
$CHAMFERC
 40
0.0
  9
$CHAMFERD
 40
0.0
  9
$SKPOLY
 70
0
  9
$TDCREATE
 40
2461159.5100810183
  9
$TDUCREATE
 40
2458532.153996898
  9
$TDUPDATE
 40
2461159.5100810183
  9
$TDUUPDATE
 40
2458532.1544311
  9
$TDINDWG
 40
0.0
  9
$TDUSRTIMER
 40
0.0
  9
$USRTIMER
 70
1
  9
$ANGBASE
 50
0.0
  9
$ANGDIR
 70
0
  9
$PDMODE
 70
0
  9
$PDSIZE
 40
0.0
  9
$PLINEWID
 40
0.0
  9
$SPLFRAME
 70
0
  9
$SPLINETYPE
 70
6
  9
$SPLINESEGS
 70
8
  9
$HANDSEED
  5
363
  9
$SURFTAB1
 70
6
  9
$SURFTAB2
 70
6
  9
$SURFTYPE
 70
6
  9
$SURFU
 70
6
  9
$SURFV
 70
6
  9
$UCSBASE
  2

  9
$UCSNAME
  2

  9
$UCSORG
 10
0.0
 20
0.0
 30
0.0
  9
$UCSXDIR
 10
1.0
 20
0.0
 30
0.0
  9
$UCSYDIR
 10
0.0
 20
1.0
 30
0.0
  9
$UCSORTHOREF
  2

  9
$UCSORTHOVIEW
 70
0
  9
$UCSORGTOP
 10
0.0
 20
0.0
 30
0.0
  9
$UCSORGBOTTOM
 10
0.0
 20
0.0
 30
0.0
  9
$UCSORGLEFT
 10
0.0
 20
0.0
 30
0.0
  9
$UCSORGRIGHT
 10
0.0
 20
0.0
 30
0.0
  9
$UCSORGFRONT
 10
0.0
 20
0.0
 30
0.0
  9
$UCSORGBACK
 10
0.0
 20
0.0
 30
0.0
  9
$PUCSBASE
  2

  9
$PUCSNAME
  2

  9
$PUCSORG
 10
0.0
 20
0.0
 30
0.0
  9
$PUCSXDIR
 10
1.0
 20
0.0
 30
0.0
  9
$PUCSYDIR
 10
0.0
 20
1.0
 30
0.0
  9
$PUCSORTHOREF
  2

  9
$PUCSORTHOVIEW
 70
0
  9
$PUCSORGTOP
 10
0.0
 20
0.0
 30
0.0
  9
$PUCSORGBOTTOM
 10
0.0
 20
0.0
 30
0.0
  9
$PUCSORGLEFT
 10
0.0
 20
0.0
 30
0.0
  9
$PUCSORGRIGHT
 10
0.0
 20
0.0
 30
0.0
  9
$PUCSORGFRONT
 10
0.0
 20
0.0
 30
0.0
  9
$PUCSORGBACK
 10
0.0
 20
0.0
 30
0.0
  9
$USERI1
 70
0
  9
$USERI2
 70
0
  9
$USERI3
 70
0
  9
$USERI4
 70
0
  9
$USERI5
 70
0
  9
$USERR1
 40
0.0
  9
$USERR2
 40
0.0
  9
$USERR3
 40
0.0
  9
$USERR4
 40
0.0
  9
$USERR5
 40
0.0
  9
$WORLDVIEW
 70
1
  9
$SHADEDGE
 70
3
  9
$SHADEDIF
 70
70
  9
$TILEMODE
 70
1
  9
$MAXACTVP
 70
64
  9
$PINSBASE
 10
0.0
 20
0.0
 30
0.0
  9
$PLIMCHECK
 70
0
  9
$PEXTMIN
 10
1e+20
 20
1e+20
 30
1e+20
  9
$PEXTMAX
 10
-1e+20
 20
-1e+20
 30
-1e+20
  9
$PLIMMIN
 10
0.0
 20
0.0
  9
$PLIMMAX
 10
420.0
 20
297.0
  9
$UNITMODE
 70
0
  9
$VISRETAIN
 70
1
  9
$PLINEGEN
 70
0
  9
$PSLTSCALE
 70
1
  9
$TREEDEPTH
 70
3020
  9
$CMLSTYLE
  2
Standard
  9
$CMLJUST
 70
0
  9
$CMLSCALE
 40
20.0
  9
$PROXYGRAPHICS
 70
1
  9
$MEASUREMENT
 70
1
  9
$CELWEIGHT
370
-1
  9
$ENDCAPS
280
0
  9
$JOINSTYLE
280
0
  9
$LWDISPLAY
290
0
  9
$INSUNITS
 70
6
  9
$HYPERLINKBASE
  1

  9
$STYLESHEET
  1

  9
$XEDIT
290
1
  9
$CEPSNTYPE
380
0
  9
$PSTYLEMODE
290
1
  9
$FINGERPRINTGUID
  2
{B381DB17-C70E-4851-9F11-4A5E656761C9}
  9
$VERSIONGUID
  2
{85A1620F-6925-46D0-9240-6EAAC8CC619C}
  9
$EXTNAMES
290
1
  9
$PSVPSCALE
 40
0.0
  9
$OLESTARTUP
290
0
  9
$SORTENTS
280
127
  9
$INDEXCTL
280
0
  9
$HIDETEXT
280
1
  9
$XCLIPFRAME
280
1
  9
$HALOGAP
280
0
  9
$OBSCOLOR
 70
257
  9
$OBSLTYPE
280
0
  9
$INTERSECTIONDISPLAY
280
0
  9
$INTERSECTIONCOLOR
 70
257
  9
$DIMASSOC
280
2
  9
$PROJECTNAME
  1

  9
$CAMERADISPLAY
290
0
  9
$LENSLENGTH
 40
50.0
  9
$CAMERAHEIGHT
 40
0.0
  9
$STEPSPERSEC
 40
24.0
  9
$STEPSIZE
 40
100.0
  9
$3DDWFPREC
 40
2.0
  9
$PSOLWIDTH
 40
0.005
  9
$PSOLHEIGHT
 40
0.08
  9
$LOFTANG1
 40
1.570796326795
  9
$LOFTANG2
 40
1.570796326795
  9
$LOFTMAG1
 40
0.0
  9
$LOFTMAG2
 40
0.0
  9
$LOFTPARAM
 70
7
  9
$LOFTNORMALS
280
1
  9
$LATITUDE
 40
37.795
  9
$LONGITUDE
 40
-122.394
  9
$NORTHDIRECTION
 40
0.0
  9
$TIMEZONE
 70
-8000
  9
$LIGHTGLYPHDISPLAY
280
1
  9
$TILEMODELIGHTSYNCH
280
1
  9
$CMATERIAL
347
20
  9
$SOLIDHIST
280
0
  9
$SHOWHIST
280
1
  9
$DWFFRAME
280
2
  9
$DGNFRAME
280
2
  9
$REALWORLDSCALE
290
1
  9
$INTERFERECOLOR
 62
256
  9
$CSHADOW
280
0
  9
$SHADOWPLANELOCATION
 40
0.0
  0
ENDSEC
  0
SECTION
  2
CLASSES
  0
CLASS
  1
ACDBDICTIONARYWDFLT
  2
AcDbDictionaryWithDefault
  3
ObjectDBX Classes
 90
0
 91
0
280
0
281
0
  0
CLASS
  1
SUN
  2
AcDbSun
  3
SCENEOE
 90
1153
 91
0
280
0
281
0
  0
CLASS
  1
VISUALSTYLE
  2
AcDbVisualStyle
  3
ObjectDBX Classes
 90
4095
 91
0
280
0
281
0
  0
CLASS
  1
MATERIAL
  2
AcDbMaterial
  3
ObjectDBX Classes
 90
1153
 91
0
280
0
281
0
  0
CLASS
  1
SCALE
  2
AcDbScale
  3
ObjectDBX Classes
 90
1153
 91
0
280
0
281
0
  0
CLASS
  1
TABLESTYLE
  2
AcDbTableStyle
  3
ObjectDBX Classes
 90
4095
 91
0
280
0
281
0
  0
CLASS
  1
MLEADERSTYLE
  2
AcDbMLeaderStyle
  3
ACDB_MLEADERSTYLE_CLASS
 90
4095
 91
0
280
0
281
0
  0
CLASS
  1
DICTIONARYVAR
  2
AcDbDictionaryVar
  3
ObjectDBX Classes
 90
0
 91
0
280
0
281
0
  0
CLASS
  1
CELLSTYLEMAP
  2
AcDbCellStyleMap
  3
ObjectDBX Classes
 90
1152
 91
0
280
0
281
0
  0
CLASS
  1
MENTALRAYRENDERSETTINGS
  2
AcDbMentalRayRenderSettings
  3
SCENEOE
 90
1024
 91
0
280
0
281
0
  0
CLASS
  1
ACDBDETAILVIEWSTYLE
  2
AcDbDetailViewStyle
  3
ObjectDBX Classes
 90
1025
 91
0
280
0
281
0
  0
CLASS
  1
ACDBSECTIONVIEWSTYLE
  2
AcDbSectionViewStyle
  3
ObjectDBX Classes
 90
1025
 91
0
280
0
281
0
  0
CLASS
  1
RASTERVARIABLES
  2
AcDbRasterVariables
  3
ISM
 90
0
 91
0
280
0
281
0
  0
CLASS
  1
LAYOUT
  2
AcDbLayout
  3
ObjectDBX Classes
 90
0
 91
0
280
0
281
0
  0
CLASS
  1
ACDBPLACEHOLDER
  2
AcDbPlaceHolder
  3
ObjectDBX Classes
 90
0
 91
0
280
0
281
0
  0
ENDSEC
  0
SECTION
  2
TABLES
  0
TABLE
  2
VPORT
  5
8
330
0
100
AcDbSymbolTable
 70
1
  0
VPORT
  5
23
330
8
100
AcDbSymbolTableRecord
100
AcDbViewportTableRecord
  2
*Active
 70
0
 10
0.0
 20
0.0
 11
1.0
 21
1.0
 12
0.0
 22
0.0
 13
0.0
 23
0.0
 14
0.5
 24
0.5
 15
0.5
 25
0.5
 16
0.0
 26
0.0
 36
1.0
 17
0.0
 27
0.0
 37
0.0
 40
1000.0
 41
1.34
 42
50.0
 43
0.0
 44
0.0
 50
0.0
 51
0.0
 71
0
 72
1000
 73
1
 74
3
 75
0
 76
0
 77
0
 78
0
281
0
 65
0
146
0.0
  0
ENDTAB
  0
TABLE
  2
LTYPE
  5
2
330
0
100
AcDbSymbolTable
 70
21
  0
LTYPE
  5
24
330
2
100
AcDbSymbolTableRecord
100
AcDbLinetypeTableRecord
  2
ByBlock
 70
0
  3

 72
65
 73
0
 40
0.0
  0
LTYPE
  5
25
330
2
100
AcDbSymbolTableRecord
100
AcDbLinetypeTableRecord
  2
ByLayer
 70
0
  3

 72
65
 73
0
 40
0.0
  0
LTYPE
  5
26
330
2
100
AcDbSymbolTableRecord
100
AcDbLinetypeTableRecord
  2
Continuous
 70
0
  3

 72
65
 73
0
 40
0.0
  0
LTYPE
  5
2F
330
2
100
AcDbSymbolTableRecord
100
AcDbLinetypeTableRecord
  2
CENTER
 70
0
  3
Center ____ _ ____ _ ____ _ ____ _ ____ _ ____
 72
65
 73
4
 40
5.08
 49
3.175
 74
0
 49
-0.635
 74
0
 49
0.635
 74
0
 49
-0.635
 74
0
  0
LTYPE
  5
30
330
2
100
AcDbSymbolTableRecord
100
AcDbLinetypeTableRecord
  2
CENTERX2
 70
0
  3
Center (2x) ________  __  ________  __  ________
 72
65
 73
4
 40
8.89
 49
6.35
 74
0
 49
-0.635
 74
0
 49
1.27
 74
0
 49
-0.635
 74
0
  0
LTYPE
  5
31
330
2
100
AcDbSymbolTableRecord
100
AcDbLinetypeTableRecord
  2
CENTER2
 70
0
  3
Center (.5x) ____ _ ____ _ ____ _ ____ _ ____
 72
65
 73
4
 40
2.54
 49
1.587
 74
0
 49
-0.318
 74
0
 49
0.318
 74
0
 49
-0.318
 74
0
  0
LTYPE
  5
32
330
2
100
AcDbSymbolTableRecord
100
AcDbLinetypeTableRecord
  2
DASHED
 70
0
  3
Dashed __ __ __ __ __ __ __ __ __ __ __ __ __ _
 72
65
 73
2
 40
1.524
 49
1.27
 74
0
 49
-0.254
 74
0
  0
LTYPE
  5
33
330
2
100
AcDbSymbolTableRecord
100
AcDbLinetypeTableRecord
  2
DASHEDX2
 70
0
  3
Dashed (2x) ____  ____  ____  ____  ____  ____
 72
65
 73
2
 40
3.048
 49
2.54
 74
0
 49
-0.508
 74
0
  0
LTYPE
  5
34
330
2
100
AcDbSymbolTableRecord
100
AcDbLinetypeTableRecord
  2
DASHED2
 70
0
  3
Dashed (.5x) _ _ _ _ _ _ _ _ _ _ _ _ _ _
 72
65
 73
2
 40
0.762
 49
0.635
 74
0
 49
-0.127
 74
0
  0
LTYPE
  5
35
330
2
100
AcDbSymbolTableRecord
100
AcDbLinetypeTableRecord
  2
PHANTOM
 70
0
  3
Phantom ______  __  __  ______  __  __  ______
 72
65
 73
6
 40
6.35
 49
3.175
 74
0
 49
-0.635
 74
0
 49
0.635
 74
0
 49
-0.635
 74
0
 49
0.635
 74
0
 49
-0.635
 74
0
  0
LTYPE
  5
36
330
2
100
AcDbSymbolTableRecord
100
AcDbLinetypeTableRecord
  2
PHANTOMX2
 70
0
  3
Phantom (2x)____________    ____    ____    ____________
 72
65
 73
6
 40
10.795
 49
6.35
 74
0
 49
-0.635
 74
0
 49
1.27
 74
0
 49
-0.635
 74
0
 49
1.27
 74
0
 49
-0.635
 74
0
  0
LTYPE
  5
37
330
2
100
AcDbSymbolTableRecord
100
AcDbLinetypeTableRecord
  2
PHANTOM2
 70
0
  3
Phantom (.5x) ___ _ _ ___ _ _ ___ _ _ ___ _ _ ___
 72
65
 73
6
 40
3.175
 49
1.587
 74
0
 49
-0.318
 74
0
 49
0.318
 74
0
 49
-0.318
 74
0
 49
0.318
 74
0
 49
-0.318
 74
0
  0
LTYPE
  5
38
330
2
100
AcDbSymbolTableRecord
100
AcDbLinetypeTableRecord
  2
DASHDOT
 70
0
  3
Dash dot __ . __ . __ . __ . __ . __ . __ . __
 72
65
 73
4
 40
3.556
 49
2.54
 74
0
 49
-0.508
 74
0
 49
0.0
 74
0
 49
-0.508
 74
0
  0
LTYPE
  5
39
330
2
100
AcDbSymbolTableRecord
100
AcDbLinetypeTableRecord
  2
DASHDOTX2
 70
0
  3
Dash dot (2x) ____  .  ____  .  ____  .  ____
 72
65
 73
4
 40
6.096
 49
5.08
 74
0
 49
-0.508
 74
0
 49
0.0
 74
0
 49
-0.508
 74
0
  0
LTYPE
  5
3A
330
2
100
AcDbSymbolTableRecord
100
AcDbLinetypeTableRecord
  2
DASHDOT2
 70
0
  3
Dash dot (.5x) _ . _ . _ . _ . _ . _ . _ . _
 72
65
 73
4
 40
1.778
 49
1.27
 74
0
 49
-0.254
 74
0
 49
0.0
 74
0
 49
-0.254
 74
0
  0
LTYPE
  5
3B
330
2
100
AcDbSymbolTableRecord
100
AcDbLinetypeTableRecord
  2
DOT
 70
0
  3
Dot .  .  .  .  .  .  .  .  .  .  .  .  .  .  .  .
 72
65
 73
2
 40
0.508
 49
0.0
 74
0
 49
-0.508
 74
0
  0
LTYPE
  5
3C
330
2
100
AcDbSymbolTableRecord
100
AcDbLinetypeTableRecord
  2
DOTX2
 70
0
  3
Dot (2x) .    .    .    .    .    .    .    . 
 72
65
 73
2
 40
1.016
 49
0.0
 74
0
 49
-1.016
 74
0
  0
LTYPE
  5
3D
330
2
100
AcDbSymbolTableRecord
100
AcDbLinetypeTableRecord
  2
DOT2
 70
0
  3
Dot (.5) . . . . . . . . . . . . . . . . . . . 
 72
65
 73
2
 40
0.254
 49
0.0
 74
0
 49
-0.254
 74
0
  0
LTYPE
  5
3E
330
2
100
AcDbSymbolTableRecord
100
AcDbLinetypeTableRecord
  2
DIVIDE
 70
0
  3
Divide __ . . __ . . __ . . __ . . __ . . __
 72
65
 73
6
 40
4.064
 49
2.54
 74
0
 49
-0.508
 74
0
 49
0.0
 74
0
 49
-0.508
 74
0
 49
0.0
 74
0
 49
-0.508
 74
0
  0
LTYPE
  5
3F
330
2
100
AcDbSymbolTableRecord
100
AcDbLinetypeTableRecord
  2
DIVIDEX2
 70
0
  3
Divide (2x) ____  . .  ____  . .  ____  . .  ____
 72
65
 73
6
 40
6.604
 49
5.08
 74
0
 49
-0.508
 74
0
 49
0.0
 74
0
 49
-0.508
 74
0
 49
0.0
 74
0
 49
-0.508
 74
0
  0
LTYPE
  5
40
330
2
100
AcDbSymbolTableRecord
100
AcDbLinetypeTableRecord
  2
DIVIDE2
 70
0
  3
Divide(.5x) _ . _ . _ . _ . _ . _ . _ . _
 72
65
 73
6
 40
2.032
 49
1.27
 74
0
 49
-0.254
 74
0
 49
0.0
 74
0
 49
-0.254
 74
0
 49
0.0
 74
0
 49
-0.254
 74
0
  0
ENDTAB
  0
TABLE
  2
LAYER
  5
1
330
0
100
AcDbSymbolTable
 70
16
  0
LAYER
  5
27
330
1
100
AcDbSymbolTableRecord
100
AcDbLayerTableRecord
  2
0
 70
0
 62
7
  6
Continuous
370
-3
390
13
347
21
  0
LAYER
  5
28
330
1
100
AcDbSymbolTableRecord
100
AcDbLayerTableRecord
  2
Defpoints
 70
0
 62
7
  6
Continuous
290
0
370
0
390
13
347
21
  0
LAYER
  5
8B
330
1
100
AcDbSymbolTableRecord
100
AcDbLayerTableRecord
  2
A-GRID
 70
0
 62
8
  6
CENTER2
370
13
390
13
347
21
  0
LAYER
  5
8C
330
1
100
AcDbSymbolTableRecord
100
AcDbLayerTableRecord
  2
A-COLUMN
 70
0
 62
7
  6
Continuous
370
35
390
13
347
21
  0
LAYER
  5
8D
330
1
100
AcDbSymbolTableRecord
100
AcDbLayerTableRecord
  2
A-WALL
 70
0
 62
7
  6
Continuous
370
30
390
13
347
21
  0
LAYER
  5
8E
330
1
100
AcDbSymbolTableRecord
100
AcDbLayerTableRecord
  2
A-DOOR
 70
0
 62
3
  6
Continuous
370
13
390
13
347
21
  0
LAYER
  5
8F
330
1
100
AcDbSymbolTableRecord
100
AcDbLayerTableRecord
  2
A-WINDOW
 70
0
 62
4
  6
Continuous
370
13
390
13
347
21
  0
LAYER
  5
90
330
1
100
AcDbSymbolTableRecord
100
AcDbLayerTableRecord
  2
A-STAIR
 70
0
 62
6
  6
Continuous
370
13
390
13
347
21
  0
LAYER
  5
91
330
1
100
AcDbSymbolTableRecord
100
AcDbLayerTableRecord
  2
A-FURN
 70
0
 62
8
  6
Continuous
370
13
390
13
347
21
  0
LAYER
  5
92
330
1
100
AcDbSymbolTableRecord
100
AcDbLayerTableRecord
  2
A-SANITARY
 70
0
 62
5
  6
Continuous
370
13
390
13
347
21
  0
LAYER
  5
93
330
1
100
AcDbSymbolTableRecord
100
AcDbLayerTableRecord
  2
A-DIMS
 70
0
 62
2
  6
Continuous
370
13
390
13
347
21
  0
LAYER
  5
94
330
1
100
AcDbSymbolTableRecord
100
AcDbLayerTableRecord
  2
A-TEXT
 70
0
 62
7
  6
Continuous
370
13
390
13
347
21
  0
LAYER
  5
95
330
1
100
AcDbSymbolTableRecord
100
AcDbLayerTableRecord
  2
A-ANNO
 70
0
 62
1
  6
Continuous
370
13
390
13
347
21
  0
LAYER
  5
96
330
1
100
AcDbSymbolTableRecord
100
AcDbLayerTableRecord
  2
A-ROOF
 70
0
 62
8
  6
DASHED2
370
13
390
13
347
21
  0
LAYER
  5
97
330
1
100
AcDbSymbolTableRecord
100
AcDbLayerTableRecord
  2
A-TITLE
 70
0
 62
7
  6
Continuous
370
18
390
13
347
21
  0
LAYER
  5
98
330
1
100
AcDbSymbolTableRecord
100
AcDbLayerTableRecord
  2
A-HATCH
 70
0
 62
9
  6
Continuous
370
13
390
13
347
21
  0
ENDTAB
  0
TABLE
  2
STYLE
  5
5
330
0
100
AcDbSymbolTable
 70
27
  0
STYLE
  5
29
330
5
100
AcDbSymbolTableRecord
100
AcDbTextStyleTableRecord
  2
Standard
 70
0
 40
0.0
 41
1.0
 50
0.0
 71
0
 42
2.5
  3
txt
  4

  0
STYLE
  5
41
330
5
100
AcDbSymbolTableRecord
100
AcDbTextStyleTableRecord
  2
OpenSans-Light
 70
0
 40
0.0
 41
1.0
 50
0.0
 71
0
 42
2.5
  3
OpenSans-Light.ttf
  4

  0
STYLE
  5
42
330
5
100
AcDbSymbolTableRecord
100
AcDbTextStyleTableRecord
  2
OpenSans-Light-Italic
 70
0
 40
0.0
 41
1.0
 50
0.0
 71
0
 42
2.5
  3
OpenSans-LightItalic.ttf
  4

  0
STYLE
  5
43
330
5
100
AcDbSymbolTableRecord
100
AcDbTextStyleTableRecord
  2
OpenSans
 70
0
 40
0.0
 41
1.0
 50
0.0
 71
0
 42
2.5
  3
OpenSans-Regular.ttf
  4

  0
STYLE
  5
44
330
5
100
AcDbSymbolTableRecord
100
AcDbTextStyleTableRecord
  2
OpenSans-Italic
 70
0
 40
0.0
 41
1.0
 50
0.0
 71
0
 42
2.5
  3
OpenSans-Italic.ttf
  4

  0
STYLE
  5
45
330
5
100
AcDbSymbolTableRecord
100
AcDbTextStyleTableRecord
  2
OpenSans-SemiBold
 70
0
 40
0.0
 41
1.0
 50
0.0
 71
0
 42
2.5
  3
OpenSans-SemiBold.ttf
  4

  0
STYLE
  5
46
330
5
100
AcDbSymbolTableRecord
100
AcDbTextStyleTableRecord
  2
OpenSans-SemiBoldItalic
 70
0
 40
0.0
 41
1.0
 50
0.0
 71
0
 42
2.5
  3
OpenSans-SemiBoldItalic.ttf
  4

  0
STYLE
  5
47
330
5
100
AcDbSymbolTableRecord
100
AcDbTextStyleTableRecord
  2
OpenSans-Bold
 70
0
 40
0.0
 41
1.0
 50
0.0
 71
0
 42
2.5
  3
OpenSans-Bold.ttf
  4

  0
STYLE
  5
48
330
5
100
AcDbSymbolTableRecord
100
AcDbTextStyleTableRecord
  2
OpenSans-BoldItalic
 70
0
 40
0.0
 41
1.0
 50
0.0
 71
0
 42
2.5
  3
OpenSans-BoldItalic.ttf
  4

  0
STYLE
  5
49
330
5
100
AcDbSymbolTableRecord
100
AcDbTextStyleTableRecord
  2
OpenSans-ExtraBold
 70
0
 40
0.0
 41
1.0
 50
0.0
 71
0
 42
2.5
  3
OpenSans-ExtraBold.ttf
  4

  0
STYLE
  5
4A
330
5
100
AcDbSymbolTableRecord
100
AcDbTextStyleTableRecord
  2
OpenSans-ExtraBoldItalic
 70
0
 40
0.0
 41
1.0
 50
0.0
 71
0
 42
2.5
  3
OpenSans-ExtraBoldItalic.ttf
  4

  0
STYLE
  5
4B
330
5
100
AcDbSymbolTableRecord
100
AcDbTextStyleTableRecord
  2
OpenSansCondensed-Bold
 70
0
 40
0.0
 41
1.0
 50
0.0
 71
0
 42
2.5
  3
OpenSansCondensed-Bold.ttf
  4

  0
STYLE
  5
4C
330
5
100
AcDbSymbolTableRecord
100
AcDbTextStyleTableRecord
  2
OpenSansCondensed-Light
 70
0
 40
0.0
 41
1.0
 50
0.0
 71
0
 42
2.5
  3
OpenSansCondensed-Light.ttf
  4

  0
STYLE
  5
4D
330
5
100
AcDbSymbolTableRecord
100
AcDbTextStyleTableRecord
  2
OpenSansCondensed-Italic
 70
0
 40
0.0
 41
1.0
 50
0.0
 71
0
 42
2.5
  3
OpenSansCondensed-LightItalic.ttf
  4

  0
STYLE
  5
4E
330
5
100
AcDbSymbolTableRecord
100
AcDbTextStyleTableRecord
  2
LiberationSans
 70
0
 40
0.0
 41
1.0
 50
0.0
 71
0
 42
2.5
  3
LiberationSans-Regular.ttf
  4

  0
STYLE
  5
4F
330
5
100
AcDbSymbolTableRecord
100
AcDbTextStyleTableRecord
  2
LiberationSans-Bold
 70
0
 40
0.0
 41
1.0
 50
0.0
 71
0
 42
2.5
  3
LiberationSans-Bold.ttf
  4

  0
STYLE
  5
50
330
5
100
AcDbSymbolTableRecord
100
AcDbTextStyleTableRecord
  2
LiberationSans-BoldItalic
 70
0
 40
0.0
 41
1.0
 50
0.0
 71
0
 42
2.5
  3
LiberationSans-BoldItalic.ttf
  4

  0
STYLE
  5
51
330
5
100
AcDbSymbolTableRecord
100
AcDbTextStyleTableRecord
  2
LiberationSans-Italic
 70
0
 40
0.0
 41
1.0
 50
0.0
 71
0
 42
2.5
  3
LiberationSans-Italic.ttf
  4

  0
STYLE
  5
52
330
5
100
AcDbSymbolTableRecord
100
AcDbTextStyleTableRecord
  2
LiberationSerif
 70
0
 40
0.0
 41
1.0
 50
0.0
 71
0
 42
2.5
  3
LiberationSerif-Regular.ttf
  4

  0
STYLE
  5
53
330
5
100
AcDbSymbolTableRecord
100
AcDbTextStyleTableRecord
  2
LiberationSerif-Bold
 70
0
 40
0.0
 41
1.0
 50
0.0
 71
0
 42
2.5
  3
LiberationSerif-Bold.ttf
  4

  0
STYLE
  5
54
330
5
100
AcDbSymbolTableRecord
100
AcDbTextStyleTableRecord
  2
LiberationSerif-BoldItalic
 70
0
 40
0.0
 41
1.0
 50
0.0
 71
0
 42
2.5
  3
LiberationSerif-BoldItalic.ttf
  4

  0
STYLE
  5
55
330
5
100
AcDbSymbolTableRecord
100
AcDbTextStyleTableRecord
  2
LiberationSerif-Italic
 70
0
 40
0.0
 41
1.0
 50
0.0
 71
0
 42
2.5
  3
LiberationSerif-Italic.ttf
  4

  0
STYLE
  5
56
330
5
100
AcDbSymbolTableRecord
100
AcDbTextStyleTableRecord
  2
LiberationMono
 70
0
 40
0.0
 41
1.0
 50
0.0
 71
0
 42
2.5
  3
LiberationMono-Regular.ttf
  4

  0
STYLE
  5
57
330
5
100
AcDbSymbolTableRecord
100
AcDbTextStyleTableRecord
  2
LiberationMono-Bold
 70
0
 40
0.0
 41
1.0
 50
0.0
 71
0
 42
2.5
  3
LiberationMono-Bold.ttf
  4

  0
STYLE
  5
58
330
5
100
AcDbSymbolTableRecord
100
AcDbTextStyleTableRecord
  2
LiberationMono-BoldItalic
 70
0
 40
0.0
 41
1.0
 50
0.0
 71
0
 42
2.5
  3
LiberationMono-BoldItalic.ttf
  4

  0
STYLE
  5
59
330
5
100
AcDbSymbolTableRecord
100
AcDbTextStyleTableRecord
  2
LiberationMono-Italic
 70
0
 40
0.0
 41
1.0
 50
0.0
 71
0
 42
2.5
  3
LiberationMono-Italic.ttf
  4

  0
STYLE
  5
8A
330
5
100
AcDbSymbolTableRecord
100
AcDbTextStyleTableRecord
  2
PJ_STANDARD
 70
0
 40
0.0
 41
1.0
 50
0.0
 71
0
 42
2.5
  3
tahoma.ttf
  4

  0
ENDTAB
  0
TABLE
  2
VIEW
  5
7
330
0
100
AcDbSymbolTable
 70
0
  0
ENDTAB
  0
TABLE
  2
UCS
  5
6
330
0
100
AcDbSymbolTable
 70
0
  0
ENDTAB
  0
TABLE
  2
APPID
  5
3
330
0
100
AcDbSymbolTable
 70
3
  0
APPID
  5
2A
330
3
100
AcDbSymbolTableRecord
100
AcDbRegAppTableRecord
  2
ACAD
 70
0
  0
APPID
  5
360
330
3
100
AcDbSymbolTableRecord
100
AcDbRegAppTableRecord
  2
HATCHBACKGROUNDCOLOR
 70
0
  0
APPID
  5
361
330
3
100
AcDbSymbolTableRecord
100
AcDbRegAppTableRecord
  2
EZDXF
 70
0
  0
ENDTAB
  0
TABLE
  2
DIMSTYLE
  5
4
330
0
100
AcDbSymbolTable
 70
12
100
AcDbDimStyleTable
  0
DIMSTYLE
105
2B
330
4
100
AcDbSymbolTableRecord
100
AcDbDimStyleTableRecord
  2
Standard
 70
0
 40
1.0
 41
2.5
 42
0.625
 43
3.75
 44
1.25
 45
0.0
 46
0.0
 47
0.0
 48
0.0
 49
2.5
140
2.5
141
2.5
142
0.0
143
0.03937007874
144
1.0
145
0.0
146
1.0
147
0.625
148
0.0
 69
0
 70
0
 71
0
 72
0
 73
0
 74
0
 75
0
 76
0
 77
1
 78
8
 79
3
170
0
171
3
172
1
173
0
174
0
175
0
176
0
177
0
178
0
179
2
271
2
272
2
273
2
274
3
275
0
276
0
277
2
278
44
279
0
280
0
281
0
282
0
283
0
284
8
285
0
286
0
288
0
289
3
290
0
371
-2
372
-2
  0
DIMSTYLE
105
73
330
4
100
AcDbSymbolTableRecord
100
AcDbDimStyleTableRecord
  2
EZDXF
 70
0
 40
1.0
 41
0.175
 42
0.125
 43
3.75
 44
0.375
 45
0.0
 46
0.0
 47
0.0
 48
0.0
 49
2.5
140
0.25
141
2.5
142
0.0
143
0.03937007874
144
100.0
145
0.0
146
0.5
147
0.1
148
0.0
 69
0
 70
0
 71
0
 72
0
 73
0
 74
0
 75
0
 76
0
 77
1
 78
12
 79
3
170
0
171
3
172
1
173
0
174
0
175
0
176
0
177
0
178
0
179
2
271
2
272
2
273
2
274
3
275
0
276
0
277
2
278
46
279
2
280
0
281
0
282
0
283
0
284
8
285
0
286
0
288
1
289
3
290
0
340
4C
342
74
371
-2
372
-2
  0
DIMSTYLE
105
7C
330
4
100
AcDbSymbolTableRecord
100
AcDbDimStyleTableRecord
  2
EZ_M_100_H25_CM
 70
0
 40
1.0
 41
0.25
 42
0.125
 43
3.75
 44
0.375
 45
0.0
 46
0.0
 47
0.0
 48
0.0
 49
2.5
140
0.25
141
2.5
142
0.125
143
0.03937007874
144
100.0
145
0.0
146
0.5
147
0.1
148
0.0
 69
0
 70
0
 71
0
 72
0
 73
0
 74
0
 75
0
 76
0
 77
1
 78
12
 79
3
170
0
171
3
172
1
173
0
174
0
175
0
176
0
177
0
178
0
179
2
271
2
272
2
273
2
274
3
275
0
276
0
277
2
278
46
279
2
280
0
281
0
282
0
283
0
284
8
285
0
286
0
288
1
289
3
290
0
340
4C
371
-2
372
-2
  0
DIMSTYLE
105
7D
330
4
100
AcDbSymbolTableRecord
100
AcDbDimStyleTableRecord
  2
EZ_M_50_H25_CM
 70
0
 40
1.0
 41
0.125
 42
0.0625
 43
3.75
 44
0.1875
 45
0.0
 46
0.0
 47
0.0
 48
0.0
 49
2.5
140
0.125
141
2.5
142
0.0625
143
0.03937007874
144
100.0
145
0.0
146
0.5
147
0.05
148
0.0
 69
0
 70
0
 71
0
 72
0
 73
0
 74
0
 75
0
 76
0
 77
1
 78
12
 79
3
170
0
171
3
172
1
173
0
174
0
175
0
176
0
177
0
178
0
179
2
271
2
272
2
273
2
274
3
275
0
276
0
277
2
278
46
279
2
280
0
281
0
282
0
283
0
284
8
285
0
286
0
288
1
289
3
290
0
340
4C
371
-2
372
-2
  0
DIMSTYLE
105
7E
330
4
100
AcDbSymbolTableRecord
100
AcDbDimStyleTableRecord
  2
EZ_M_25_H25_CM
 70
0
 40
1.0
 41
0.0625
 42
0.03125
 43
3.75
 44
0.09375
 45
0.0
 46
0.0
 47
0.0
 48
0.0
 49
2.5
140
0.0625
141
2.5
142
0.03125
143
0.03937007874
144
100.0
145
0.0
146
0.5
147
0.025
148
0.0
 69
0
 70
0
 71
0
 72
0
 73
0
 74
0
 75
0
 76
0
 77
1
 78
12
 79
3
170
0
171
3
172
1
173
0
174
0
175
0
176
0
177
0
178
0
179
2
271
2
272
2
273
2
274
3
275
0
276
0
277
2
278
46
279
2
280
0
281
0
282
0
283
0
284
8
285
0
286
0
288
1
289
3
290
0
340
4C
371
-2
372
-2
  0
DIMSTYLE
105
7F
330
4
100
AcDbSymbolTableRecord
100
AcDbDimStyleTableRecord
  2
EZ_M_20_H25_CM
 70
0
 40
1.0
 41
0.05
 42
0.025
 43
3.75
 44
0.07500000000000001
 45
0.0
 46
0.0
 47
0.0
 48
0.0
 49
2.5
140
0.05
141
2.5
142
0.025
143
0.03937007874
144
100.0
145
0.0
146
0.5
147
0.020000000000000004
148
0.0
 69
0
 70
0
 71
0
 72
0
 73
0
 74
0
 75
0
 76
0
 77
1
 78
12
 79
3
170
0
171
3
172
1
173
0
174
0
175
0
176
0
177
0
178
0
179
2
271
2
272
2
273
2
274
3
275
0
276
0
277
2
278
46
279
2
280
0
281
0
282
0
283
0
284
8
285
0
286
0
288
1
289
3
290
0
340
4C
371
-2
372
-2
  0
DIMSTYLE
105
80
330
4
100
AcDbSymbolTableRecord
100
AcDbDimStyleTableRecord
  2
EZ_M_10_H25_CM
 70
0
 40
1.0
 41
0.025
 42
0.0125
 43
3.75
 44
0.037500000000000006
 45
0.0
 46
0.0
 47
0.0
 48
0.0
 49
2.5
140
0.025
141
2.5
142
0.0125
143
0.03937007874
144
100.0
145
0.0
146
0.5
147
0.010000000000000002
148
0.0
 69
0
 70
0
 71
0
 72
0
 73
0
 74
0
 75
0
 76
0
 77
1
 78
12
 79
3
170
0
171
3
172
1
173
0
174
0
175
0
176
0
177
0
178
0
179
2
271
2
272
2
273
2
274
3
275
0
276
0
277
2
278
46
279
2
280
0
281
0
282
0
283
0
284
8
285
0
286
0
288
1
289
3
290
0
340
4C
371
-2
372
-2
  0
DIMSTYLE
105
81
330
4
100
AcDbSymbolTableRecord
100
AcDbDimStyleTableRecord
  2
EZ_M_5_H25_CM
 70
0
 40
1.0
 41
0.0125
 42
0.00625
 43
3.75
 44
0.018750000000000003
 45
0.0
 46
0.0
 47
0.0
 48
0.0
 49
2.5
140
0.0125
141
2.5
142
0.00625
143
0.03937007874
144
100.0
145
0.0
146
0.5
147
0.005000000000000001
148
0.0
 69
0
 70
0
 71
0
 72
0
 73
0
 74
0
 75
0
 76
0
 77
1
 78
12
 79
3
170
0
171
3
172
1
173
0
174
0
175
0
176
0
177
0
178
0
179
2
271
2
272
2
273
2
274
3
275
0
276
0
277
2
278
46
279
2
280
0
281
0
282
0
283
0
284
8
285
0
286
0
288
1
289
3
290
0
340
4C
371
-2
372
-2
  0
DIMSTYLE
105
82
330
4
100
AcDbSymbolTableRecord
100
AcDbDimStyleTableRecord
  2
EZ_M_1_H25_CM
 70
0
 40
1.0
 41
0.0025
 42
0.00125
 43
3.75
 44
0.00375
 45
0.0
 46
0.0
 47
0.0
 48
0.0
 49
2.5
140
0.0025
141
2.5
142
0.00125
143
0.03937007874
144
100.0
145
0.0
146
0.5
147
0.001
148
0.0
 69
0
 70
0
 71
0
 72
0
 73
0
 74
0
 75
0
 76
0
 77
1
 78
12
 79
3
170
0
171
3
172
1
173
0
174
0
175
0
176
0
177
0
178
0
179
2
271
2
272
2
273
2
274
3
275
0
276
0
277
2
278
46
279
2
280
0
281
0
282
0
283
0
284
8
285
0
286
0
288
1
289
3
290
0
340
4C
371
-2
372
-2
  0
DIMSTYLE
105
83
330
4
100
AcDbSymbolTableRecord
100
AcDbDimStyleTableRecord
  2
EZ_RADIUS
 70
0
 40
1.0
 41
0.25
 42
0.125
 43
3.75
 44
0.375
 45
0.0
 46
0.0
 47
0.0
 48
0.0
 49
2.5
140
0.25
141
0.0
142
0.0
143
0.03937007874
144
100.0
145
0.0
146
0.5
147
0.1
148
0.0
 69
0
 70
0
 71
0
 72
0
 73
0
 74
0
 75
0
 76
0
 77
1
 78
12
 79
3
170
0
171
3
172
0
173
0
174
0
175
0
176
0
177
0
178
0
179
2
271
2
272
2
273
2
274
3
275
0
276
0
277
2
278
46
279
1
280
0
281
0
282
0
283
0
284
8
285
0
286
0
288
1
289
3
290
0
340
4C
342
84
371
-2
372
-2
  0
DIMSTYLE
105
88
330
4
100
AcDbSymbolTableRecord
100
AcDbDimStyleTableRecord
  2
EZ_RADIUS_INSIDE
 70
0
 40
1.0
 41
0.25
 42
0.125
 43
3.75
 44
0.375
 45
0.0
 46
0.0
 47
0.0
 48
0.0
 49
2.5
140
0.25
141
0.0
142
0.0
143
0.03937007874
144
100.0
145
0.0
146
0.5
147
0.1
148
0.0
 69
0
 70
0
 71
0
 72
0
 73
0
 74
0
 75
0
 76
0
 77
0
 78
12
 79
3
170
0
171
3
172
0
173
0
174
1
175
0
176
0
177
0
178
0
179
2
271
2
272
2
273
2
274
3
275
0
276
0
277
2
278
46
279
0
280
0
281
0
282
0
283
0
284
8
285
0
286
0
288
1
289
0
290
0
340
4C
342
84
371
-2
372
-2
  0
DIMSTYLE
105
89
330
4
100
AcDbSymbolTableRecord
100
AcDbDimStyleTableRecord
  2
EZ_CURVED
 70
0
 40
1.0
 41
0.25
 42
0.125
 43
3.75
 44
0.375
 45
0.0
 46
0.0
 47
0.0
 48
0.0
 49
2.5
140
0.25
141
2.5
142
0.0
143
0.03937007874
144
100.0
145
0.0
146
0.5
147
0.1
148
0.0
 69
0
 70
0
 71
0
 72
0
 73
0
 74
0
 75
0
 76
0
 77
1
 78
12
 79
2
 90
2
170
0
171
3
172
1
173
0
174
0
175
0
176
0
177
0
178
0
179
2
271
2
272
2
273
2
274
3
275
0
276
0
277
2
278
46
279
2
280
0
281
0
282
0
283
0
284
8
285
0
286
0
288
1
289
3
290
0
340
4C
371
-2
372
-2
  0
ENDTAB
  0
TABLE
  2
BLOCK_RECORD
  5
9
330
0
100
AcDbSymbolTable
 70
5
  0
BLOCK_RECORD
  5
17
330
9
100
AcDbSymbolTableRecord
100
AcDbBlockTableRecord
  2
*Model_Space
340
1A
 70
0
280
1
281
0
  0
BLOCK_RECORD
  5
1B
330
9
100
AcDbSymbolTableRecord
100
AcDbBlockTableRecord
  2
*Paper_Space
340
1E
 70
0
280
1
281
0
  0
BLOCK_RECORD
  5
74
330
9
100
AcDbSymbolTableRecord
100
AcDbBlockTableRecord
  2
_ARCHTICK
340
0
 70
0
280
1
281
0
  0
BLOCK_RECORD
  5
78
330
9
100
AcDbSymbolTableRecord
100
AcDbBlockTableRecord
  2
_CLOSEDFILLED
340
0
 70
0
280
1
281
0
  0
BLOCK_RECORD
  5
84
330
9
100
AcDbSymbolTableRecord
100
AcDbBlockTableRecord
  2
_CLOSEDBLANK
340
0
 70
0
280
1
281
0
  0
ENDTAB
  0
ENDSEC
  0
SECTION
  2
BLOCKS
  0
BLOCK
  5
18
330
17
100
AcDbEntity
  8
0
100
AcDbBlockBegin
  2
*Model_Space
 70
0
 10
0.0
 20
0.0
 30
0.0
  3
*Model_Space
  1

  0
ENDBLK
  5
19
330
17
100
AcDbEntity
  8
0
100
AcDbBlockEnd
  0
BLOCK
  5
1C
330
1B
100
AcDbEntity
  8
0
100
AcDbBlockBegin
  2
*Paper_Space
 70
0
 10
0.0
 20
0.0
 30
0.0
  3
*Paper_Space
  1

  0
ENDBLK
  5
1D
330
1B
100
AcDbEntity
  8
0
100
AcDbBlockEnd
  0
BLOCK
  5
75
330
74
100
AcDbEntity
  8
0
100
AcDbBlockBegin
  2
_ARCHTICK
 70
0
 10
0.0
 20
0.0
 30
0.0
  3
_ARCHTICK
  1

  0
LWPOLYLINE
  5
77
330
74
100
AcDbEntity
  8
0
  6
BYBLOCK
 62
0
100
AcDbPolyline
 90
2
 70
0
 43
0.15
 10
-0.5
 20
-0.5
 10
0.5
 20
0.5
  0
ENDBLK
  5
76
330
74
100
AcDbEntity
  8
0
100
AcDbBlockEnd
  0
BLOCK
  5
79
330
78
100
AcDbEntity
  8
0
100
AcDbBlockBegin
  2
_CLOSEDFILLED
 70
0
 10
0.0
 20
0.0
 30
0.0
  3
_CLOSEDFILLED
  1

  0
SOLID
  5
7B
330
78
100
AcDbEntity
  8
0
  6
BYBLOCK
 62
0
100
AcDbTrace
 10
-1.0
 20
0.16439898372402537
 30
0.0
 11
0.0
 21
0.0
 31
0.0
 12
-1.0
 22
-0.16439898372402537
 32
0.0
 13
-1.0
 23
-0.16439898372402537
 33
0.0
  0
ENDBLK
  5
7A
330
78
100
AcDbEntity
  8
0
100
AcDbBlockEnd
  0
BLOCK
  5
85
330
84
100
AcDbEntity
  8
0
100
AcDbBlockBegin
  2
_CLOSEDBLANK
 70
0
 10
0.0
 20
0.0
 30
0.0
  3
_CLOSEDBLANK
  1

  0
LWPOLYLINE
  5
87
330
84
100
AcDbEntity
  8
0
  6
BYBLOCK
 62
0
100
AcDbPolyline
 90
3
 70
1
 10
-1.0
 20
0.16439898372402537
 10
0.0
 20
0.0
 10
-1.0
 20
-0.16439898372402537
  0
ENDBLK
  5
86
330
84
100
AcDbEntity
  8
0
100
AcDbBlockEnd
  0
ENDSEC
  0
SECTION
  2
ENTITIES
  0
LINE
  5
99
330
17
100
AcDbEntity
  8
A-TITLE
100
AcDbLine
 10
-2.5
 20
-3.2
 30
0.0
 11
52.8
 21
-3.2
 31
0.0
  0
LINE
  5
9A
330
17
100
AcDbEntity
  8
A-TITLE
100
AcDbLine
 10
52.8
 20
-3.2
 30
0.0
 11
52.8
 21
20.5
 31
0.0
  0
LINE
  5
9B
330
17
100
AcDbEntity
  8
A-TITLE
100
AcDbLine
 10
52.8
 20
20.5
 30
0.0
 11
-2.5
 21
20.5
 31
0.0
  0
LINE
  5
9C
330
17
100
AcDbEntity
  8
A-TITLE
100
AcDbLine
 10
-2.5
 20
20.5
 30
0.0
 11
-2.5
 21
-3.2
 31
0.0
  0
LINE
  5
9D
330
17
100
AcDbEntity
  8
A-TITLE
100
AcDbLine
 10
-2.25
 20
-2.95
 30
0.0
 11
52.55
 21
-2.95
 31
0.0
  0
LINE
  5
9E
330
17
100
AcDbEntity
  8
A-TITLE
100
AcDbLine
 10
52.55
 20
-2.95
 30
0.0
 11
52.55
 21
20.25
 31
0.0
  0
LINE
  5
9F
330
17
100
AcDbEntity
  8
A-TITLE
100
AcDbLine
 10
52.55
 20
20.25
 30
0.0
 11
-2.25
 21
20.25
 31
0.0
  0
LINE
  5
A0
330
17
100
AcDbEntity
  8
A-TITLE
100
AcDbLine
 10
-2.25
 20
20.25
 30
0.0
 11
-2.25
 21
-2.95
 31
0.0
  0
LINE
  5
A1
330
17
100
AcDbEntity
  8
A-GRID
  6
CENTER2
100
AcDbLine
 10
0.0
 20
-0.75
 30
0.0
 11
0.0
 21
14.75
 31
0.0
  0
CIRCLE
  5
A2
330
17
100
AcDbEntity
  8
A-GRID
100
AcDbCircle
 10
0.0
 20
15.25
 30
0.0
 40
0.25
  0
TEXT
  5
A3
330
17
100
AcDbEntity
  8
A-GRID
100
AcDbText
 10
0.0
 20
15.25
 30
0.0
 40
0.26
  1
A
  7
PJ_STANDARD
 72
1
 11
0.0
 21
15.25
 31
0.0
100
AcDbText
 73
2
  0
LINE
  5
A4
330
17
100
AcDbEntity
  8
A-GRID
  6
CENTER2
100
AcDbLine
 10
2.0
 20
-0.75
 30
0.0
 11
2.0
 21
14.75
 31
0.0
  0
CIRCLE
  5
A5
330
17
100
AcDbEntity
  8
A-GRID
100
AcDbCircle
 10
2.0
 20
15.25
 30
0.0
 40
0.25
  0
TEXT
  5
A6
330
17
100
AcDbEntity
  8
A-GRID
100
AcDbText
 10
2.0
 20
15.25
 30
0.0
 40
0.26
  1
B
  7
PJ_STANDARD
 72
1
 11
2.0
 21
15.25
 31
0.0
100
AcDbText
 73
2
  0
LINE
  5
A7
330
17
100
AcDbEntity
  8
A-GRID
  6
CENTER2
100
AcDbLine
 10
5.0
 20
-0.75
 30
0.0
 11
5.0
 21
14.75
 31
0.0
  0
CIRCLE
  5
A8
330
17
100
AcDbEntity
  8
A-GRID
100
AcDbCircle
 10
5.0
 20
15.25
 30
0.0
 40
0.25
  0
TEXT
  5
A9
330
17
100
AcDbEntity
  8
A-GRID
100
AcDbText
 10
5.0
 20
15.25
 30
0.0
 40
0.26
  1
C
  7
PJ_STANDARD
 72
1
 11
5.0
 21
15.25
 31
0.0
100
AcDbText
 73
2
  0
LINE
  5
AA
330
17
100
AcDbEntity
  8
A-GRID
  6
CENTER2
100
AcDbLine
 10
8.0
 20
-0.75
 30
0.0
 11
8.0
 21
14.75
 31
0.0
  0
CIRCLE
  5
AB
330
17
100
AcDbEntity
  8
A-GRID
100
AcDbCircle
 10
8.0
 20
15.25
 30
0.0
 40
0.25
  0
TEXT
  5
AC
330
17
100
AcDbEntity
  8
A-GRID
100
AcDbText
 10
8.0
 20
15.25
 30
0.0
 40
0.26
  1
D
  7
PJ_STANDARD
 72
1
 11
8.0
 21
15.25
 31
0.0
100
AcDbText
 73
2
  0
LINE
  5
AD
330
17
100
AcDbEntity
  8
A-GRID
  6
CENTER2
100
AcDbLine
 10
12.0
 20
-0.75
 30
0.0
 11
12.0
 21
14.75
 31
0.0
  0
CIRCLE
  5
AE
330
17
100
AcDbEntity
  8
A-GRID
100
AcDbCircle
 10
12.0
 20
15.25
 30
0.0
 40
0.25
  0
TEXT
  5
AF
330
17
100
AcDbEntity
  8
A-GRID
100
AcDbText
 10
12.0
 20
15.25
 30
0.0
 40
0.26
  1
E
  7
PJ_STANDARD
 72
1
 11
12.0
 21
15.25
 31
0.0
100
AcDbText
 73
2
  0
LINE
  5
B0
330
17
100
AcDbEntity
  8
A-GRID
  6
CENTER2
100
AcDbLine
 10
14.0
 20
-0.75
 30
0.0
 11
14.0
 21
14.75
 31
0.0
  0
CIRCLE
  5
B1
330
17
100
AcDbEntity
  8
A-GRID
100
AcDbCircle
 10
14.0
 20
15.25
 30
0.0
 40
0.25
  0
TEXT
  5
B2
330
17
100
AcDbEntity
  8
A-GRID
100
AcDbText
 10
14.0
 20
15.25
 30
0.0
 40
0.26
  1
F
  7
PJ_STANDARD
 72
1
 11
14.0
 21
15.25
 31
0.0
100
AcDbText
 73
2
  0
LINE
  5
B3
330
17
100
AcDbEntity
  8
A-GRID
  6
CENTER2
100
AcDbLine
 10
16.0
 20
-0.75
 30
0.0
 11
16.0
 21
14.75
 31
0.0
  0
CIRCLE
  5
B4
330
17
100
AcDbEntity
  8
A-GRID
100
AcDbCircle
 10
16.0
 20
15.25
 30
0.0
 40
0.25
  0
TEXT
  5
B5
330
17
100
AcDbEntity
  8
A-GRID
100
AcDbText
 10
16.0
 20
15.25
 30
0.0
 40
0.26
  1
G
  7
PJ_STANDARD
 72
1
 11
16.0
 21
15.25
 31
0.0
100
AcDbText
 73
2
  0
LINE
  5
B6
330
17
100
AcDbEntity
  8
A-GRID
  6
CENTER2
100
AcDbLine
 10
-0.75
 20
0.0
 30
0.0
 11
16.75
 21
0.0
 31
0.0
  0
CIRCLE
  5
B7
330
17
100
AcDbEntity
  8
A-GRID
100
AcDbCircle
 10
-1.18
 20
0.0
 30
0.0
 40
0.25
  0
TEXT
  5
B8
330
17
100
AcDbEntity
  8
A-GRID
100
AcDbText
 10
-1.18
 20
0.0
 30
0.0
 40
0.26
  1
1
  7
PJ_STANDARD
 72
1
 11
-1.18
 21
0.0
 31
0.0
100
AcDbText
 73
2
  0
LINE
  5
B9
330
17
100
AcDbEntity
  8
A-GRID
  6
CENTER2
100
AcDbLine
 10
-0.75
 20
2.0
 30
0.0
 11
16.75
 21
2.0
 31
0.0
  0
CIRCLE
  5
BA
330
17
100
AcDbEntity
  8
A-GRID
100
AcDbCircle
 10
-1.18
 20
2.0
 30
0.0
 40
0.25
  0
TEXT
  5
BB
330
17
100
AcDbEntity
  8
A-GRID
100
AcDbText
 10
-1.18
 20
2.0
 30
0.0
 40
0.26
  1
2
  7
PJ_STANDARD
 72
1
 11
-1.18
 21
2.0
 31
0.0
100
AcDbText
 73
2
  0
LINE
  5
BC
330
17
100
AcDbEntity
  8
A-GRID
  6
CENTER2
100
AcDbLine
 10
-0.75
 20
6.0
 30
0.0
 11
16.75
 21
6.0
 31
0.0
  0
CIRCLE
  5
BD
330
17
100
AcDbEntity
  8
A-GRID
100
AcDbCircle
 10
-1.18
 20
6.0
 30
0.0
 40
0.25
  0
TEXT
  5
BE
330
17
100
AcDbEntity
  8
A-GRID
100
AcDbText
 10
-1.18
 20
6.0
 30
0.0
 40
0.26
  1
3
  7
PJ_STANDARD
 72
1
 11
-1.18
 21
6.0
 31
0.0
100
AcDbText
 73
2
  0
LINE
  5
BF
330
17
100
AcDbEntity
  8
A-GRID
  6
CENTER2
100
AcDbLine
 10
-0.75
 20
10.5
 30
0.0
 11
16.75
 21
10.5
 31
0.0
  0
CIRCLE
  5
C0
330
17
100
AcDbEntity
  8
A-GRID
100
AcDbCircle
 10
-1.18
 20
10.5
 30
0.0
 40
0.25
  0
TEXT
  5
C1
330
17
100
AcDbEntity
  8
A-GRID
100
AcDbText
 10
-1.18
 20
10.5
 30
0.0
 40
0.26
  1
4
  7
PJ_STANDARD
 72
1
 11
-1.18
 21
10.5
 31
0.0
100
AcDbText
 73
2
  0
LINE
  5
C2
330
17
100
AcDbEntity
  8
A-GRID
  6
CENTER2
100
AcDbLine
 10
-0.75
 20
14.0
 30
0.0
 11
16.75
 21
14.0
 31
0.0
  0
CIRCLE
  5
C3
330
17
100
AcDbEntity
  8
A-GRID
100
AcDbCircle
 10
-1.18
 20
14.0
 30
0.0
 40
0.25
  0
TEXT
  5
C4
330
17
100
AcDbEntity
  8
A-GRID
100
AcDbText
 10
-1.18
 20
14.0
 30
0.0
 40
0.26
  1
5
  7
PJ_STANDARD
 72
1
 11
-1.18
 21
14.0
 31
0.0
100
AcDbText
 73
2
  0
LINE
  5
C5
330
17
100
AcDbEntity
  8
A-DIMS
100
AcDbLine
 10
0.0
 20
14.55
 30
0.0
 11
2.0
 21
14.55
 31
0.0
  0
LINE
  5
C6
330
17
100
AcDbEntity
  8
A-DIMS
100
AcDbLine
 10
0.0
 20
14.42
 30
0.0
 11
0.0
 21
14.680000000000001
 31
0.0
  0
LINE
  5
C7
330
17
100
AcDbEntity
  8
A-DIMS
100
AcDbLine
 10
2.0
 20
14.42
 30
0.0
 11
2.0
 21
14.680000000000001
 31
0.0
  0
TEXT
  5
C8
330
17
100
AcDbEntity
  8
A-DIMS
100
AcDbText
 10
1.0
 20
14.71
 30
0.0
 40
0.18
  1
2.00
  7
PJ_STANDARD
 72
1
 11
1.0
 21
14.71
 31
0.0
100
AcDbText
 73
2
  0
LINE
  5
C9
330
17
100
AcDbEntity
  8
A-DIMS
100
AcDbLine
 10
2.0
 20
14.55
 30
0.0
 11
5.0
 21
14.55
 31
0.0
  0
LINE
  5
CA
330
17
100
AcDbEntity
  8
A-DIMS
100
AcDbLine
 10
2.0
 20
14.42
 30
0.0
 11
2.0
 21
14.680000000000001
 31
0.0
  0
LINE
  5
CB
330
17
100
AcDbEntity
  8
A-DIMS
100
AcDbLine
 10
5.0
 20
14.42
 30
0.0
 11
5.0
 21
14.680000000000001
 31
0.0
  0
TEXT
  5
CC
330
17
100
AcDbEntity
  8
A-DIMS
100
AcDbText
 10
3.5
 20
14.71
 30
0.0
 40
0.18
  1
3.00
  7
PJ_STANDARD
 72
1
 11
3.5
 21
14.71
 31
0.0
100
AcDbText
 73
2
  0
LINE
  5
CD
330
17
100
AcDbEntity
  8
A-DIMS
100
AcDbLine
 10
5.0
 20
14.55
 30
0.0
 11
8.0
 21
14.55
 31
0.0
  0
LINE
  5
CE
330
17
100
AcDbEntity
  8
A-DIMS
100
AcDbLine
 10
5.0
 20
14.42
 30
0.0
 11
5.0
 21
14.680000000000001
 31
0.0
  0
LINE
  5
CF
330
17
100
AcDbEntity
  8
A-DIMS
100
AcDbLine
 10
8.0
 20
14.42
 30
0.0
 11
8.0
 21
14.680000000000001
 31
0.0
  0
TEXT
  5
D0
330
17
100
AcDbEntity
  8
A-DIMS
100
AcDbText
 10
6.5
 20
14.71
 30
0.0
 40
0.18
  1
3.00
  7
PJ_STANDARD
 72
1
 11
6.5
 21
14.71
 31
0.0
100
AcDbText
 73
2
  0
LINE
  5
D1
330
17
100
AcDbEntity
  8
A-DIMS
100
AcDbLine
 10
8.0
 20
14.55
 30
0.0
 11
12.0
 21
14.55
 31
0.0
  0
LINE
  5
D2
330
17
100
AcDbEntity
  8
A-DIMS
100
AcDbLine
 10
8.0
 20
14.42
 30
0.0
 11
8.0
 21
14.680000000000001
 31
0.0
  0
LINE
  5
D3
330
17
100
AcDbEntity
  8
A-DIMS
100
AcDbLine
 10
12.0
 20
14.42
 30
0.0
 11
12.0
 21
14.680000000000001
 31
0.0
  0
TEXT
  5
D4
330
17
100
AcDbEntity
  8
A-DIMS
100
AcDbText
 10
10.0
 20
14.71
 30
0.0
 40
0.18
  1
4.00
  7
PJ_STANDARD
 72
1
 11
10.0
 21
14.71
 31
0.0
100
AcDbText
 73
2
  0
LINE
  5
D5
330
17
100
AcDbEntity
  8
A-DIMS
100
AcDbLine
 10
12.0
 20
14.55
 30
0.0
 11
14.0
 21
14.55
 31
0.0
  0
LINE
  5
D6
330
17
100
AcDbEntity
  8
A-DIMS
100
AcDbLine
 10
12.0
 20
14.42
 30
0.0
 11
12.0
 21
14.680000000000001
 31
0.0
  0
LINE
  5
D7
330
17
100
AcDbEntity
  8
A-DIMS
100
AcDbLine
 10
14.0
 20
14.42
 30
0.0
 11
14.0
 21
14.680000000000001
 31
0.0
  0
TEXT
  5
D8
330
17
100
AcDbEntity
  8
A-DIMS
100
AcDbText
 10
13.0
 20
14.71
 30
0.0
 40
0.18
  1
2.00
  7
PJ_STANDARD
 72
1
 11
13.0
 21
14.71
 31
0.0
100
AcDbText
 73
2
  0
LINE
  5
D9
330
17
100
AcDbEntity
  8
A-DIMS
100
AcDbLine
 10
14.0
 20
14.55
 30
0.0
 11
16.0
 21
14.55
 31
0.0
  0
LINE
  5
DA
330
17
100
AcDbEntity
  8
A-DIMS
100
AcDbLine
 10
14.0
 20
14.42
 30
0.0
 11
14.0
 21
14.680000000000001
 31
0.0
  0
LINE
  5
DB
330
17
100
AcDbEntity
  8
A-DIMS
100
AcDbLine
 10
16.0
 20
14.42
 30
0.0
 11
16.0
 21
14.680000000000001
 31
0.0
  0
TEXT
  5
DC
330
17
100
AcDbEntity
  8
A-DIMS
100
AcDbText
 10
15.0
 20
14.71
 30
0.0
 40
0.18
  1
2.00
  7
PJ_STANDARD
 72
1
 11
15.0
 21
14.71
 31
0.0
100
AcDbText
 73
2
  0
LINE
  5
DD
330
17
100
AcDbEntity
  8
A-DIMS
100
AcDbLine
 10
0.0
 20
14.95
 30
0.0
 11
16.0
 21
14.95
 31
0.0
  0
LINE
  5
DE
330
17
100
AcDbEntity
  8
A-DIMS
100
AcDbLine
 10
0.0
 20
14.819999999999999
 30
0.0
 11
0.0
 21
15.08
 31
0.0
  0
LINE
  5
DF
330
17
100
AcDbEntity
  8
A-DIMS
100
AcDbLine
 10
16.0
 20
14.819999999999999
 30
0.0
 11
16.0
 21
15.08
 31
0.0
  0
TEXT
  5
E0
330
17
100
AcDbEntity
  8
A-DIMS
100
AcDbText
 10
8.0
 20
15.11
 30
0.0
 40
0.18
  1
16.00
  7
PJ_STANDARD
 72
1
 11
8.0
 21
15.11
 31
0.0
100
AcDbText
 73
2
  0
LINE
  5
E1
330
17
100
AcDbEntity
  8
A-DIMS
100
AcDbLine
 10
-0.52
 20
0.0
 30
0.0
 11
-0.52
 21
2.0
 31
0.0
  0
LINE
  5
E2
330
17
100
AcDbEntity
  8
A-DIMS
100
AcDbLine
 10
-0.65
 20
0.0
 30
0.0
 11
-0.39
 21
0.0
 31
0.0
  0
LINE
  5
E3
330
17
100
AcDbEntity
  8
A-DIMS
100
AcDbLine
 10
-0.65
 20
2.0
 30
0.0
 11
-0.39
 21
2.0
 31
0.0
  0
TEXT
  5
E4
330
17
100
AcDbEntity
  8
A-DIMS
100
AcDbText
 10
-0.77
 20
1.0
 30
0.0
 40
0.18
  1
2.00
 50
90.0
  7
PJ_STANDARD
 72
1
 11
-0.77
 21
1.0
 31
0.0
100
AcDbText
 73
2
  0
LINE
  5
E5
330
17
100
AcDbEntity
  8
A-DIMS
100
AcDbLine
 10
-0.52
 20
2.0
 30
0.0
 11
-0.52
 21
6.0
 31
0.0
  0
LINE
  5
E6
330
17
100
AcDbEntity
  8
A-DIMS
100
AcDbLine
 10
-0.65
 20
2.0
 30
0.0
 11
-0.39
 21
2.0
 31
0.0
  0
LINE
  5
E7
330
17
100
AcDbEntity
  8
A-DIMS
100
AcDbLine
 10
-0.65
 20
6.0
 30
0.0
 11
-0.39
 21
6.0
 31
0.0
  0
TEXT
  5
E8
330
17
100
AcDbEntity
  8
A-DIMS
100
AcDbText
 10
-0.77
 20
4.0
 30
0.0
 40
0.18
  1
4.00
 50
90.0
  7
PJ_STANDARD
 72
1
 11
-0.77
 21
4.0
 31
0.0
100
AcDbText
 73
2
  0
LINE
  5
E9
330
17
100
AcDbEntity
  8
A-DIMS
100
AcDbLine
 10
-0.52
 20
6.0
 30
0.0
 11
-0.52
 21
10.5
 31
0.0
  0
LINE
  5
EA
330
17
100
AcDbEntity
  8
A-DIMS
100
AcDbLine
 10
-0.65
 20
6.0
 30
0.0
 11
-0.39
 21
6.0
 31
0.0
  0
LINE
  5
EB
330
17
100
AcDbEntity
  8
A-DIMS
100
AcDbLine
 10
-0.65
 20
10.5
 30
0.0
 11
-0.39
 21
10.5
 31
0.0
  0
TEXT
  5
EC
330
17
100
AcDbEntity
  8
A-DIMS
100
AcDbText
 10
-0.77
 20
8.25
 30
0.0
 40
0.18
  1
4.50
 50
90.0
  7
PJ_STANDARD
 72
1
 11
-0.77
 21
8.25
 31
0.0
100
AcDbText
 73
2
  0
LINE
  5
ED
330
17
100
AcDbEntity
  8
A-DIMS
100
AcDbLine
 10
-0.52
 20
10.5
 30
0.0
 11
-0.52
 21
14.0
 31
0.0
  0
LINE
  5
EE
330
17
100
AcDbEntity
  8
A-DIMS
100
AcDbLine
 10
-0.65
 20
10.5
 30
0.0
 11
-0.39
 21
10.5
 31
0.0
  0
LINE
  5
EF
330
17
100
AcDbEntity
  8
A-DIMS
100
AcDbLine
 10
-0.65
 20
14.0
 30
0.0
 11
-0.39
 21
14.0
 31
0.0
  0
TEXT
  5
F0
330
17
100
AcDbEntity
  8
A-DIMS
100
AcDbText
 10
-0.77
 20
12.25
 30
0.0
 40
0.18
  1
3.50
 50
90.0
  7
PJ_STANDARD
 72
1
 11
-0.77
 21
12.25
 31
0.0
100
AcDbText
 73
2
  0
LINE
  5
F1
330
17
100
AcDbEntity
  8
A-DIMS
100
AcDbLine
 10
-0.9
 20
0.0
 30
0.0
 11
-0.9
 21
14.0
 31
0.0
  0
LINE
  5
F2
330
17
100
AcDbEntity
  8
A-DIMS
100
AcDbLine
 10
-1.03
 20
0.0
 30
0.0
 11
-0.77
 21
0.0
 31
0.0
  0
LINE
  5
F3
330
17
100
AcDbEntity
  8
A-DIMS
100
AcDbLine
 10
-1.03
 20
14.0
 30
0.0
 11
-0.77
 21
14.0
 31
0.0
  0
TEXT
  5
F4
330
17
100
AcDbEntity
  8
A-DIMS
100
AcDbText
 10
-1.15
 20
7.0
 30
0.0
 40
0.18
  1
14.00
 50
90.0
  7
PJ_STANDARD
 72
1
 11
-1.15
 21
7.0
 31
0.0
100
AcDbText
 73
2
  0
LINE
  5
F5
330
17
100
AcDbEntity
  8
A-WALL
100
AcDbLine
 10
0.0
 20
0.0
 30
0.0
 11
16.0
 21
0.0
 31
0.0
  0
LINE
  5
F6
330
17
100
AcDbEntity
  8
A-WALL
100
AcDbLine
 10
16.0
 20
0.0
 30
0.0
 11
16.0
 21
14.0
 31
0.0
  0
LINE
  5
F7
330
17
100
AcDbEntity
  8
A-WALL
100
AcDbLine
 10
16.0
 20
14.0
 30
0.0
 11
0.0
 21
14.0
 31
0.0
  0
LINE
  5
F8
330
17
100
AcDbEntity
  8
A-WALL
100
AcDbLine
 10
0.0
 20
14.0
 30
0.0
 11
0.0
 21
0.0
 31
0.0
  0
LINE
  5
F9
330
17
100
AcDbEntity
  8
A-ROOF
  6
DASHED2
100
AcDbLine
 10
-0.55
 20
-0.55
 30
0.0
 11
16.55
 21
-0.55
 31
0.0
  0
LINE
  5
FA
330
17
100
AcDbEntity
  8
A-ROOF
  6
DASHED2
100
AcDbLine
 10
16.55
 20
-0.55
 30
0.0
 11
16.55
 21
14.55
 31
0.0
  0
LINE
  5
FB
330
17
100
AcDbEntity
  8
A-ROOF
  6
DASHED2
100
AcDbLine
 10
16.55
 20
14.55
 30
0.0
 11
-0.55
 21
14.55
 31
0.0
  0
LINE
  5
FC
330
17
100
AcDbEntity
  8
A-ROOF
  6
DASHED2
100
AcDbLine
 10
-0.55
 20
14.55
 30
0.0
 11
-0.55
 21
-0.55
 31
0.0
  0
LINE
  5
FD
330
17
100
AcDbEntity
  8
A-WALL
100
AcDbLine
 10
0.0
 20
1.925
 30
0.0
 11
16.0
 21
1.925
 31
0.0
  0
LINE
  5
FE
330
17
100
AcDbEntity
  8
A-WALL
100
AcDbLine
 10
16.0
 20
1.925
 30
0.0
 11
16.0
 21
2.075
 31
0.0
  0
LINE
  5
FF
330
17
100
AcDbEntity
  8
A-WALL
100
AcDbLine
 10
16.0
 20
2.075
 30
0.0
 11
0.0
 21
2.075
 31
0.0
  0
LINE
  5
100
330
17
100
AcDbEntity
  8
A-WALL
100
AcDbLine
 10
0.0
 20
2.075
 30
0.0
 11
0.0
 21
1.925
 31
0.0
  0
LINE
  5
101
330
17
100
AcDbEntity
  8
A-WALL
100
AcDbLine
 10
0.0
 20
5.925
 30
0.0
 11
16.0
 21
5.925
 31
0.0
  0
LINE
  5
102
330
17
100
AcDbEntity
  8
A-WALL
100
AcDbLine
 10
16.0
 20
5.925
 30
0.0
 11
16.0
 21
6.075
 31
0.0
  0
LINE
  5
103
330
17
100
AcDbEntity
  8
A-WALL
100
AcDbLine
 10
16.0
 20
6.075
 30
0.0
 11
0.0
 21
6.075
 31
0.0
  0
LINE
  5
104
330
17
100
AcDbEntity
  8
A-WALL
100
AcDbLine
 10
0.0
 20
6.075
 30
0.0
 11
0.0
 21
5.925
 31
0.0
  0
LINE
  5
105
330
17
100
AcDbEntity
  8
A-WALL
100
AcDbLine
 10
0.0
 20
10.425
 30
0.0
 11
16.0
 21
10.425
 31
0.0
  0
LINE
  5
106
330
17
100
AcDbEntity
  8
A-WALL
100
AcDbLine
 10
16.0
 20
10.425
 30
0.0
 11
16.0
 21
10.575
 31
0.0
  0
LINE
  5
107
330
17
100
AcDbEntity
  8
A-WALL
100
AcDbLine
 10
16.0
 20
10.575
 30
0.0
 11
0.0
 21
10.575
 31
0.0
  0
LINE
  5
108
330
17
100
AcDbEntity
  8
A-WALL
100
AcDbLine
 10
0.0
 20
10.575
 30
0.0
 11
0.0
 21
10.425
 31
0.0
  0
LINE
  5
109
330
17
100
AcDbEntity
  8
A-WALL
100
AcDbLine
 10
4.925
 20
0.0
 30
0.0
 11
5.075
 21
0.0
 31
0.0
  0
LINE
  5
10A
330
17
100
AcDbEntity
  8
A-WALL
100
AcDbLine
 10
5.075
 20
0.0
 30
0.0
 11
5.075
 21
14.0
 31
0.0
  0
LINE
  5
10B
330
17
100
AcDbEntity
  8
A-WALL
100
AcDbLine
 10
5.075
 20
14.0
 30
0.0
 11
4.925
 21
14.0
 31
0.0
  0
LINE
  5
10C
330
17
100
AcDbEntity
  8
A-WALL
100
AcDbLine
 10
4.925
 20
14.0
 30
0.0
 11
4.925
 21
0.0
 31
0.0
  0
LINE
  5
10D
330
17
100
AcDbEntity
  8
A-WALL
100
AcDbLine
 10
7.925
 20
0.0
 30
0.0
 11
8.075
 21
0.0
 31
0.0
  0
LINE
  5
10E
330
17
100
AcDbEntity
  8
A-WALL
100
AcDbLine
 10
8.075
 20
0.0
 30
0.0
 11
8.075
 21
14.0
 31
0.0
  0
LINE
  5
10F
330
17
100
AcDbEntity
  8
A-WALL
100
AcDbLine
 10
8.075
 20
14.0
 30
0.0
 11
7.925
 21
14.0
 31
0.0
  0
LINE
  5
110
330
17
100
AcDbEntity
  8
A-WALL
100
AcDbLine
 10
7.925
 20
14.0
 30
0.0
 11
7.925
 21
0.0
 31
0.0
  0
LINE
  5
111
330
17
100
AcDbEntity
  8
A-WALL
100
AcDbLine
 10
11.925
 20
0.0
 30
0.0
 11
12.075
 21
0.0
 31
0.0
  0
LINE
  5
112
330
17
100
AcDbEntity
  8
A-WALL
100
AcDbLine
 10
12.075
 20
0.0
 30
0.0
 11
12.075
 21
14.0
 31
0.0
  0
LINE
  5
113
330
17
100
AcDbEntity
  8
A-WALL
100
AcDbLine
 10
12.075
 20
14.0
 30
0.0
 11
11.925
 21
14.0
 31
0.0
  0
LINE
  5
114
330
17
100
AcDbEntity
  8
A-WALL
100
AcDbLine
 10
11.925
 20
14.0
 30
0.0
 11
11.925
 21
0.0
 31
0.0
  0
LINE
  5
115
330
17
100
AcDbEntity
  8
A-COLUMN
100
AcDbLine
 10
-0.12
 20
-0.12
 30
0.0
 11
0.12
 21
-0.12
 31
0.0
  0
LINE
  5
116
330
17
100
AcDbEntity
  8
A-COLUMN
100
AcDbLine
 10
0.12
 20
-0.12
 30
0.0
 11
0.12
 21
0.12
 31
0.0
  0
LINE
  5
117
330
17
100
AcDbEntity
  8
A-COLUMN
100
AcDbLine
 10
0.12
 20
0.12
 30
0.0
 11
-0.12
 21
0.12
 31
0.0
  0
LINE
  5
118
330
17
100
AcDbEntity
  8
A-COLUMN
100
AcDbLine
 10
-0.12
 20
0.12
 30
0.0
 11
-0.12
 21
-0.12
 31
0.0
  0
LINE
  5
119
330
17
100
AcDbEntity
  8
A-COLUMN
100
AcDbLine
 10
-0.12
 20
1.88
 30
0.0
 11
0.12
 21
1.88
 31
0.0
  0
LINE
  5
11A
330
17
100
AcDbEntity
  8
A-COLUMN
100
AcDbLine
 10
0.12
 20
1.88
 30
0.0
 11
0.12
 21
2.12
 31
0.0
  0
LINE
  5
11B
330
17
100
AcDbEntity
  8
A-COLUMN
100
AcDbLine
 10
0.12
 20
2.12
 30
0.0
 11
-0.12
 21
2.12
 31
0.0
  0
LINE
  5
11C
330
17
100
AcDbEntity
  8
A-COLUMN
100
AcDbLine
 10
-0.12
 20
2.12
 30
0.0
 11
-0.12
 21
1.88
 31
0.0
  0
LINE
  5
11D
330
17
100
AcDbEntity
  8
A-COLUMN
100
AcDbLine
 10
-0.12
 20
5.88
 30
0.0
 11
0.12
 21
5.88
 31
0.0
  0
LINE
  5
11E
330
17
100
AcDbEntity
  8
A-COLUMN
100
AcDbLine
 10
0.12
 20
5.88
 30
0.0
 11
0.12
 21
6.12
 31
0.0
  0
LINE
  5
11F
330
17
100
AcDbEntity
  8
A-COLUMN
100
AcDbLine
 10
0.12
 20
6.12
 30
0.0
 11
-0.12
 21
6.12
 31
0.0
  0
LINE
  5
120
330
17
100
AcDbEntity
  8
A-COLUMN
100
AcDbLine
 10
-0.12
 20
6.12
 30
0.0
 11
-0.12
 21
5.88
 31
0.0
  0
LINE
  5
121
330
17
100
AcDbEntity
  8
A-COLUMN
100
AcDbLine
 10
-0.12
 20
10.38
 30
0.0
 11
0.12
 21
10.38
 31
0.0
  0
LINE
  5
122
330
17
100
AcDbEntity
  8
A-COLUMN
100
AcDbLine
 10
0.12
 20
10.38
 30
0.0
 11
0.12
 21
10.62
 31
0.0
  0
LINE
  5
123
330
17
100
AcDbEntity
  8
A-COLUMN
100
AcDbLine
 10
0.12
 20
10.62
 30
0.0
 11
-0.12
 21
10.62
 31
0.0
  0
LINE
  5
124
330
17
100
AcDbEntity
  8
A-COLUMN
100
AcDbLine
 10
-0.12
 20
10.62
 30
0.0
 11
-0.12
 21
10.38
 31
0.0
  0
LINE
  5
125
330
17
100
AcDbEntity
  8
A-COLUMN
100
AcDbLine
 10
-0.12
 20
13.88
 30
0.0
 11
0.12
 21
13.88
 31
0.0
  0
LINE
  5
126
330
17
100
AcDbEntity
  8
A-COLUMN
100
AcDbLine
 10
0.12
 20
13.88
 30
0.0
 11
0.12
 21
14.12
 31
0.0
  0
LINE
  5
127
330
17
100
AcDbEntity
  8
A-COLUMN
100
AcDbLine
 10
0.12
 20
14.12
 30
0.0
 11
-0.12
 21
14.12
 31
0.0
  0
LINE
  5
128
330
17
100
AcDbEntity
  8
A-COLUMN
100
AcDbLine
 10
-0.12
 20
14.12
 30
0.0
 11
-0.12
 21
13.88
 31
0.0
  0
LINE
  5
129
330
17
100
AcDbEntity
  8
A-COLUMN
100
AcDbLine
 10
1.88
 20
-0.12
 30
0.0
 11
2.12
 21
-0.12
 31
0.0
  0
LINE
  5
12A
330
17
100
AcDbEntity
  8
A-COLUMN
100
AcDbLine
 10
2.12
 20
-0.12
 30
0.0
 11
2.12
 21
0.12
 31
0.0
  0
LINE
  5
12B
330
17
100
AcDbEntity
  8
A-COLUMN
100
AcDbLine
 10
2.12
 20
0.12
 30
0.0
 11
1.88
 21
0.12
 31
0.0
  0
LINE
  5
12C
330
17
100
AcDbEntity
  8
A-COLUMN
100
AcDbLine
 10
1.88
 20
0.12
 30
0.0
 11
1.88
 21
-0.12
 31
0.0
  0
LINE
  5
12D
330
17
100
AcDbEntity
  8
A-COLUMN
100
AcDbLine
 10
1.88
 20
13.88
 30
0.0
 11
2.12
 21
13.88
 31
0.0
  0
LINE
  5
12E
330
17
100
AcDbEntity
  8
A-COLUMN
100
AcDbLine
 10
2.12
 20
13.88
 30
0.0
 11
2.12
 21
14.12
 31
0.0
  0
LINE
  5
12F
330
17
100
AcDbEntity
  8
A-COLUMN
100
AcDbLine
 10
2.12
 20
14.12
 30
0.0
 11
1.88
 21
14.12
 31
0.0
  0
LINE
  5
130
330
17
100
AcDbEntity
  8
A-COLUMN
100
AcDbLine
 10
1.88
 20
14.12
 30
0.0
 11
1.88
 21
13.88
 31
0.0
  0
LINE
  5
131
330
17
100
AcDbEntity
  8
A-COLUMN
100
AcDbLine
 10
4.88
 20
-0.12
 30
0.0
 11
5.12
 21
-0.12
 31
0.0
  0
LINE
  5
132
330
17
100
AcDbEntity
  8
A-COLUMN
100
AcDbLine
 10
5.12
 20
-0.12
 30
0.0
 11
5.12
 21
0.12
 31
0.0
  0
LINE
  5
133
330
17
100
AcDbEntity
  8
A-COLUMN
100
AcDbLine
 10
5.12
 20
0.12
 30
0.0
 11
4.88
 21
0.12
 31
0.0
  0
LINE
  5
134
330
17
100
AcDbEntity
  8
A-COLUMN
100
AcDbLine
 10
4.88
 20
0.12
 30
0.0
 11
4.88
 21
-0.12
 31
0.0
  0
LINE
  5
135
330
17
100
AcDbEntity
  8
A-COLUMN
100
AcDbLine
 10
4.88
 20
1.88
 30
0.0
 11
5.12
 21
1.88
 31
0.0
  0
LINE
  5
136
330
17
100
AcDbEntity
  8
A-COLUMN
100
AcDbLine
 10
5.12
 20
1.88
 30
0.0
 11
5.12
 21
2.12
 31
0.0
  0
LINE
  5
137
330
17
100
AcDbEntity
  8
A-COLUMN
100
AcDbLine
 10
5.12
 20
2.12
 30
0.0
 11
4.88
 21
2.12
 31
0.0
  0
LINE
  5
138
330
17
100
AcDbEntity
  8
A-COLUMN
100
AcDbLine
 10
4.88
 20
2.12
 30
0.0
 11
4.88
 21
1.88
 31
0.0
  0
LINE
  5
139
330
17
100
AcDbEntity
  8
A-COLUMN
100
AcDbLine
 10
4.88
 20
5.88
 30
0.0
 11
5.12
 21
5.88
 31
0.0
  0
LINE
  5
13A
330
17
100
AcDbEntity
  8
A-COLUMN
100
AcDbLine
 10
5.12
 20
5.88
 30
0.0
 11
5.12
 21
6.12
 31
0.0
  0
LINE
  5
13B
330
17
100
AcDbEntity
  8
A-COLUMN
100
AcDbLine
 10
5.12
 20
6.12
 30
0.0
 11
4.88
 21
6.12
 31
0.0
  0
LINE
  5
13C
330
17
100
AcDbEntity
  8
A-COLUMN
100
AcDbLine
 10
4.88
 20
6.12
 30
0.0
 11
4.88
 21
5.88
 31
0.0
  0
LINE
  5
13D
330
17
100
AcDbEntity
  8
A-COLUMN
100
AcDbLine
 10
4.88
 20
10.38
 30
0.0
 11
5.12
 21
10.38
 31
0.0
  0
LINE
  5
13E
330
17
100
AcDbEntity
  8
A-COLUMN
100
AcDbLine
 10
5.12
 20
10.38
 30
0.0
 11
5.12
 21
10.62
 31
0.0
  0
LINE
  5
13F
330
17
100
AcDbEntity
  8
A-COLUMN
100
AcDbLine
 10
5.12
 20
10.62
 30
0.0
 11
4.88
 21
10.62
 31
0.0
  0
LINE
  5
140
330
17
100
AcDbEntity
  8
A-COLUMN
100
AcDbLine
 10
4.88
 20
10.62
 30
0.0
 11
4.88
 21
10.38
 31
0.0
  0
LINE
  5
141
330
17
100
AcDbEntity
  8
A-COLUMN
100
AcDbLine
 10
4.88
 20
13.88
 30
0.0
 11
5.12
 21
13.88
 31
0.0
  0
LINE
  5
142
330
17
100
AcDbEntity
  8
A-COLUMN
100
AcDbLine
 10
5.12
 20
13.88
 30
0.0
 11
5.12
 21
14.12
 31
0.0
  0
LINE
  5
143
330
17
100
AcDbEntity
  8
A-COLUMN
100
AcDbLine
 10
5.12
 20
14.12
 30
0.0
 11
4.88
 21
14.12
 31
0.0
  0
LINE
  5
144
330
17
100
AcDbEntity
  8
A-COLUMN
100
AcDbLine
 10
4.88
 20
14.12
 30
0.0
 11
4.88
 21
13.88
 31
0.0
  0
LINE
  5
145
330
17
100
AcDbEntity
  8
A-COLUMN
100
AcDbLine
 10
7.88
 20
-0.12
 30
0.0
 11
8.12
 21
-0.12
 31
0.0
  0
LINE
  5
146
330
17
100
AcDbEntity
  8
A-COLUMN
100
AcDbLine
 10
8.12
 20
-0.12
 30
0.0
 11
8.12
 21
0.12
 31
0.0
  0
LINE
  5
147
330
17
100
AcDbEntity
  8
A-COLUMN
100
AcDbLine
 10
8.12
 20
0.12
 30
0.0
 11
7.88
 21
0.12
 31
0.0
  0
LINE
  5
148
330
17
100
AcDbEntity
  8
A-COLUMN
100
AcDbLine
 10
7.88
 20
0.12
 30
0.0
 11
7.88
 21
-0.12
 31
0.0
  0
LINE
  5
149
330
17
100
AcDbEntity
  8
A-COLUMN
100
AcDbLine
 10
7.88
 20
1.88
 30
0.0
 11
8.12
 21
1.88
 31
0.0
  0
LINE
  5
14A
330
17
100
AcDbEntity
  8
A-COLUMN
100
AcDbLine
 10
8.12
 20
1.88
 30
0.0
 11
8.12
 21
2.12
 31
0.0
  0
LINE
  5
14B
330
17
100
AcDbEntity
  8
A-COLUMN
100
AcDbLine
 10
8.12
 20
2.12
 30
0.0
 11
7.88
 21
2.12
 31
0.0
  0
LINE
  5
14C
330
17
100
AcDbEntity
  8
A-COLUMN
100
AcDbLine
 10
7.88
 20
2.12
 30
0.0
 11
7.88
 21
1.88
 31
0.0
  0
LINE
  5
14D
330
17
100
AcDbEntity
  8
A-COLUMN
100
AcDbLine
 10
7.88
 20
5.88
 30
0.0
 11
8.12
 21
5.88
 31
0.0
  0
LINE
  5
14E
330
17
100
AcDbEntity
  8
A-COLUMN
100
AcDbLine
 10
8.12
 20
5.88
 30
0.0
 11
8.12
 21
6.12
 31
0.0
  0
LINE
  5
14F
330
17
100
AcDbEntity
  8
A-COLUMN
100
AcDbLine
 10
8.12
 20
6.12
 30
0.0
 11
7.88
 21
6.12
 31
0.0
  0
LINE
  5
150
330
17
100
AcDbEntity
  8
A-COLUMN
100
AcDbLine
 10
7.88
 20
6.12
 30
0.0
 11
7.88
 21
5.88
 31
0.0
  0
LINE
  5
151
330
17
100
AcDbEntity
  8
A-COLUMN
100
AcDbLine
 10
7.88
 20
10.38
 30
0.0
 11
8.12
 21
10.38
 31
0.0
  0
LINE
  5
152
330
17
100
AcDbEntity
  8
A-COLUMN
100
AcDbLine
 10
8.12
 20
10.38
 30
0.0
 11
8.12
 21
10.62
 31
0.0
  0
LINE
  5
153
330
17
100
AcDbEntity
  8
A-COLUMN
100
AcDbLine
 10
8.12
 20
10.62
 30
0.0
 11
7.88
 21
10.62
 31
0.0
  0
LINE
  5
154
330
17
100
AcDbEntity
  8
A-COLUMN
100
AcDbLine
 10
7.88
 20
10.62
 30
0.0
 11
7.88
 21
10.38
 31
0.0
  0
LINE
  5
155
330
17
100
AcDbEntity
  8
A-COLUMN
100
AcDbLine
 10
7.88
 20
13.88
 30
0.0
 11
8.12
 21
13.88
 31
0.0
  0
LINE
  5
156
330
17
100
AcDbEntity
  8
A-COLUMN
100
AcDbLine
 10
8.12
 20
13.88
 30
0.0
 11
8.12
 21
14.12
 31
0.0
  0
LINE
  5
157
330
17
100
AcDbEntity
  8
A-COLUMN
100
AcDbLine
 10
8.12
 20
14.12
 30
0.0
 11
7.88
 21
14.12
 31
0.0
  0
LINE
  5
158
330
17
100
AcDbEntity
  8
A-COLUMN
100
AcDbLine
 10
7.88
 20
14.12
 30
0.0
 11
7.88
 21
13.88
 31
0.0
  0
LINE
  5
159
330
17
100
AcDbEntity
  8
A-COLUMN
100
AcDbLine
 10
11.88
 20
-0.12
 30
0.0
 11
12.12
 21
-0.12
 31
0.0
  0
LINE
  5
15A
330
17
100
AcDbEntity
  8
A-COLUMN
100
AcDbLine
 10
12.12
 20
-0.12
 30
0.0
 11
12.12
 21
0.12
 31
0.0
  0
LINE
  5
15B
330
17
100
AcDbEntity
  8
A-COLUMN
100
AcDbLine
 10
12.12
 20
0.12
 30
0.0
 11
11.88
 21
0.12
 31
0.0
  0
LINE
  5
15C
330
17
100
AcDbEntity
  8
A-COLUMN
100
AcDbLine
 10
11.88
 20
0.12
 30
0.0
 11
11.88
 21
-0.12
 31
0.0
  0
LINE
  5
15D
330
17
100
AcDbEntity
  8
A-COLUMN
100
AcDbLine
 10
11.88
 20
1.88
 30
0.0
 11
12.12
 21
1.88
 31
0.0
  0
LINE
  5
15E
330
17
100
AcDbEntity
  8
A-COLUMN
100
AcDbLine
 10
12.12
 20
1.88
 30
0.0
 11
12.12
 21
2.12
 31
0.0
  0
LINE
  5
15F
330
17
100
AcDbEntity
  8
A-COLUMN
100
AcDbLine
 10
12.12
 20
2.12
 30
0.0
 11
11.88
 21
2.12
 31
0.0
  0
LINE
  5
160
330
17
100
AcDbEntity
  8
A-COLUMN
100
AcDbLine
 10
11.88
 20
2.12
 30
0.0
 11
11.88
 21
1.88
 31
0.0
  0
LINE
  5
161
330
17
100
AcDbEntity
  8
A-COLUMN
100
AcDbLine
 10
11.88
 20
5.88
 30
0.0
 11
12.12
 21
5.88
 31
0.0
  0
LINE
  5
162
330
17
100
AcDbEntity
  8
A-COLUMN
100
AcDbLine
 10
12.12
 20
5.88
 30
0.0
 11
12.12
 21
6.12
 31
0.0
  0
LINE
  5
163
330
17
100
AcDbEntity
  8
A-COLUMN
100
AcDbLine
 10
12.12
 20
6.12
 30
0.0
 11
11.88
 21
6.12
 31
0.0
  0
LINE
  5
164
330
17
100
AcDbEntity
  8
A-COLUMN
100
AcDbLine
 10
11.88
 20
6.12
 30
0.0
 11
11.88
 21
5.88
 31
0.0
  0
LINE
  5
165
330
17
100
AcDbEntity
  8
A-COLUMN
100
AcDbLine
 10
11.88
 20
10.38
 30
0.0
 11
12.12
 21
10.38
 31
0.0
  0
LINE
  5
166
330
17
100
AcDbEntity
  8
A-COLUMN
100
AcDbLine
 10
12.12
 20
10.38
 30
0.0
 11
12.12
 21
10.62
 31
0.0
  0
LINE
  5
167
330
17
100
AcDbEntity
  8
A-COLUMN
100
AcDbLine
 10
12.12
 20
10.62
 30
0.0
 11
11.88
 21
10.62
 31
0.0
  0
LINE
  5
168
330
17
100
AcDbEntity
  8
A-COLUMN
100
AcDbLine
 10
11.88
 20
10.62
 30
0.0
 11
11.88
 21
10.38
 31
0.0
  0
LINE
  5
169
330
17
100
AcDbEntity
  8
A-COLUMN
100
AcDbLine
 10
11.88
 20
13.88
 30
0.0
 11
12.12
 21
13.88
 31
0.0
  0
LINE
  5
16A
330
17
100
AcDbEntity
  8
A-COLUMN
100
AcDbLine
 10
12.12
 20
13.88
 30
0.0
 11
12.12
 21
14.12
 31
0.0
  0
LINE
  5
16B
330
17
100
AcDbEntity
  8
A-COLUMN
100
AcDbLine
 10
12.12
 20
14.12
 30
0.0
 11
11.88
 21
14.12
 31
0.0
  0
LINE
  5
16C
330
17
100
AcDbEntity
  8
A-COLUMN
100
AcDbLine
 10
11.88
 20
14.12
 30
0.0
 11
11.88
 21
13.88
 31
0.0
  0
LINE
  5
16D
330
17
100
AcDbEntity
  8
A-COLUMN
100
AcDbLine
 10
13.88
 20
-0.12
 30
0.0
 11
14.12
 21
-0.12
 31
0.0
  0
LINE
  5
16E
330
17
100
AcDbEntity
  8
A-COLUMN
100
AcDbLine
 10
14.12
 20
-0.12
 30
0.0
 11
14.12
 21
0.12
 31
0.0
  0
LINE
  5
16F
330
17
100
AcDbEntity
  8
A-COLUMN
100
AcDbLine
 10
14.12
 20
0.12
 30
0.0
 11
13.88
 21
0.12
 31
0.0
  0
LINE
  5
170
330
17
100
AcDbEntity
  8
A-COLUMN
100
AcDbLine
 10
13.88
 20
0.12
 30
0.0
 11
13.88
 21
-0.12
 31
0.0
  0
LINE
  5
171
330
17
100
AcDbEntity
  8
A-COLUMN
100
AcDbLine
 10
13.88
 20
13.88
 30
0.0
 11
14.12
 21
13.88
 31
0.0
  0
LINE
  5
172
330
17
100
AcDbEntity
  8
A-COLUMN
100
AcDbLine
 10
14.12
 20
13.88
 30
0.0
 11
14.12
 21
14.12
 31
0.0
  0
LINE
  5
173
330
17
100
AcDbEntity
  8
A-COLUMN
100
AcDbLine
 10
14.12
 20
14.12
 30
0.0
 11
13.88
 21
14.12
 31
0.0
  0
LINE
  5
174
330
17
100
AcDbEntity
  8
A-COLUMN
100
AcDbLine
 10
13.88
 20
14.12
 30
0.0
 11
13.88
 21
13.88
 31
0.0
  0
LINE
  5
175
330
17
100
AcDbEntity
  8
A-COLUMN
100
AcDbLine
 10
15.88
 20
-0.12
 30
0.0
 11
16.12
 21
-0.12
 31
0.0
  0
LINE
  5
176
330
17
100
AcDbEntity
  8
A-COLUMN
100
AcDbLine
 10
16.12
 20
-0.12
 30
0.0
 11
16.12
 21
0.12
 31
0.0
  0
LINE
  5
177
330
17
100
AcDbEntity
  8
A-COLUMN
100
AcDbLine
 10
16.12
 20
0.12
 30
0.0
 11
15.88
 21
0.12
 31
0.0
  0
LINE
  5
178
330
17
100
AcDbEntity
  8
A-COLUMN
100
AcDbLine
 10
15.88
 20
0.12
 30
0.0
 11
15.88
 21
-0.12
 31
0.0
  0
LINE
  5
179
330
17
100
AcDbEntity
  8
A-COLUMN
100
AcDbLine
 10
15.88
 20
1.88
 30
0.0
 11
16.12
 21
1.88
 31
0.0
  0
LINE
  5
17A
330
17
100
AcDbEntity
  8
A-COLUMN
100
AcDbLine
 10
16.12
 20
1.88
 30
0.0
 11
16.12
 21
2.12
 31
0.0
  0
LINE
  5
17B
330
17
100
AcDbEntity
  8
A-COLUMN
100
AcDbLine
 10
16.12
 20
2.12
 30
0.0
 11
15.88
 21
2.12
 31
0.0
  0
LINE
  5
17C
330
17
100
AcDbEntity
  8
A-COLUMN
100
AcDbLine
 10
15.88
 20
2.12
 30
0.0
 11
15.88
 21
1.88
 31
0.0
  0
LINE
  5
17D
330
17
100
AcDbEntity
  8
A-COLUMN
100
AcDbLine
 10
15.88
 20
5.88
 30
0.0
 11
16.12
 21
5.88
 31
0.0
  0
LINE
  5
17E
330
17
100
AcDbEntity
  8
A-COLUMN
100
AcDbLine
 10
16.12
 20
5.88
 30
0.0
 11
16.12
 21
6.12
 31
0.0
  0
LINE
  5
17F
330
17
100
AcDbEntity
  8
A-COLUMN
100
AcDbLine
 10
16.12
 20
6.12
 30
0.0
 11
15.88
 21
6.12
 31
0.0
  0
LINE
  5
180
330
17
100
AcDbEntity
  8
A-COLUMN
100
AcDbLine
 10
15.88
 20
6.12
 30
0.0
 11
15.88
 21
5.88
 31
0.0
  0
LINE
  5
181
330
17
100
AcDbEntity
  8
A-COLUMN
100
AcDbLine
 10
15.88
 20
10.38
 30
0.0
 11
16.12
 21
10.38
 31
0.0
  0
LINE
  5
182
330
17
100
AcDbEntity
  8
A-COLUMN
100
AcDbLine
 10
16.12
 20
10.38
 30
0.0
 11
16.12
 21
10.62
 31
0.0
  0
LINE
  5
183
330
17
100
AcDbEntity
  8
A-COLUMN
100
AcDbLine
 10
16.12
 20
10.62
 30
0.0
 11
15.88
 21
10.62
 31
0.0
  0
LINE
  5
184
330
17
100
AcDbEntity
  8
A-COLUMN
100
AcDbLine
 10
15.88
 20
10.62
 30
0.0
 11
15.88
 21
10.38
 31
0.0
  0
LINE
  5
185
330
17
100
AcDbEntity
  8
A-COLUMN
100
AcDbLine
 10
15.88
 20
13.88
 30
0.0
 11
16.12
 21
13.88
 31
0.0
  0
LINE
  5
186
330
17
100
AcDbEntity
  8
A-COLUMN
100
AcDbLine
 10
16.12
 20
13.88
 30
0.0
 11
16.12
 21
14.12
 31
0.0
  0
LINE
  5
187
330
17
100
AcDbEntity
  8
A-COLUMN
100
AcDbLine
 10
16.12
 20
14.12
 30
0.0
 11
15.88
 21
14.12
 31
0.0
  0
LINE
  5
188
330
17
100
AcDbEntity
  8
A-COLUMN
100
AcDbLine
 10
15.88
 20
14.12
 30
0.0
 11
15.88
 21
13.88
 31
0.0
  0
TEXT
  5
189
330
17
100
AcDbEntity
  8
A-TEXT
100
AcDbText
 10
8.0
 20
-1.2
 30
0.0
 40
0.32
  1
GROUND FLOOR PLAN
  7
PJ_STANDARD
 72
1
 11
8.0
 21
-1.2
 31
0.0
100
AcDbText
 73
2
  0
TEXT
  5
18A
330
17
100
AcDbEntity
  8
A-TEXT
100
AcDbText
 10
8.0
 20
-1.6
 30
0.0
 40
0.2
  1
SCALE 1:100
  7
PJ_STANDARD
 72
1
 11
8.0
 21
-1.6
 31
0.0
100
AcDbText
 73
2
  0
LINE
  5
18B
330
17
100
AcDbEntity
  8
A-FURN
100
AcDbLine
 10
0.25
 20
1.4
 30
0.0
 11
1.75
 21
1.4
 31
0.0
  0
LINE
  5
18C
330
17
100
AcDbEntity
  8
A-FURN
100
AcDbLine
 10
1.75
 20
1.4
 30
0.0
 11
1.75
 21
4.6
 31
0.0
  0
LINE
  5
18D
330
17
100
AcDbEntity
  8
A-FURN
100
AcDbLine
 10
1.75
 20
4.6
 30
0.0
 11
0.25
 21
4.6
 31
0.0
  0
LINE
  5
18E
330
17
100
AcDbEntity
  8
A-FURN
100
AcDbLine
 10
0.25
 20
4.6
 30
0.0
 11
0.25
 21
1.4
 31
0.0
  0
ARC
  5
18F
330
17
100
AcDbEntity
  8
A-FURN
100
AcDbCircle
 10
1.0
 20
3.75
 30
0.0
 40
0.5
100
AcDbArc
 50
0.0
 51
180.0
  0
ARC
  5
190
330
17
100
AcDbEntity
  8
A-FURN
100
AcDbCircle
 10
1.0
 20
2.25
 30
0.0
 40
0.5
100
AcDbArc
 50
180.0
 51
360.0
  0
LINE
  5
191
330
17
100
AcDbEntity
  8
A-FURN
100
AcDbLine
 10
2.75
 20
1.4
 30
0.0
 11
4.25
 21
1.4
 31
0.0
  0
LINE
  5
192
330
17
100
AcDbEntity
  8
A-FURN
100
AcDbLine
 10
4.25
 20
1.4
 30
0.0
 11
4.25
 21
4.6
 31
0.0
  0
LINE
  5
193
330
17
100
AcDbEntity
  8
A-FURN
100
AcDbLine
 10
4.25
 20
4.6
 30
0.0
 11
2.75
 21
4.6
 31
0.0
  0
LINE
  5
194
330
17
100
AcDbEntity
  8
A-FURN
100
AcDbLine
 10
2.75
 20
4.6
 30
0.0
 11
2.75
 21
1.4
 31
0.0
  0
ARC
  5
195
330
17
100
AcDbEntity
  8
A-FURN
100
AcDbCircle
 10
3.5
 20
3.75
 30
0.0
 40
0.5
100
AcDbArc
 50
0.0
 51
180.0
  0
ARC
  5
196
330
17
100
AcDbEntity
  8
A-FURN
100
AcDbCircle
 10
3.5
 20
2.25
 30
0.0
 40
0.5
100
AcDbArc
 50
180.0
 51
360.0
  0
TEXT
  5
197
330
17
100
AcDbEntity
  8
A-TEXT
100
AcDbText
 10
1.0
 20
1.0
 30
0.0
 40
0.2
  1
Parking 1
  7
PJ_STANDARD
 72
1
 11
1.0
 21
1.0
 31
0.0
100
AcDbText
 73
2
  0
TEXT
  5
198
330
17
100
AcDbEntity
  8
A-TEXT
100
AcDbText
 10
3.5
 20
1.0
 30
0.0
 40
0.2
  1
Parking 2
  7
PJ_STANDARD
 72
1
 11
3.5
 21
1.0
 31
0.0
100
AcDbText
 73
2
  0
TEXT
  5
199
330
17
100
AcDbEntity
  8
A-TEXT
100
AcDbText
 10
10.0
 20
1.0
 30
0.0
 40
0.2
  1
Front Terrace / Porch
  7
PJ_STANDARD
 72
1
 11
10.0
 21
1.0
 31
0.0
100
AcDbText
 73
2
  0
LINE
  5
19A
330
17
100
AcDbEntity
  8
A-FURN
100
AcDbLine
 10
8.4
 20
2.5
 30
0.0
 11
11.5
 21
2.5
 31
0.0
  0
LINE
  5
19B
330
17
100
AcDbEntity
  8
A-FURN
100
AcDbLine
 10
11.5
 20
2.5
 30
0.0
 11
11.5
 21
5.5
 31
0.0
  0
LINE
  5
19C
330
17
100
AcDbEntity
  8
A-FURN
100
AcDbLine
 10
11.5
 20
5.5
 30
0.0
 11
8.4
 21
5.5
 31
0.0
  0
LINE
  5
19D
330
17
100
AcDbEntity
  8
A-FURN
100
AcDbLine
 10
8.4
 20
5.5
 30
0.0
 11
8.4
 21
2.5
 31
0.0
  0
TEXT
  5
19E
330
17
100
AcDbEntity
  8
A-FURN
100
AcDbText
 10
9.95
 20
4.0
 30
0.0
 40
0.18
  1
Living
  7
PJ_STANDARD
 72
1
 11
9.95
 21
4.0
 31
0.0
100
AcDbText
 73
2
  0
LINE
  5
19F
330
17
100
AcDbEntity
  8
A-FURN
100
AcDbLine
 10
8.3
 20
6.8
 30
0.0
 11
11.5
 21
6.8
 31
0.0
  0
LINE
  5
1A0
330
17
100
AcDbEntity
  8
A-FURN
100
AcDbLine
 10
11.5
 20
6.8
 30
0.0
 11
11.5
 21
8.3
 31
0.0
  0
LINE
  5
1A1
330
17
100
AcDbEntity
  8
A-FURN
100
AcDbLine
 10
11.5
 20
8.3
 30
0.0
 11
8.3
 21
8.3
 31
0.0
  0
LINE
  5
1A2
330
17
100
AcDbEntity
  8
A-FURN
100
AcDbLine
 10
8.3
 20
8.3
 30
0.0
 11
8.3
 21
6.8
 31
0.0
  0
TEXT
  5
1A3
330
17
100
AcDbEntity
  8
A-FURN
100
AcDbText
 10
9.9
 20
7.550000000000001
 30
0.0
 40
0.18
  1
Dining
  7
PJ_STANDARD
 72
1
 11
9.9
 21
7.550000000000001
 31
0.0
100
AcDbText
 73
2
  0
LINE
  5
1A4
330
17
100
AcDbEntity
  8
A-FURN
100
AcDbLine
 10
0.6
 20
6.7
 30
0.0
 11
4.5
 21
6.7
 31
0.0
  0
LINE
  5
1A5
330
17
100
AcDbEntity
  8
A-FURN
100
AcDbLine
 10
4.5
 20
6.7
 30
0.0
 11
4.5
 21
9.9
 31
0.0
  0
LINE
  5
1A6
330
17
100
AcDbEntity
  8
A-FURN
100
AcDbLine
 10
4.5
 20
9.9
 30
0.0
 11
0.6
 21
9.9
 31
0.0
  0
LINE
  5
1A7
330
17
100
AcDbEntity
  8
A-FURN
100
AcDbLine
 10
0.6
 20
9.9
 30
0.0
 11
0.6
 21
6.7
 31
0.0
  0
TEXT
  5
1A8
330
17
100
AcDbEntity
  8
A-FURN
100
AcDbText
 10
2.55
 20
8.3
 30
0.0
 40
0.18
  1
Kitchen
  7
PJ_STANDARD
 72
1
 11
2.55
 21
8.3
 31
0.0
100
AcDbText
 73
2
  0
TEXT
  5
1A9
330
17
100
AcDbEntity
  8
A-TEXT
100
AcDbText
 10
2.5
 20
12.8
 30
0.0
 40
0.18
  1
Washing / Laundry Area
  7
PJ_STANDARD
 72
1
 11
2.5
 21
12.8
 31
0.0
100
AcDbText
 73
2
  0
LINE
  5
1AA
330
17
100
AcDbEntity
  8
A-SANITARY
100
AcDbLine
 10
1.25
 20
11.82
 30
0.0
 11
1.75
 21
11.82
 31
0.0
  0
LINE
  5
1AB
330
17
100
AcDbEntity
  8
A-SANITARY
100
AcDbLine
 10
1.75
 20
11.82
 30
0.0
 11
1.75
 21
12.18
 31
0.0
  0
LINE
  5
1AC
330
17
100
AcDbEntity
  8
A-SANITARY
100
AcDbLine
 10
1.75
 20
12.18
 30
0.0
 11
1.25
 21
12.18
 31
0.0
  0
LINE
  5
1AD
330
17
100
AcDbEntity
  8
A-SANITARY
100
AcDbLine
 10
1.25
 20
12.18
 30
0.0
 11
1.25
 21
11.82
 31
0.0
  0
CIRCLE
  5
1AE
330
17
100
AcDbEntity
  8
A-SANITARY
100
AcDbCircle
 10
1.5
 20
12.0
 30
0.0
 40
0.07
  0
LINE
  5
1AF
330
17
100
AcDbEntity
  8
A-SANITARY
100
AcDbLine
 10
1.9500000000000002
 20
11.82
 30
0.0
 11
2.45
 21
11.82
 31
0.0
  0
LINE
  5
1B0
330
17
100
AcDbEntity
  8
A-SANITARY
100
AcDbLine
 10
2.45
 20
11.82
 30
0.0
 11
2.45
 21
12.18
 31
0.0
  0
LINE
  5
1B1
330
17
100
AcDbEntity
  8
A-SANITARY
100
AcDbLine
 10
2.45
 20
12.18
 30
0.0
 11
1.9500000000000002
 21
12.18
 31
0.0
  0
LINE
  5
1B2
330
17
100
AcDbEntity
  8
A-SANITARY
100
AcDbLine
 10
1.9500000000000002
 20
12.18
 30
0.0
 11
1.9500000000000002
 21
11.82
 31
0.0
  0
CIRCLE
  5
1B3
330
17
100
AcDbEntity
  8
A-SANITARY
100
AcDbCircle
 10
2.2
 20
12.0
 30
0.0
 40
0.07
  0
LINE
  5
1B4
330
17
100
AcDbEntity
  8
A-FURN
100
AcDbLine
 10
5.3
 20
10.9
 30
0.0
 11
7.7
 21
10.9
 31
0.0
  0
LINE
  5
1B5
330
17
100
AcDbEntity
  8
A-FURN
100
AcDbLine
 10
7.7
 20
10.9
 30
0.0
 11
7.7
 21
13.6
 31
0.0
  0
LINE
  5
1B6
330
17
100
AcDbEntity
  8
A-FURN
100
AcDbLine
 10
7.7
 20
13.6
 30
0.0
 11
5.3
 21
13.6
 31
0.0
  0
LINE
  5
1B7
330
17
100
AcDbEntity
  8
A-FURN
100
AcDbLine
 10
5.3
 20
13.6
 30
0.0
 11
5.3
 21
10.9
 31
0.0
  0
TEXT
  5
1B8
330
17
100
AcDbEntity
  8
A-FURN
100
AcDbText
 10
6.5
 20
12.25
 30
0.0
 40
0.18
  1
Storage Room
  7
PJ_STANDARD
 72
1
 11
6.5
 21
12.25
 31
0.0
100
AcDbText
 73
2
  0
LINE
  5
1B9
330
17
100
AcDbEntity
  8
A-STAIR
100
AcDbLine
 10
12.2
 20
2.2
 30
0.0
 11
13.8
 21
2.2
 31
0.0
  0
LINE
  5
1BA
330
17
100
AcDbEntity
  8
A-STAIR
100
AcDbLine
 10
13.8
 20
2.2
 30
0.0
 11
13.8
 21
5.8
 31
0.0
  0
LINE
  5
1BB
330
17
100
AcDbEntity
  8
A-STAIR
100
AcDbLine
 10
13.8
 20
5.8
 30
0.0
 11
12.2
 21
5.8
 31
0.0
  0
LINE
  5
1BC
330
17
100
AcDbEntity
  8
A-STAIR
100
AcDbLine
 10
12.2
 20
5.8
 30
0.0
 11
12.2
 21
2.2
 31
0.0
  0
LINE
  5
1BD
330
17
100
AcDbEntity
  8
A-STAIR
100
AcDbLine
 10
12.2
 20
2.6
 30
0.0
 11
13.8
 21
2.6
 31
0.0
  0
LINE
  5
1BE
330
17
100
AcDbEntity
  8
A-STAIR
100
AcDbLine
 10
12.2
 20
3.0
 30
0.0
 11
13.8
 21
3.0
 31
0.0
  0
LINE
  5
1BF
330
17
100
AcDbEntity
  8
A-STAIR
100
AcDbLine
 10
12.2
 20
3.4000000000000004
 30
0.0
 11
13.8
 21
3.4000000000000004
 31
0.0
  0
LINE
  5
1C0
330
17
100
AcDbEntity
  8
A-STAIR
100
AcDbLine
 10
12.2
 20
3.8
 30
0.0
 11
13.8
 21
3.8
 31
0.0
  0
LINE
  5
1C1
330
17
100
AcDbEntity
  8
A-STAIR
100
AcDbLine
 10
12.2
 20
4.2
 30
0.0
 11
13.8
 21
4.2
 31
0.0
  0
LINE
  5
1C2
330
17
100
AcDbEntity
  8
A-STAIR
100
AcDbLine
 10
12.2
 20
4.6
 30
0.0
 11
13.8
 21
4.6
 31
0.0
  0
LINE
  5
1C3
330
17
100
AcDbEntity
  8
A-STAIR
100
AcDbLine
 10
12.2
 20
5.0
 30
0.0
 11
13.8
 21
5.0
 31
0.0
  0
LINE
  5
1C4
330
17
100
AcDbEntity
  8
A-STAIR
100
AcDbLine
 10
12.2
 20
5.4
 30
0.0
 11
13.8
 21
5.4
 31
0.0
  0
LINE
  5
1C5
330
17
100
AcDbEntity
  8
A-STAIR
100
AcDbLine
 10
13.0
 20
2.45
 30
0.0
 11
13.0
 21
5.55
 31
0.0
  0
TEXT
  5
1C6
330
17
100
AcDbEntity
  8
A-STAIR
100
AcDbText
 10
13.25
 20
4.0
 30
0.0
 40
0.22
  1
UP
  7
PJ_STANDARD
 11
13.25
 21
4.0
 31
0.0
100
AcDbText
  0
TEXT
  5
1C7
330
17
100
AcDbEntity
  8
A-TEXT
100
AcDbText
 10
13.0
 20
6.25
 30
0.0
 40
0.2
  1
Stairs
  7
PJ_STANDARD
 72
1
 11
13.0
 21
6.25
 31
0.0
100
AcDbText
 73
2
  0
TEXT
  5
1C8
330
17
100
AcDbEntity
  8
A-TEXT
100
AcDbText
 10
14.7
 20
7.0
 30
0.0
 40
0.2
  1
Bathroom 1
  7
PJ_STANDARD
 72
1
 11
14.7
 21
7.0
 31
0.0
100
AcDbText
 73
2
  0
CIRCLE
  5
1C9
330
17
100
AcDbEntity
  8
A-SANITARY
100
AcDbCircle
 10
15.0
 20
7.9
 30
0.0
 40
0.18
  0
LINE
  5
1CA
330
17
100
AcDbEntity
  8
A-SANITARY
100
AcDbLine
 10
14.75
 20
7.3500000000000005
 30
0.0
 11
15.25
 21
7.3500000000000005
 31
0.0
  0
LINE
  5
1CB
330
17
100
AcDbEntity
  8
A-SANITARY
100
AcDbLine
 10
15.25
 20
7.3500000000000005
 30
0.0
 11
15.25
 21
7.7
 31
0.0
  0
LINE
  5
1CC
330
17
100
AcDbEntity
  8
A-SANITARY
100
AcDbLine
 10
15.25
 20
7.7
 30
0.0
 11
14.75
 21
7.7
 31
0.0
  0
LINE
  5
1CD
330
17
100
AcDbEntity
  8
A-SANITARY
100
AcDbLine
 10
14.75
 20
7.7
 30
0.0
 11
14.75
 21
7.3500000000000005
 31
0.0
  0
LINE
  5
1CE
330
17
100
AcDbEntity
  8
A-SANITARY
100
AcDbLine
 10
14.15
 20
7.0200000000000005
 30
0.0
 11
14.65
 21
7.0200000000000005
 31
0.0
  0
LINE
  5
1CF
330
17
100
AcDbEntity
  8
A-SANITARY
100
AcDbLine
 10
14.65
 20
7.0200000000000005
 30
0.0
 11
14.65
 21
7.38
 31
0.0
  0
LINE
  5
1D0
330
17
100
AcDbEntity
  8
A-SANITARY
100
AcDbLine
 10
14.65
 20
7.38
 30
0.0
 11
14.15
 21
7.38
 31
0.0
  0
LINE
  5
1D1
330
17
100
AcDbEntity
  8
A-SANITARY
100
AcDbLine
 10
14.15
 20
7.38
 30
0.0
 11
14.15
 21
7.0200000000000005
 31
0.0
  0
CIRCLE
  5
1D2
330
17
100
AcDbEntity
  8
A-SANITARY
100
AcDbCircle
 10
14.4
 20
7.2
 30
0.0
 40
0.07
  0
LINE
  5
1D3
330
17
100
AcDbEntity
  8
A-DOOR
100
AcDbLine
 10
9.2
 20
2.0
 30
0.0
 11
10.1
 21
2.0
 31
0.0
  0
LINE
  5
1D4
330
17
100
AcDbEntity
  8
A-DOOR
100
AcDbLine
 10
9.2
 20
2.0
 30
0.0
 11
9.2
 21
2.9
 31
0.0
  0
ARC
  5
1D5
330
17
100
AcDbEntity
  8
A-DOOR
100
AcDbCircle
 10
9.2
 20
2.0
 30
0.0
 40
0.9
100
AcDbArc
 50
0.0
 51
90.0
  0
LINE
  5
1D6
330
17
100
AcDbEntity
  8
A-DOOR
100
AcDbLine
 10
12.0
 20
6.2
 30
0.0
 11
12.0
 21
7.0
 31
0.0
  0
LINE
  5
1D7
330
17
100
AcDbEntity
  8
A-DOOR
100
AcDbLine
 10
12.0
 20
6.2
 30
0.0
 11
12.8
 21
6.2
 31
0.0
  0
ARC
  5
1D8
330
17
100
AcDbEntity
  8
A-DOOR
100
AcDbCircle
 10
12.0
 20
6.2
 30
0.0
 40
0.8
100
AcDbArc
 50
0.0
 51
90.0
  0
LINE
  5
1D9
330
17
100
AcDbEntity
  8
A-DOOR
100
AcDbLine
 10
5.0
 20
10.7
 30
0.0
 11
5.0
 21
11.5
 31
0.0
  0
LINE
  5
1DA
330
17
100
AcDbEntity
  8
A-DOOR
100
AcDbLine
 10
5.0
 20
10.7
 30
0.0
 11
5.8
 21
10.7
 31
0.0
  0
ARC
  5
1DB
330
17
100
AcDbEntity
  8
A-DOOR
100
AcDbCircle
 10
5.0
 20
10.7
 30
0.0
 40
0.8
100
AcDbArc
 50
0.0
 51
90.0
  0
LINE
  5
1DC
330
17
100
AcDbEntity
  8
A-WINDOW
100
AcDbLine
 10
8.5
 20
0.0
 30
0.0
 11
11.5
 21
0.0
 31
0.0
  0
LINE
  5
1DD
330
17
100
AcDbEntity
  8
A-WINDOW
100
AcDbLine
 10
8.5
 20
0.08
 30
0.0
 11
11.5
 21
0.08
 31
0.0
  0
LINE
  5
1DE
330
17
100
AcDbEntity
  8
A-WINDOW
100
AcDbLine
 10
8.5
 20
-0.08
 30
0.0
 11
11.5
 21
-0.08
 31
0.0
  0
LINE
  5
1DF
330
17
100
AcDbEntity
  8
A-WINDOW
100
AcDbLine
 10
0.0
 20
8.3
 30
0.0
 11
0.0
 21
9.5
 31
0.0
  0
LINE
  5
1E0
330
17
100
AcDbEntity
  8
A-WINDOW
100
AcDbLine
 10
0.08
 20
8.3
 30
0.0
 11
0.08
 21
9.5
 31
0.0
  0
LINE
  5
1E1
330
17
100
AcDbEntity
  8
A-WINDOW
100
AcDbLine
 10
-0.08
 20
8.3
 30
0.0
 11
-0.08
 21
9.5
 31
0.0
  0
LINE
  5
1E2
330
17
100
AcDbEntity
  8
A-WINDOW
100
AcDbLine
 10
16.0
 20
7.0
 30
0.0
 11
16.0
 21
8.2
 31
0.0
  0
LINE
  5
1E3
330
17
100
AcDbEntity
  8
A-WINDOW
100
AcDbLine
 10
16.08
 20
7.0
 30
0.0
 11
16.08
 21
8.2
 31
0.0
  0
LINE
  5
1E4
330
17
100
AcDbEntity
  8
A-WINDOW
100
AcDbLine
 10
15.92
 20
7.0
 30
0.0
 11
15.92
 21
8.2
 31
0.0
  0
LINE
  5
1E5
330
17
100
AcDbEntity
  8
A-GRID
  6
CENTER2
100
AcDbLine
 10
21.0
 20
-0.75
 30
0.0
 11
21.0
 21
14.75
 31
0.0
  0
CIRCLE
  5
1E6
330
17
100
AcDbEntity
  8
A-GRID
100
AcDbCircle
 10
21.0
 20
15.25
 30
0.0
 40
0.25
  0
TEXT
  5
1E7
330
17
100
AcDbEntity
  8
A-GRID
100
AcDbText
 10
21.0
 20
15.25
 30
0.0
 40
0.26
  1
A
  7
PJ_STANDARD
 72
1
 11
21.0
 21
15.25
 31
0.0
100
AcDbText
 73
2
  0
LINE
  5
1E8
330
17
100
AcDbEntity
  8
A-GRID
  6
CENTER2
100
AcDbLine
 10
23.0
 20
-0.75
 30
0.0
 11
23.0
 21
14.75
 31
0.0
  0
CIRCLE
  5
1E9
330
17
100
AcDbEntity
  8
A-GRID
100
AcDbCircle
 10
23.0
 20
15.25
 30
0.0
 40
0.25
  0
TEXT
  5
1EA
330
17
100
AcDbEntity
  8
A-GRID
100
AcDbText
 10
23.0
 20
15.25
 30
0.0
 40
0.26
  1
B
  7
PJ_STANDARD
 72
1
 11
23.0
 21
15.25
 31
0.0
100
AcDbText
 73
2
  0
LINE
  5
1EB
330
17
100
AcDbEntity
  8
A-GRID
  6
CENTER2
100
AcDbLine
 10
26.0
 20
-0.75
 30
0.0
 11
26.0
 21
14.75
 31
0.0
  0
CIRCLE
  5
1EC
330
17
100
AcDbEntity
  8
A-GRID
100
AcDbCircle
 10
26.0
 20
15.25
 30
0.0
 40
0.25
  0
TEXT
  5
1ED
330
17
100
AcDbEntity
  8
A-GRID
100
AcDbText
 10
26.0
 20
15.25
 30
0.0
 40
0.26
  1
C
  7
PJ_STANDARD
 72
1
 11
26.0
 21
15.25
 31
0.0
100
AcDbText
 73
2
  0
LINE
  5
1EE
330
17
100
AcDbEntity
  8
A-GRID
  6
CENTER2
100
AcDbLine
 10
29.0
 20
-0.75
 30
0.0
 11
29.0
 21
14.75
 31
0.0
  0
CIRCLE
  5
1EF
330
17
100
AcDbEntity
  8
A-GRID
100
AcDbCircle
 10
29.0
 20
15.25
 30
0.0
 40
0.25
  0
TEXT
  5
1F0
330
17
100
AcDbEntity
  8
A-GRID
100
AcDbText
 10
29.0
 20
15.25
 30
0.0
 40
0.26
  1
D
  7
PJ_STANDARD
 72
1
 11
29.0
 21
15.25
 31
0.0
100
AcDbText
 73
2
  0
LINE
  5
1F1
330
17
100
AcDbEntity
  8
A-GRID
  6
CENTER2
100
AcDbLine
 10
33.0
 20
-0.75
 30
0.0
 11
33.0
 21
14.75
 31
0.0
  0
CIRCLE
  5
1F2
330
17
100
AcDbEntity
  8
A-GRID
100
AcDbCircle
 10
33.0
 20
15.25
 30
0.0
 40
0.25
  0
TEXT
  5
1F3
330
17
100
AcDbEntity
  8
A-GRID
100
AcDbText
 10
33.0
 20
15.25
 30
0.0
 40
0.26
  1
E
  7
PJ_STANDARD
 72
1
 11
33.0
 21
15.25
 31
0.0
100
AcDbText
 73
2
  0
LINE
  5
1F4
330
17
100
AcDbEntity
  8
A-GRID
  6
CENTER2
100
AcDbLine
 10
35.0
 20
-0.75
 30
0.0
 11
35.0
 21
14.75
 31
0.0
  0
CIRCLE
  5
1F5
330
17
100
AcDbEntity
  8
A-GRID
100
AcDbCircle
 10
35.0
 20
15.25
 30
0.0
 40
0.25
  0
TEXT
  5
1F6
330
17
100
AcDbEntity
  8
A-GRID
100
AcDbText
 10
35.0
 20
15.25
 30
0.0
 40
0.26
  1
F
  7
PJ_STANDARD
 72
1
 11
35.0
 21
15.25
 31
0.0
100
AcDbText
 73
2
  0
LINE
  5
1F7
330
17
100
AcDbEntity
  8
A-GRID
  6
CENTER2
100
AcDbLine
 10
37.0
 20
-0.75
 30
0.0
 11
37.0
 21
14.75
 31
0.0
  0
CIRCLE
  5
1F8
330
17
100
AcDbEntity
  8
A-GRID
100
AcDbCircle
 10
37.0
 20
15.25
 30
0.0
 40
0.25
  0
TEXT
  5
1F9
330
17
100
AcDbEntity
  8
A-GRID
100
AcDbText
 10
37.0
 20
15.25
 30
0.0
 40
0.26
  1
G
  7
PJ_STANDARD
 72
1
 11
37.0
 21
15.25
 31
0.0
100
AcDbText
 73
2
  0
LINE
  5
1FA
330
17
100
AcDbEntity
  8
A-GRID
  6
CENTER2
100
AcDbLine
 10
20.25
 20
0.0
 30
0.0
 11
37.75
 21
0.0
 31
0.0
  0
CIRCLE
  5
1FB
330
17
100
AcDbEntity
  8
A-GRID
100
AcDbCircle
 10
19.82
 20
0.0
 30
0.0
 40
0.25
  0
TEXT
  5
1FC
330
17
100
AcDbEntity
  8
A-GRID
100
AcDbText
 10
19.82
 20
0.0
 30
0.0
 40
0.26
  1
1
  7
PJ_STANDARD
 72
1
 11
19.82
 21
0.0
 31
0.0
100
AcDbText
 73
2
  0
LINE
  5
1FD
330
17
100
AcDbEntity
  8
A-GRID
  6
CENTER2
100
AcDbLine
 10
20.25
 20
2.0
 30
0.0
 11
37.75
 21
2.0
 31
0.0
  0
CIRCLE
  5
1FE
330
17
100
AcDbEntity
  8
A-GRID
100
AcDbCircle
 10
19.82
 20
2.0
 30
0.0
 40
0.25
  0
TEXT
  5
1FF
330
17
100
AcDbEntity
  8
A-GRID
100
AcDbText
 10
19.82
 20
2.0
 30
0.0
 40
0.26
  1
2
  7
PJ_STANDARD
 72
1
 11
19.82
 21
2.0
 31
0.0
100
AcDbText
 73
2
  0
LINE
  5
200
330
17
100
AcDbEntity
  8
A-GRID
  6
CENTER2
100
AcDbLine
 10
20.25
 20
6.0
 30
0.0
 11
37.75
 21
6.0
 31
0.0
  0
CIRCLE
  5
201
330
17
100
AcDbEntity
  8
A-GRID
100
AcDbCircle
 10
19.82
 20
6.0
 30
0.0
 40
0.25
  0
TEXT
  5
202
330
17
100
AcDbEntity
  8
A-GRID
100
AcDbText
 10
19.82
 20
6.0
 30
0.0
 40
0.26
  1
3
  7
PJ_STANDARD
 72
1
 11
19.82
 21
6.0
 31
0.0
100
AcDbText
 73
2
  0
LINE
  5
203
330
17
100
AcDbEntity
  8
A-GRID
  6
CENTER2
100
AcDbLine
 10
20.25
 20
10.5
 30
0.0
 11
37.75
 21
10.5
 31
0.0
  0
CIRCLE
  5
204
330
17
100
AcDbEntity
  8
A-GRID
100
AcDbCircle
 10
19.82
 20
10.5
 30
0.0
 40
0.25
  0
TEXT
  5
205
330
17
100
AcDbEntity
  8
A-GRID
100
AcDbText
 10
19.82
 20
10.5
 30
0.0
 40
0.26
  1
4
  7
PJ_STANDARD
 72
1
 11
19.82
 21
10.5
 31
0.0
100
AcDbText
 73
2
  0
LINE
  5
206
330
17
100
AcDbEntity
  8
A-GRID
  6
CENTER2
100
AcDbLine
 10
20.25
 20
14.0
 30
0.0
 11
37.75
 21
14.0
 31
0.0
  0
CIRCLE
  5
207
330
17
100
AcDbEntity
  8
A-GRID
100
AcDbCircle
 10
19.82
 20
14.0
 30
0.0
 40
0.25
  0
TEXT
  5
208
330
17
100
AcDbEntity
  8
A-GRID
100
AcDbText
 10
19.82
 20
14.0
 30
0.0
 40
0.26
  1
5
  7
PJ_STANDARD
 72
1
 11
19.82
 21
14.0
 31
0.0
100
AcDbText
 73
2
  0
LINE
  5
209
330
17
100
AcDbEntity
  8
A-DIMS
100
AcDbLine
 10
21.0
 20
14.55
 30
0.0
 11
23.0
 21
14.55
 31
0.0
  0
LINE
  5
20A
330
17
100
AcDbEntity
  8
A-DIMS
100
AcDbLine
 10
21.0
 20
14.42
 30
0.0
 11
21.0
 21
14.680000000000001
 31
0.0
  0
LINE
  5
20B
330
17
100
AcDbEntity
  8
A-DIMS
100
AcDbLine
 10
23.0
 20
14.42
 30
0.0
 11
23.0
 21
14.680000000000001
 31
0.0
  0
TEXT
  5
20C
330
17
100
AcDbEntity
  8
A-DIMS
100
AcDbText
 10
22.0
 20
14.71
 30
0.0
 40
0.18
  1
2.00
  7
PJ_STANDARD
 72
1
 11
22.0
 21
14.71
 31
0.0
100
AcDbText
 73
2
  0
LINE
  5
20D
330
17
100
AcDbEntity
  8
A-DIMS
100
AcDbLine
 10
23.0
 20
14.55
 30
0.0
 11
26.0
 21
14.55
 31
0.0
  0
LINE
  5
20E
330
17
100
AcDbEntity
  8
A-DIMS
100
AcDbLine
 10
23.0
 20
14.42
 30
0.0
 11
23.0
 21
14.680000000000001
 31
0.0
  0
LINE
  5
20F
330
17
100
AcDbEntity
  8
A-DIMS
100
AcDbLine
 10
26.0
 20
14.42
 30
0.0
 11
26.0
 21
14.680000000000001
 31
0.0
  0
TEXT
  5
210
330
17
100
AcDbEntity
  8
A-DIMS
100
AcDbText
 10
24.5
 20
14.71
 30
0.0
 40
0.18
  1
3.00
  7
PJ_STANDARD
 72
1
 11
24.5
 21
14.71
 31
0.0
100
AcDbText
 73
2
  0
LINE
  5
211
330
17
100
AcDbEntity
  8
A-DIMS
100
AcDbLine
 10
26.0
 20
14.55
 30
0.0
 11
29.0
 21
14.55
 31
0.0
  0
LINE
  5
212
330
17
100
AcDbEntity
  8
A-DIMS
100
AcDbLine
 10
26.0
 20
14.42
 30
0.0
 11
26.0
 21
14.680000000000001
 31
0.0
  0
LINE
  5
213
330
17
100
AcDbEntity
  8
A-DIMS
100
AcDbLine
 10
29.0
 20
14.42
 30
0.0
 11
29.0
 21
14.680000000000001
 31
0.0
  0
TEXT
  5
214
330
17
100
AcDbEntity
  8
A-DIMS
100
AcDbText
 10
27.5
 20
14.71
 30
0.0
 40
0.18
  1
3.00
  7
PJ_STANDARD
 72
1
 11
27.5
 21
14.71
 31
0.0
100
AcDbText
 73
2
  0
LINE
  5
215
330
17
100
AcDbEntity
  8
A-DIMS
100
AcDbLine
 10
29.0
 20
14.55
 30
0.0
 11
33.0
 21
14.55
 31
0.0
  0
LINE
  5
216
330
17
100
AcDbEntity
  8
A-DIMS
100
AcDbLine
 10
29.0
 20
14.42
 30
0.0
 11
29.0
 21
14.680000000000001
 31
0.0
  0
LINE
  5
217
330
17
100
AcDbEntity
  8
A-DIMS
100
AcDbLine
 10
33.0
 20
14.42
 30
0.0
 11
33.0
 21
14.680000000000001
 31
0.0
  0
TEXT
  5
218
330
17
100
AcDbEntity
  8
A-DIMS
100
AcDbText
 10
31.0
 20
14.71
 30
0.0
 40
0.18
  1
4.00
  7
PJ_STANDARD
 72
1
 11
31.0
 21
14.71
 31
0.0
100
AcDbText
 73
2
  0
LINE
  5
219
330
17
100
AcDbEntity
  8
A-DIMS
100
AcDbLine
 10
33.0
 20
14.55
 30
0.0
 11
35.0
 21
14.55
 31
0.0
  0
LINE
  5
21A
330
17
100
AcDbEntity
  8
A-DIMS
100
AcDbLine
 10
33.0
 20
14.42
 30
0.0
 11
33.0
 21
14.680000000000001
 31
0.0
  0
LINE
  5
21B
330
17
100
AcDbEntity
  8
A-DIMS
100
AcDbLine
 10
35.0
 20
14.42
 30
0.0
 11
35.0
 21
14.680000000000001
 31
0.0
  0
TEXT
  5
21C
330
17
100
AcDbEntity
  8
A-DIMS
100
AcDbText
 10
34.0
 20
14.71
 30
0.0
 40
0.18
  1
2.00
  7
PJ_STANDARD
 72
1
 11
34.0
 21
14.71
 31
0.0
100
AcDbText
 73
2
  0
LINE
  5
21D
330
17
100
AcDbEntity
  8
A-DIMS
100
AcDbLine
 10
35.0
 20
14.55
 30
0.0
 11
37.0
 21
14.55
 31
0.0
  0
LINE
  5
21E
330
17
100
AcDbEntity
  8
A-DIMS
100
AcDbLine
 10
35.0
 20
14.42
 30
0.0
 11
35.0
 21
14.680000000000001
 31
0.0
  0
LINE
  5
21F
330
17
100
AcDbEntity
  8
A-DIMS
100
AcDbLine
 10
37.0
 20
14.42
 30
0.0
 11
37.0
 21
14.680000000000001
 31
0.0
  0
TEXT
  5
220
330
17
100
AcDbEntity
  8
A-DIMS
100
AcDbText
 10
36.0
 20
14.71
 30
0.0
 40
0.18
  1
2.00
  7
PJ_STANDARD
 72
1
 11
36.0
 21
14.71
 31
0.0
100
AcDbText
 73
2
  0
LINE
  5
221
330
17
100
AcDbEntity
  8
A-DIMS
100
AcDbLine
 10
21.0
 20
14.95
 30
0.0
 11
37.0
 21
14.95
 31
0.0
  0
LINE
  5
222
330
17
100
AcDbEntity
  8
A-DIMS
100
AcDbLine
 10
21.0
 20
14.819999999999999
 30
0.0
 11
21.0
 21
15.08
 31
0.0
  0
LINE
  5
223
330
17
100
AcDbEntity
  8
A-DIMS
100
AcDbLine
 10
37.0
 20
14.819999999999999
 30
0.0
 11
37.0
 21
15.08
 31
0.0
  0
TEXT
  5
224
330
17
100
AcDbEntity
  8
A-DIMS
100
AcDbText
 10
29.0
 20
15.11
 30
0.0
 40
0.18
  1
16.00
  7
PJ_STANDARD
 72
1
 11
29.0
 21
15.11
 31
0.0
100
AcDbText
 73
2
  0
LINE
  5
225
330
17
100
AcDbEntity
  8
A-DIMS
100
AcDbLine
 10
20.48
 20
0.0
 30
0.0
 11
20.48
 21
2.0
 31
0.0
  0
LINE
  5
226
330
17
100
AcDbEntity
  8
A-DIMS
100
AcDbLine
 10
20.35
 20
0.0
 30
0.0
 11
20.61
 21
0.0
 31
0.0
  0
LINE
  5
227
330
17
100
AcDbEntity
  8
A-DIMS
100
AcDbLine
 10
20.35
 20
2.0
 30
0.0
 11
20.61
 21
2.0
 31
0.0
  0
TEXT
  5
228
330
17
100
AcDbEntity
  8
A-DIMS
100
AcDbText
 10
20.23
 20
1.0
 30
0.0
 40
0.18
  1
2.00
 50
90.0
  7
PJ_STANDARD
 72
1
 11
20.23
 21
1.0
 31
0.0
100
AcDbText
 73
2
  0
LINE
  5
229
330
17
100
AcDbEntity
  8
A-DIMS
100
AcDbLine
 10
20.48
 20
2.0
 30
0.0
 11
20.48
 21
6.0
 31
0.0
  0
LINE
  5
22A
330
17
100
AcDbEntity
  8
A-DIMS
100
AcDbLine
 10
20.35
 20
2.0
 30
0.0
 11
20.61
 21
2.0
 31
0.0
  0
LINE
  5
22B
330
17
100
AcDbEntity
  8
A-DIMS
100
AcDbLine
 10
20.35
 20
6.0
 30
0.0
 11
20.61
 21
6.0
 31
0.0
  0
TEXT
  5
22C
330
17
100
AcDbEntity
  8
A-DIMS
100
AcDbText
 10
20.23
 20
4.0
 30
0.0
 40
0.18
  1
4.00
 50
90.0
  7
PJ_STANDARD
 72
1
 11
20.23
 21
4.0
 31
0.0
100
AcDbText
 73
2
  0
LINE
  5
22D
330
17
100
AcDbEntity
  8
A-DIMS
100
AcDbLine
 10
20.48
 20
6.0
 30
0.0
 11
20.48
 21
10.5
 31
0.0
  0
LINE
  5
22E
330
17
100
AcDbEntity
  8
A-DIMS
100
AcDbLine
 10
20.35
 20
6.0
 30
0.0
 11
20.61
 21
6.0
 31
0.0
  0
LINE
  5
22F
330
17
100
AcDbEntity
  8
A-DIMS
100
AcDbLine
 10
20.35
 20
10.5
 30
0.0
 11
20.61
 21
10.5
 31
0.0
  0
TEXT
  5
230
330
17
100
AcDbEntity
  8
A-DIMS
100
AcDbText
 10
20.23
 20
8.25
 30
0.0
 40
0.18
  1
4.50
 50
90.0
  7
PJ_STANDARD
 72
1
 11
20.23
 21
8.25
 31
0.0
100
AcDbText
 73
2
  0
LINE
  5
231
330
17
100
AcDbEntity
  8
A-DIMS
100
AcDbLine
 10
20.48
 20
10.5
 30
0.0
 11
20.48
 21
14.0
 31
0.0
  0
LINE
  5
232
330
17
100
AcDbEntity
  8
A-DIMS
100
AcDbLine
 10
20.35
 20
10.5
 30
0.0
 11
20.61
 21
10.5
 31
0.0
  0
LINE
  5
233
330
17
100
AcDbEntity
  8
A-DIMS
100
AcDbLine
 10
20.35
 20
14.0
 30
0.0
 11
20.61
 21
14.0
 31
0.0
  0
TEXT
  5
234
330
17
100
AcDbEntity
  8
A-DIMS
100
AcDbText
 10
20.23
 20
12.25
 30
0.0
 40
0.18
  1
3.50
 50
90.0
  7
PJ_STANDARD
 72
1
 11
20.23
 21
12.25
 31
0.0
100
AcDbText
 73
2
  0
LINE
  5
235
330
17
100
AcDbEntity
  8
A-DIMS
100
AcDbLine
 10
20.1
 20
0.0
 30
0.0
 11
20.1
 21
14.0
 31
0.0
  0
LINE
  5
236
330
17
100
AcDbEntity
  8
A-DIMS
100
AcDbLine
 10
19.970000000000002
 20
0.0
 30
0.0
 11
20.23
 21
0.0
 31
0.0
  0
LINE
  5
237
330
17
100
AcDbEntity
  8
A-DIMS
100
AcDbLine
 10
19.970000000000002
 20
14.0
 30
0.0
 11
20.23
 21
14.0
 31
0.0
  0
TEXT
  5
238
330
17
100
AcDbEntity
  8
A-DIMS
100
AcDbText
 10
19.85
 20
7.0
 30
0.0
 40
0.18
  1
14.00
 50
90.0
  7
PJ_STANDARD
 72
1
 11
19.85
 21
7.0
 31
0.0
100
AcDbText
 73
2
  0
LINE
  5
239
330
17
100
AcDbEntity
  8
A-WALL
100
AcDbLine
 10
21.0
 20
0.0
 30
0.0
 11
37.0
 21
0.0
 31
0.0
  0
LINE
  5
23A
330
17
100
AcDbEntity
  8
A-WALL
100
AcDbLine
 10
37.0
 20
0.0
 30
0.0
 11
37.0
 21
14.0
 31
0.0
  0
LINE
  5
23B
330
17
100
AcDbEntity
  8
A-WALL
100
AcDbLine
 10
37.0
 20
14.0
 30
0.0
 11
21.0
 21
14.0
 31
0.0
  0
LINE
  5
23C
330
17
100
AcDbEntity
  8
A-WALL
100
AcDbLine
 10
21.0
 20
14.0
 30
0.0
 11
21.0
 21
0.0
 31
0.0
  0
LINE
  5
23D
330
17
100
AcDbEntity
  8
A-ROOF
  6
DASHED2
100
AcDbLine
 10
20.45
 20
-0.55
 30
0.0
 11
37.55
 21
-0.55
 31
0.0
  0
LINE
  5
23E
330
17
100
AcDbEntity
  8
A-ROOF
  6
DASHED2
100
AcDbLine
 10
37.55
 20
-0.55
 30
0.0
 11
37.55
 21
14.55
 31
0.0
  0
LINE
  5
23F
330
17
100
AcDbEntity
  8
A-ROOF
  6
DASHED2
100
AcDbLine
 10
37.55
 20
14.55
 30
0.0
 11
20.45
 21
14.55
 31
0.0
  0
LINE
  5
240
330
17
100
AcDbEntity
  8
A-ROOF
  6
DASHED2
100
AcDbLine
 10
20.45
 20
14.55
 30
0.0
 11
20.45
 21
-0.55
 31
0.0
  0
LINE
  5
241
330
17
100
AcDbEntity
  8
A-WALL
100
AcDbLine
 10
21.0
 20
1.925
 30
0.0
 11
37.0
 21
1.925
 31
0.0
  0
LINE
  5
242
330
17
100
AcDbEntity
  8
A-WALL
100
AcDbLine
 10
37.0
 20
1.925
 30
0.0
 11
37.0
 21
2.075
 31
0.0
  0
LINE
  5
243
330
17
100
AcDbEntity
  8
A-WALL
100
AcDbLine
 10
37.0
 20
2.075
 30
0.0
 11
21.0
 21
2.075
 31
0.0
  0
LINE
  5
244
330
17
100
AcDbEntity
  8
A-WALL
100
AcDbLine
 10
21.0
 20
2.075
 30
0.0
 11
21.0
 21
1.925
 31
0.0
  0
LINE
  5
245
330
17
100
AcDbEntity
  8
A-WALL
100
AcDbLine
 10
21.0
 20
5.925
 30
0.0
 11
37.0
 21
5.925
 31
0.0
  0
LINE
  5
246
330
17
100
AcDbEntity
  8
A-WALL
100
AcDbLine
 10
37.0
 20
5.925
 30
0.0
 11
37.0
 21
6.075
 31
0.0
  0
LINE
  5
247
330
17
100
AcDbEntity
  8
A-WALL
100
AcDbLine
 10
37.0
 20
6.075
 30
0.0
 11
21.0
 21
6.075
 31
0.0
  0
LINE
  5
248
330
17
100
AcDbEntity
  8
A-WALL
100
AcDbLine
 10
21.0
 20
6.075
 30
0.0
 11
21.0
 21
5.925
 31
0.0
  0
LINE
  5
249
330
17
100
AcDbEntity
  8
A-WALL
100
AcDbLine
 10
21.0
 20
10.425
 30
0.0
 11
37.0
 21
10.425
 31
0.0
  0
LINE
  5
24A
330
17
100
AcDbEntity
  8
A-WALL
100
AcDbLine
 10
37.0
 20
10.425
 30
0.0
 11
37.0
 21
10.575
 31
0.0
  0
LINE
  5
24B
330
17
100
AcDbEntity
  8
A-WALL
100
AcDbLine
 10
37.0
 20
10.575
 30
0.0
 11
21.0
 21
10.575
 31
0.0
  0
LINE
  5
24C
330
17
100
AcDbEntity
  8
A-WALL
100
AcDbLine
 10
21.0
 20
10.575
 30
0.0
 11
21.0
 21
10.425
 31
0.0
  0
LINE
  5
24D
330
17
100
AcDbEntity
  8
A-WALL
100
AcDbLine
 10
25.925
 20
0.0
 30
0.0
 11
26.075
 21
0.0
 31
0.0
  0
LINE
  5
24E
330
17
100
AcDbEntity
  8
A-WALL
100
AcDbLine
 10
26.075
 20
0.0
 30
0.0
 11
26.075
 21
14.0
 31
0.0
  0
LINE
  5
24F
330
17
100
AcDbEntity
  8
A-WALL
100
AcDbLine
 10
26.075
 20
14.0
 30
0.0
 11
25.925
 21
14.0
 31
0.0
  0
LINE
  5
250
330
17
100
AcDbEntity
  8
A-WALL
100
AcDbLine
 10
25.925
 20
14.0
 30
0.0
 11
25.925
 21
0.0
 31
0.0
  0
LINE
  5
251
330
17
100
AcDbEntity
  8
A-WALL
100
AcDbLine
 10
28.925
 20
0.0
 30
0.0
 11
29.075
 21
0.0
 31
0.0
  0
LINE
  5
252
330
17
100
AcDbEntity
  8
A-WALL
100
AcDbLine
 10
29.075
 20
0.0
 30
0.0
 11
29.075
 21
14.0
 31
0.0
  0
LINE
  5
253
330
17
100
AcDbEntity
  8
A-WALL
100
AcDbLine
 10
29.075
 20
14.0
 30
0.0
 11
28.925
 21
14.0
 31
0.0
  0
LINE
  5
254
330
17
100
AcDbEntity
  8
A-WALL
100
AcDbLine
 10
28.925
 20
14.0
 30
0.0
 11
28.925
 21
0.0
 31
0.0
  0
LINE
  5
255
330
17
100
AcDbEntity
  8
A-WALL
100
AcDbLine
 10
32.925
 20
0.0
 30
0.0
 11
33.075
 21
0.0
 31
0.0
  0
LINE
  5
256
330
17
100
AcDbEntity
  8
A-WALL
100
AcDbLine
 10
33.075
 20
0.0
 30
0.0
 11
33.075
 21
14.0
 31
0.0
  0
LINE
  5
257
330
17
100
AcDbEntity
  8
A-WALL
100
AcDbLine
 10
33.075
 20
14.0
 30
0.0
 11
32.925
 21
14.0
 31
0.0
  0
LINE
  5
258
330
17
100
AcDbEntity
  8
A-WALL
100
AcDbLine
 10
32.925
 20
14.0
 30
0.0
 11
32.925
 21
0.0
 31
0.0
  0
LINE
  5
259
330
17
100
AcDbEntity
  8
A-WALL
100
AcDbLine
 10
22.925
 20
6.0
 30
0.0
 11
23.075
 21
6.0
 31
0.0
  0
LINE
  5
25A
330
17
100
AcDbEntity
  8
A-WALL
100
AcDbLine
 10
23.075
 20
6.0
 30
0.0
 11
23.075
 21
14.0
 31
0.0
  0
LINE
  5
25B
330
17
100
AcDbEntity
  8
A-WALL
100
AcDbLine
 10
23.075
 20
14.0
 30
0.0
 11
22.925
 21
14.0
 31
0.0
  0
LINE
  5
25C
330
17
100
AcDbEntity
  8
A-WALL
100
AcDbLine
 10
22.925
 20
14.0
 30
0.0
 11
22.925
 21
6.0
 31
0.0
  0
LINE
  5
25D
330
17
100
AcDbEntity
  8
A-WALL
100
AcDbLine
 10
34.925
 20
6.0
 30
0.0
 11
35.075
 21
6.0
 31
0.0
  0
LINE
  5
25E
330
17
100
AcDbEntity
  8
A-WALL
100
AcDbLine
 10
35.075
 20
6.0
 30
0.0
 11
35.075
 21
14.0
 31
0.0
  0
LINE
  5
25F
330
17
100
AcDbEntity
  8
A-WALL
100
AcDbLine
 10
35.075
 20
14.0
 30
0.0
 11
34.925
 21
14.0
 31
0.0
  0
LINE
  5
260
330
17
100
AcDbEntity
  8
A-WALL
100
AcDbLine
 10
34.925
 20
14.0
 30
0.0
 11
34.925
 21
6.0
 31
0.0
  0
LINE
  5
261
330
17
100
AcDbEntity
  8
A-COLUMN
100
AcDbLine
 10
20.88
 20
-0.12
 30
0.0
 11
21.12
 21
-0.12
 31
0.0
  0
LINE
  5
262
330
17
100
AcDbEntity
  8
A-COLUMN
100
AcDbLine
 10
21.12
 20
-0.12
 30
0.0
 11
21.12
 21
0.12
 31
0.0
  0
LINE
  5
263
330
17
100
AcDbEntity
  8
A-COLUMN
100
AcDbLine
 10
21.12
 20
0.12
 30
0.0
 11
20.88
 21
0.12
 31
0.0
  0
LINE
  5
264
330
17
100
AcDbEntity
  8
A-COLUMN
100
AcDbLine
 10
20.88
 20
0.12
 30
0.0
 11
20.88
 21
-0.12
 31
0.0
  0
LINE
  5
265
330
17
100
AcDbEntity
  8
A-COLUMN
100
AcDbLine
 10
20.88
 20
1.88
 30
0.0
 11
21.12
 21
1.88
 31
0.0
  0
LINE
  5
266
330
17
100
AcDbEntity
  8
A-COLUMN
100
AcDbLine
 10
21.12
 20
1.88
 30
0.0
 11
21.12
 21
2.12
 31
0.0
  0
LINE
  5
267
330
17
100
AcDbEntity
  8
A-COLUMN
100
AcDbLine
 10
21.12
 20
2.12
 30
0.0
 11
20.88
 21
2.12
 31
0.0
  0
LINE
  5
268
330
17
100
AcDbEntity
  8
A-COLUMN
100
AcDbLine
 10
20.88
 20
2.12
 30
0.0
 11
20.88
 21
1.88
 31
0.0
  0
LINE
  5
269
330
17
100
AcDbEntity
  8
A-COLUMN
100
AcDbLine
 10
20.88
 20
5.88
 30
0.0
 11
21.12
 21
5.88
 31
0.0
  0
LINE
  5
26A
330
17
100
AcDbEntity
  8
A-COLUMN
100
AcDbLine
 10
21.12
 20
5.88
 30
0.0
 11
21.12
 21
6.12
 31
0.0
  0
LINE
  5
26B
330
17
100
AcDbEntity
  8
A-COLUMN
100
AcDbLine
 10
21.12
 20
6.12
 30
0.0
 11
20.88
 21
6.12
 31
0.0
  0
LINE
  5
26C
330
17
100
AcDbEntity
  8
A-COLUMN
100
AcDbLine
 10
20.88
 20
6.12
 30
0.0
 11
20.88
 21
5.88
 31
0.0
  0
LINE
  5
26D
330
17
100
AcDbEntity
  8
A-COLUMN
100
AcDbLine
 10
20.88
 20
10.38
 30
0.0
 11
21.12
 21
10.38
 31
0.0
  0
LINE
  5
26E
330
17
100
AcDbEntity
  8
A-COLUMN
100
AcDbLine
 10
21.12
 20
10.38
 30
0.0
 11
21.12
 21
10.62
 31
0.0
  0
LINE
  5
26F
330
17
100
AcDbEntity
  8
A-COLUMN
100
AcDbLine
 10
21.12
 20
10.62
 30
0.0
 11
20.88
 21
10.62
 31
0.0
  0
LINE
  5
270
330
17
100
AcDbEntity
  8
A-COLUMN
100
AcDbLine
 10
20.88
 20
10.62
 30
0.0
 11
20.88
 21
10.38
 31
0.0
  0
LINE
  5
271
330
17
100
AcDbEntity
  8
A-COLUMN
100
AcDbLine
 10
20.88
 20
13.88
 30
0.0
 11
21.12
 21
13.88
 31
0.0
  0
LINE
  5
272
330
17
100
AcDbEntity
  8
A-COLUMN
100
AcDbLine
 10
21.12
 20
13.88
 30
0.0
 11
21.12
 21
14.12
 31
0.0
  0
LINE
  5
273
330
17
100
AcDbEntity
  8
A-COLUMN
100
AcDbLine
 10
21.12
 20
14.12
 30
0.0
 11
20.88
 21
14.12
 31
0.0
  0
LINE
  5
274
330
17
100
AcDbEntity
  8
A-COLUMN
100
AcDbLine
 10
20.88
 20
14.12
 30
0.0
 11
20.88
 21
13.88
 31
0.0
  0
LINE
  5
275
330
17
100
AcDbEntity
  8
A-COLUMN
100
AcDbLine
 10
22.88
 20
-0.12
 30
0.0
 11
23.12
 21
-0.12
 31
0.0
  0
LINE
  5
276
330
17
100
AcDbEntity
  8
A-COLUMN
100
AcDbLine
 10
23.12
 20
-0.12
 30
0.0
 11
23.12
 21
0.12
 31
0.0
  0
LINE
  5
277
330
17
100
AcDbEntity
  8
A-COLUMN
100
AcDbLine
 10
23.12
 20
0.12
 30
0.0
 11
22.88
 21
0.12
 31
0.0
  0
LINE
  5
278
330
17
100
AcDbEntity
  8
A-COLUMN
100
AcDbLine
 10
22.88
 20
0.12
 30
0.0
 11
22.88
 21
-0.12
 31
0.0
  0
LINE
  5
279
330
17
100
AcDbEntity
  8
A-COLUMN
100
AcDbLine
 10
22.88
 20
13.88
 30
0.0
 11
23.12
 21
13.88
 31
0.0
  0
LINE
  5
27A
330
17
100
AcDbEntity
  8
A-COLUMN
100
AcDbLine
 10
23.12
 20
13.88
 30
0.0
 11
23.12
 21
14.12
 31
0.0
  0
LINE
  5
27B
330
17
100
AcDbEntity
  8
A-COLUMN
100
AcDbLine
 10
23.12
 20
14.12
 30
0.0
 11
22.88
 21
14.12
 31
0.0
  0
LINE
  5
27C
330
17
100
AcDbEntity
  8
A-COLUMN
100
AcDbLine
 10
22.88
 20
14.12
 30
0.0
 11
22.88
 21
13.88
 31
0.0
  0
LINE
  5
27D
330
17
100
AcDbEntity
  8
A-COLUMN
100
AcDbLine
 10
25.88
 20
-0.12
 30
0.0
 11
26.12
 21
-0.12
 31
0.0
  0
LINE
  5
27E
330
17
100
AcDbEntity
  8
A-COLUMN
100
AcDbLine
 10
26.12
 20
-0.12
 30
0.0
 11
26.12
 21
0.12
 31
0.0
  0
LINE
  5
27F
330
17
100
AcDbEntity
  8
A-COLUMN
100
AcDbLine
 10
26.12
 20
0.12
 30
0.0
 11
25.88
 21
0.12
 31
0.0
  0
LINE
  5
280
330
17
100
AcDbEntity
  8
A-COLUMN
100
AcDbLine
 10
25.88
 20
0.12
 30
0.0
 11
25.88
 21
-0.12
 31
0.0
  0
LINE
  5
281
330
17
100
AcDbEntity
  8
A-COLUMN
100
AcDbLine
 10
25.88
 20
1.88
 30
0.0
 11
26.12
 21
1.88
 31
0.0
  0
LINE
  5
282
330
17
100
AcDbEntity
  8
A-COLUMN
100
AcDbLine
 10
26.12
 20
1.88
 30
0.0
 11
26.12
 21
2.12
 31
0.0
  0
LINE
  5
283
330
17
100
AcDbEntity
  8
A-COLUMN
100
AcDbLine
 10
26.12
 20
2.12
 30
0.0
 11
25.88
 21
2.12
 31
0.0
  0
LINE
  5
284
330
17
100
AcDbEntity
  8
A-COLUMN
100
AcDbLine
 10
25.88
 20
2.12
 30
0.0
 11
25.88
 21
1.88
 31
0.0
  0
LINE
  5
285
330
17
100
AcDbEntity
  8
A-COLUMN
100
AcDbLine
 10
25.88
 20
5.88
 30
0.0
 11
26.12
 21
5.88
 31
0.0
  0
LINE
  5
286
330
17
100
AcDbEntity
  8
A-COLUMN
100
AcDbLine
 10
26.12
 20
5.88
 30
0.0
 11
26.12
 21
6.12
 31
0.0
  0
LINE
  5
287
330
17
100
AcDbEntity
  8
A-COLUMN
100
AcDbLine
 10
26.12
 20
6.12
 30
0.0
 11
25.88
 21
6.12
 31
0.0
  0
LINE
  5
288
330
17
100
AcDbEntity
  8
A-COLUMN
100
AcDbLine
 10
25.88
 20
6.12
 30
0.0
 11
25.88
 21
5.88
 31
0.0
  0
LINE
  5
289
330
17
100
AcDbEntity
  8
A-COLUMN
100
AcDbLine
 10
25.88
 20
10.38
 30
0.0
 11
26.12
 21
10.38
 31
0.0
  0
LINE
  5
28A
330
17
100
AcDbEntity
  8
A-COLUMN
100
AcDbLine
 10
26.12
 20
10.38
 30
0.0
 11
26.12
 21
10.62
 31
0.0
  0
LINE
  5
28B
330
17
100
AcDbEntity
  8
A-COLUMN
100
AcDbLine
 10
26.12
 20
10.62
 30
0.0
 11
25.88
 21
10.62
 31
0.0
  0
LINE
  5
28C
330
17
100
AcDbEntity
  8
A-COLUMN
100
AcDbLine
 10
25.88
 20
10.62
 30
0.0
 11
25.88
 21
10.38
 31
0.0
  0
LINE
  5
28D
330
17
100
AcDbEntity
  8
A-COLUMN
100
AcDbLine
 10
25.88
 20
13.88
 30
0.0
 11
26.12
 21
13.88
 31
0.0
  0
LINE
  5
28E
330
17
100
AcDbEntity
  8
A-COLUMN
100
AcDbLine
 10
26.12
 20
13.88
 30
0.0
 11
26.12
 21
14.12
 31
0.0
  0
LINE
  5
28F
330
17
100
AcDbEntity
  8
A-COLUMN
100
AcDbLine
 10
26.12
 20
14.12
 30
0.0
 11
25.88
 21
14.12
 31
0.0
  0
LINE
  5
290
330
17
100
AcDbEntity
  8
A-COLUMN
100
AcDbLine
 10
25.88
 20
14.12
 30
0.0
 11
25.88
 21
13.88
 31
0.0
  0
LINE
  5
291
330
17
100
AcDbEntity
  8
A-COLUMN
100
AcDbLine
 10
28.88
 20
-0.12
 30
0.0
 11
29.12
 21
-0.12
 31
0.0
  0
LINE
  5
292
330
17
100
AcDbEntity
  8
A-COLUMN
100
AcDbLine
 10
29.12
 20
-0.12
 30
0.0
 11
29.12
 21
0.12
 31
0.0
  0
LINE
  5
293
330
17
100
AcDbEntity
  8
A-COLUMN
100
AcDbLine
 10
29.12
 20
0.12
 30
0.0
 11
28.88
 21
0.12
 31
0.0
  0
LINE
  5
294
330
17
100
AcDbEntity
  8
A-COLUMN
100
AcDbLine
 10
28.88
 20
0.12
 30
0.0
 11
28.88
 21
-0.12
 31
0.0
  0
LINE
  5
295
330
17
100
AcDbEntity
  8
A-COLUMN
100
AcDbLine
 10
28.88
 20
1.88
 30
0.0
 11
29.12
 21
1.88
 31
0.0
  0
LINE
  5
296
330
17
100
AcDbEntity
  8
A-COLUMN
100
AcDbLine
 10
29.12
 20
1.88
 30
0.0
 11
29.12
 21
2.12
 31
0.0
  0
LINE
  5
297
330
17
100
AcDbEntity
  8
A-COLUMN
100
AcDbLine
 10
29.12
 20
2.12
 30
0.0
 11
28.88
 21
2.12
 31
0.0
  0
LINE
  5
298
330
17
100
AcDbEntity
  8
A-COLUMN
100
AcDbLine
 10
28.88
 20
2.12
 30
0.0
 11
28.88
 21
1.88
 31
0.0
  0
LINE
  5
299
330
17
100
AcDbEntity
  8
A-COLUMN
100
AcDbLine
 10
28.88
 20
5.88
 30
0.0
 11
29.12
 21
5.88
 31
0.0
  0
LINE
  5
29A
330
17
100
AcDbEntity
  8
A-COLUMN
100
AcDbLine
 10
29.12
 20
5.88
 30
0.0
 11
29.12
 21
6.12
 31
0.0
  0
LINE
  5
29B
330
17
100
AcDbEntity
  8
A-COLUMN
100
AcDbLine
 10
29.12
 20
6.12
 30
0.0
 11
28.88
 21
6.12
 31
0.0
  0
LINE
  5
29C
330
17
100
AcDbEntity
  8
A-COLUMN
100
AcDbLine
 10
28.88
 20
6.12
 30
0.0
 11
28.88
 21
5.88
 31
0.0
  0
LINE
  5
29D
330
17
100
AcDbEntity
  8
A-COLUMN
100
AcDbLine
 10
28.88
 20
10.38
 30
0.0
 11
29.12
 21
10.38
 31
0.0
  0
LINE
  5
29E
330
17
100
AcDbEntity
  8
A-COLUMN
100
AcDbLine
 10
29.12
 20
10.38
 30
0.0
 11
29.12
 21
10.62
 31
0.0
  0
LINE
  5
29F
330
17
100
AcDbEntity
  8
A-COLUMN
100
AcDbLine
 10
29.12
 20
10.62
 30
0.0
 11
28.88
 21
10.62
 31
0.0
  0
LINE
  5
2A0
330
17
100
AcDbEntity
  8
A-COLUMN
100
AcDbLine
 10
28.88
 20
10.62
 30
0.0
 11
28.88
 21
10.38
 31
0.0
  0
LINE
  5
2A1
330
17
100
AcDbEntity
  8
A-COLUMN
100
AcDbLine
 10
28.88
 20
13.88
 30
0.0
 11
29.12
 21
13.88
 31
0.0
  0
LINE
  5
2A2
330
17
100
AcDbEntity
  8
A-COLUMN
100
AcDbLine
 10
29.12
 20
13.88
 30
0.0
 11
29.12
 21
14.12
 31
0.0
  0
LINE
  5
2A3
330
17
100
AcDbEntity
  8
A-COLUMN
100
AcDbLine
 10
29.12
 20
14.12
 30
0.0
 11
28.88
 21
14.12
 31
0.0
  0
LINE
  5
2A4
330
17
100
AcDbEntity
  8
A-COLUMN
100
AcDbLine
 10
28.88
 20
14.12
 30
0.0
 11
28.88
 21
13.88
 31
0.0
  0
LINE
  5
2A5
330
17
100
AcDbEntity
  8
A-COLUMN
100
AcDbLine
 10
32.88
 20
-0.12
 30
0.0
 11
33.12
 21
-0.12
 31
0.0
  0
LINE
  5
2A6
330
17
100
AcDbEntity
  8
A-COLUMN
100
AcDbLine
 10
33.12
 20
-0.12
 30
0.0
 11
33.12
 21
0.12
 31
0.0
  0
LINE
  5
2A7
330
17
100
AcDbEntity
  8
A-COLUMN
100
AcDbLine
 10
33.12
 20
0.12
 30
0.0
 11
32.88
 21
0.12
 31
0.0
  0
LINE
  5
2A8
330
17
100
AcDbEntity
  8
A-COLUMN
100
AcDbLine
 10
32.88
 20
0.12
 30
0.0
 11
32.88
 21
-0.12
 31
0.0
  0
LINE
  5
2A9
330
17
100
AcDbEntity
  8
A-COLUMN
100
AcDbLine
 10
32.88
 20
1.88
 30
0.0
 11
33.12
 21
1.88
 31
0.0
  0
LINE
  5
2AA
330
17
100
AcDbEntity
  8
A-COLUMN
100
AcDbLine
 10
33.12
 20
1.88
 30
0.0
 11
33.12
 21
2.12
 31
0.0
  0
LINE
  5
2AB
330
17
100
AcDbEntity
  8
A-COLUMN
100
AcDbLine
 10
33.12
 20
2.12
 30
0.0
 11
32.88
 21
2.12
 31
0.0
  0
LINE
  5
2AC
330
17
100
AcDbEntity
  8
A-COLUMN
100
AcDbLine
 10
32.88
 20
2.12
 30
0.0
 11
32.88
 21
1.88
 31
0.0
  0
LINE
  5
2AD
330
17
100
AcDbEntity
  8
A-COLUMN
100
AcDbLine
 10
32.88
 20
5.88
 30
0.0
 11
33.12
 21
5.88
 31
0.0
  0
LINE
  5
2AE
330
17
100
AcDbEntity
  8
A-COLUMN
100
AcDbLine
 10
33.12
 20
5.88
 30
0.0
 11
33.12
 21
6.12
 31
0.0
  0
LINE
  5
2AF
330
17
100
AcDbEntity
  8
A-COLUMN
100
AcDbLine
 10
33.12
 20
6.12
 30
0.0
 11
32.88
 21
6.12
 31
0.0
  0
LINE
  5
2B0
330
17
100
AcDbEntity
  8
A-COLUMN
100
AcDbLine
 10
32.88
 20
6.12
 30
0.0
 11
32.88
 21
5.88
 31
0.0
  0
LINE
  5
2B1
330
17
100
AcDbEntity
  8
A-COLUMN
100
AcDbLine
 10
32.88
 20
10.38
 30
0.0
 11
33.12
 21
10.38
 31
0.0
  0
LINE
  5
2B2
330
17
100
AcDbEntity
  8
A-COLUMN
100
AcDbLine
 10
33.12
 20
10.38
 30
0.0
 11
33.12
 21
10.62
 31
0.0
  0
LINE
  5
2B3
330
17
100
AcDbEntity
  8
A-COLUMN
100
AcDbLine
 10
33.12
 20
10.62
 30
0.0
 11
32.88
 21
10.62
 31
0.0
  0
LINE
  5
2B4
330
17
100
AcDbEntity
  8
A-COLUMN
100
AcDbLine
 10
32.88
 20
10.62
 30
0.0
 11
32.88
 21
10.38
 31
0.0
  0
LINE
  5
2B5
330
17
100
AcDbEntity
  8
A-COLUMN
100
AcDbLine
 10
32.88
 20
13.88
 30
0.0
 11
33.12
 21
13.88
 31
0.0
  0
LINE
  5
2B6
330
17
100
AcDbEntity
  8
A-COLUMN
100
AcDbLine
 10
33.12
 20
13.88
 30
0.0
 11
33.12
 21
14.12
 31
0.0
  0
LINE
  5
2B7
330
17
100
AcDbEntity
  8
A-COLUMN
100
AcDbLine
 10
33.12
 20
14.12
 30
0.0
 11
32.88
 21
14.12
 31
0.0
  0
LINE
  5
2B8
330
17
100
AcDbEntity
  8
A-COLUMN
100
AcDbLine
 10
32.88
 20
14.12
 30
0.0
 11
32.88
 21
13.88
 31
0.0
  0
LINE
  5
2B9
330
17
100
AcDbEntity
  8
A-COLUMN
100
AcDbLine
 10
34.88
 20
-0.12
 30
0.0
 11
35.12
 21
-0.12
 31
0.0
  0
LINE
  5
2BA
330
17
100
AcDbEntity
  8
A-COLUMN
100
AcDbLine
 10
35.12
 20
-0.12
 30
0.0
 11
35.12
 21
0.12
 31
0.0
  0
LINE
  5
2BB
330
17
100
AcDbEntity
  8
A-COLUMN
100
AcDbLine
 10
35.12
 20
0.12
 30
0.0
 11
34.88
 21
0.12
 31
0.0
  0
LINE
  5
2BC
330
17
100
AcDbEntity
  8
A-COLUMN
100
AcDbLine
 10
34.88
 20
0.12
 30
0.0
 11
34.88
 21
-0.12
 31
0.0
  0
LINE
  5
2BD
330
17
100
AcDbEntity
  8
A-COLUMN
100
AcDbLine
 10
34.88
 20
13.88
 30
0.0
 11
35.12
 21
13.88
 31
0.0
  0
LINE
  5
2BE
330
17
100
AcDbEntity
  8
A-COLUMN
100
AcDbLine
 10
35.12
 20
13.88
 30
0.0
 11
35.12
 21
14.12
 31
0.0
  0
LINE
  5
2BF
330
17
100
AcDbEntity
  8
A-COLUMN
100
AcDbLine
 10
35.12
 20
14.12
 30
0.0
 11
34.88
 21
14.12
 31
0.0
  0
LINE
  5
2C0
330
17
100
AcDbEntity
  8
A-COLUMN
100
AcDbLine
 10
34.88
 20
14.12
 30
0.0
 11
34.88
 21
13.88
 31
0.0
  0
LINE
  5
2C1
330
17
100
AcDbEntity
  8
A-COLUMN
100
AcDbLine
 10
36.88
 20
-0.12
 30
0.0
 11
37.12
 21
-0.12
 31
0.0
  0
LINE
  5
2C2
330
17
100
AcDbEntity
  8
A-COLUMN
100
AcDbLine
 10
37.12
 20
-0.12
 30
0.0
 11
37.12
 21
0.12
 31
0.0
  0
LINE
  5
2C3
330
17
100
AcDbEntity
  8
A-COLUMN
100
AcDbLine
 10
37.12
 20
0.12
 30
0.0
 11
36.88
 21
0.12
 31
0.0
  0
LINE
  5
2C4
330
17
100
AcDbEntity
  8
A-COLUMN
100
AcDbLine
 10
36.88
 20
0.12
 30
0.0
 11
36.88
 21
-0.12
 31
0.0
  0
LINE
  5
2C5
330
17
100
AcDbEntity
  8
A-COLUMN
100
AcDbLine
 10
36.88
 20
1.88
 30
0.0
 11
37.12
 21
1.88
 31
0.0
  0
LINE
  5
2C6
330
17
100
AcDbEntity
  8
A-COLUMN
100
AcDbLine
 10
37.12
 20
1.88
 30
0.0
 11
37.12
 21
2.12
 31
0.0
  0
LINE
  5
2C7
330
17
100
AcDbEntity
  8
A-COLUMN
100
AcDbLine
 10
37.12
 20
2.12
 30
0.0
 11
36.88
 21
2.12
 31
0.0
  0
LINE
  5
2C8
330
17
100
AcDbEntity
  8
A-COLUMN
100
AcDbLine
 10
36.88
 20
2.12
 30
0.0
 11
36.88
 21
1.88
 31
0.0
  0
LINE
  5
2C9
330
17
100
AcDbEntity
  8
A-COLUMN
100
AcDbLine
 10
36.88
 20
5.88
 30
0.0
 11
37.12
 21
5.88
 31
0.0
  0
LINE
  5
2CA
330
17
100
AcDbEntity
  8
A-COLUMN
100
AcDbLine
 10
37.12
 20
5.88
 30
0.0
 11
37.12
 21
6.12
 31
0.0
  0
LINE
  5
2CB
330
17
100
AcDbEntity
  8
A-COLUMN
100
AcDbLine
 10
37.12
 20
6.12
 30
0.0
 11
36.88
 21
6.12
 31
0.0
  0
LINE
  5
2CC
330
17
100
AcDbEntity
  8
A-COLUMN
100
AcDbLine
 10
36.88
 20
6.12
 30
0.0
 11
36.88
 21
5.88
 31
0.0
  0
LINE
  5
2CD
330
17
100
AcDbEntity
  8
A-COLUMN
100
AcDbLine
 10
36.88
 20
10.38
 30
0.0
 11
37.12
 21
10.38
 31
0.0
  0
LINE
  5
2CE
330
17
100
AcDbEntity
  8
A-COLUMN
100
AcDbLine
 10
37.12
 20
10.38
 30
0.0
 11
37.12
 21
10.62
 31
0.0
  0
LINE
  5
2CF
330
17
100
AcDbEntity
  8
A-COLUMN
100
AcDbLine
 10
37.12
 20
10.62
 30
0.0
 11
36.88
 21
10.62
 31
0.0
  0
LINE
  5
2D0
330
17
100
AcDbEntity
  8
A-COLUMN
100
AcDbLine
 10
36.88
 20
10.62
 30
0.0
 11
36.88
 21
10.38
 31
0.0
  0
LINE
  5
2D1
330
17
100
AcDbEntity
  8
A-COLUMN
100
AcDbLine
 10
36.88
 20
13.88
 30
0.0
 11
37.12
 21
13.88
 31
0.0
  0
LINE
  5
2D2
330
17
100
AcDbEntity
  8
A-COLUMN
100
AcDbLine
 10
37.12
 20
13.88
 30
0.0
 11
37.12
 21
14.12
 31
0.0
  0
LINE
  5
2D3
330
17
100
AcDbEntity
  8
A-COLUMN
100
AcDbLine
 10
37.12
 20
14.12
 30
0.0
 11
36.88
 21
14.12
 31
0.0
  0
LINE
  5
2D4
330
17
100
AcDbEntity
  8
A-COLUMN
100
AcDbLine
 10
36.88
 20
14.12
 30
0.0
 11
36.88
 21
13.88
 31
0.0
  0
TEXT
  5
2D5
330
17
100
AcDbEntity
  8
A-TEXT
100
AcDbText
 10
29.0
 20
-1.2
 30
0.0
 40
0.32
  1
SECOND FLOOR PLAN
  7
PJ_STANDARD
 72
1
 11
29.0
 21
-1.2
 31
0.0
100
AcDbText
 73
2
  0
TEXT
  5
2D6
330
17
100
AcDbEntity
  8
A-TEXT
100
AcDbText
 10
29.0
 20
-1.6
 30
0.0
 40
0.2
  1
SCALE 1:100
  7
PJ_STANDARD
 72
1
 11
29.0
 21
-1.6
 31
0.0
100
AcDbText
 73
2
  0
TEXT
  5
2D7
330
17
100
AcDbEntity
  8
A-TEXT
100
AcDbText
 10
23.6
 20
3.0
 30
0.0
 40
0.2
  1
Bedroom 1
  7
PJ_STANDARD
 72
1
 11
23.6
 21
3.0
 31
0.0
100
AcDbText
 73
2
  0
LINE
  5
2D8
330
17
100
AcDbEntity
  8
A-FURN
100
AcDbLine
 10
21.900000000000002
 20
0.8
 30
0.0
 11
23.0
 21
0.8
 31
0.0
  0
LINE
  5
2D9
330
17
100
AcDbEntity
  8
A-FURN
100
AcDbLine
 10
23.0
 20
0.8
 30
0.0
 11
23.0
 21
2.7
 31
0.0
  0
LINE
  5
2DA
330
17
100
AcDbEntity
  8
A-FURN
100
AcDbLine
 10
23.0
 20
2.7
 30
0.0
 11
21.900000000000002
 21
2.7
 31
0.0
  0
LINE
  5
2DB
330
17
100
AcDbEntity
  8
A-FURN
100
AcDbLine
 10
21.900000000000002
 20
2.7
 30
0.0
 11
21.900000000000002
 21
0.8
 31
0.0
  0
TEXT
  5
2DC
330
17
100
AcDbEntity
  8
A-FURN
100
AcDbText
 10
22.450000000000003
 20
1.75
 30
0.0
 40
0.18
  1
Bed
  7
PJ_STANDARD
 72
1
 11
22.450000000000003
 21
1.75
 31
0.0
100
AcDbText
 73
2
  0
LINE
  5
2DD
330
17
100
AcDbEntity
  8
A-FURN
100
AcDbLine
 10
24.3
 20
0.8
 30
0.0
 11
25.400000000000002
 21
0.8
 31
0.0
  0
LINE
  5
2DE
330
17
100
AcDbEntity
  8
A-FURN
100
AcDbLine
 10
25.400000000000002
 20
0.8
 30
0.0
 11
25.400000000000002
 21
1.3
 31
0.0
  0
LINE
  5
2DF
330
17
100
AcDbEntity
  8
A-FURN
100
AcDbLine
 10
25.400000000000002
 20
1.3
 30
0.0
 11
24.3
 21
1.3
 31
0.0
  0
LINE
  5
2E0
330
17
100
AcDbEntity
  8
A-FURN
100
AcDbLine
 10
24.3
 20
1.3
 30
0.0
 11
24.3
 21
0.8
 31
0.0
  0
TEXT
  5
2E1
330
17
100
AcDbEntity
  8
A-FURN
100
AcDbText
 10
24.85
 20
1.05
 30
0.0
 40
0.18
  1
WR
  7
PJ_STANDARD
 72
1
 11
24.85
 21
1.05
 31
0.0
100
AcDbText
 73
2
  0
TEXT
  5
2E2
330
17
100
AcDbEntity
  8
A-TEXT
100
AcDbText
 10
31.1
 20
3.0
 30
0.0
 40
0.2
  1
Bedroom 2
  7
PJ_STANDARD
 72
1
 11
31.1
 21
3.0
 31
0.0
100
AcDbText
 73
2
  0
LINE
  5
2E3
330
17
100
AcDbEntity
  8
A-FURN
100
AcDbLine
 10
29.8
 20
0.8
 30
0.0
 11
30.9
 21
0.8
 31
0.0
  0
LINE
  5
2E4
330
17
100
AcDbEntity
  8
A-FURN
100
AcDbLine
 10
30.9
 20
0.8
 30
0.0
 11
30.9
 21
2.7
 31
0.0
  0
LINE
  5
2E5
330
17
100
AcDbEntity
  8
A-FURN
100
AcDbLine
 10
30.9
 20
2.7
 30
0.0
 11
29.8
 21
2.7
 31
0.0
  0
LINE
  5
2E6
330
17
100
AcDbEntity
  8
A-FURN
100
AcDbLine
 10
29.8
 20
2.7
 30
0.0
 11
29.8
 21
0.8
 31
0.0
  0
TEXT
  5
2E7
330
17
100
AcDbEntity
  8
A-FURN
100
AcDbText
 10
30.35
 20
1.75
 30
0.0
 40
0.18
  1
Bed
  7
PJ_STANDARD
 72
1
 11
30.35
 21
1.75
 31
0.0
100
AcDbText
 73
2
  0
LINE
  5
2E8
330
17
100
AcDbEntity
  8
A-FURN
100
AcDbLine
 10
31.400000000000002
 20
0.8
 30
0.0
 11
32.5
 21
0.8
 31
0.0
  0
LINE
  5
2E9
330
17
100
AcDbEntity
  8
A-FURN
100
AcDbLine
 10
32.5
 20
0.8
 30
0.0
 11
32.5
 21
1.3
 31
0.0
  0
LINE
  5
2EA
330
17
100
AcDbEntity
  8
A-FURN
100
AcDbLine
 10
32.5
 20
1.3
 30
0.0
 11
31.400000000000002
 21
1.3
 31
0.0
  0
LINE
  5
2EB
330
17
100
AcDbEntity
  8
A-FURN
100
AcDbLine
 10
31.400000000000002
 20
1.3
 30
0.0
 11
31.400000000000002
 21
0.8
 31
0.0
  0
TEXT
  5
2EC
330
17
100
AcDbEntity
  8
A-FURN
100
AcDbText
 10
31.950000000000003
 20
1.05
 30
0.0
 40
0.18
  1
WR
  7
PJ_STANDARD
 72
1
 11
31.950000000000003
 21
1.05
 31
0.0
100
AcDbText
 73
2
  0
TEXT
  5
2ED
330
17
100
AcDbEntity
  8
A-TEXT
100
AcDbText
 10
23.6
 20
8.25
 30
0.0
 40
0.2
  1
Bedroom 3
  7
PJ_STANDARD
 72
1
 11
23.6
 21
8.25
 31
0.0
100
AcDbText
 73
2
  0
LINE
  5
2EE
330
17
100
AcDbEntity
  8
A-FURN
100
AcDbLine
 10
21.900000000000002
 20
6.8
 30
0.0
 11
23.0
 21
6.8
 31
0.0
  0
LINE
  5
2EF
330
17
100
AcDbEntity
  8
A-FURN
100
AcDbLine
 10
23.0
 20
6.8
 30
0.0
 11
23.0
 21
8.7
 31
0.0
  0
LINE
  5
2F0
330
17
100
AcDbEntity
  8
A-FURN
100
AcDbLine
 10
23.0
 20
8.7
 30
0.0
 11
21.900000000000002
 21
8.7
 31
0.0
  0
LINE
  5
2F1
330
17
100
AcDbEntity
  8
A-FURN
100
AcDbLine
 10
21.900000000000002
 20
8.7
 30
0.0
 11
21.900000000000002
 21
6.8
 31
0.0
  0
TEXT
  5
2F2
330
17
100
AcDbEntity
  8
A-FURN
100
AcDbText
 10
22.450000000000003
 20
7.75
 30
0.0
 40
0.18
  1
Bed
  7
PJ_STANDARD
 72
1
 11
22.450000000000003
 21
7.75
 31
0.0
100
AcDbText
 73
2
  0
LINE
  5
2F3
330
17
100
AcDbEntity
  8
A-FURN
100
AcDbLine
 10
24.3
 20
6.8
 30
0.0
 11
25.400000000000002
 21
6.8
 31
0.0
  0
LINE
  5
2F4
330
17
100
AcDbEntity
  8
A-FURN
100
AcDbLine
 10
25.400000000000002
 20
6.8
 30
0.0
 11
25.400000000000002
 21
7.3
 31
0.0
  0
LINE
  5
2F5
330
17
100
AcDbEntity
  8
A-FURN
100
AcDbLine
 10
25.400000000000002
 20
7.3
 30
0.0
 11
24.3
 21
7.3
 31
0.0
  0
LINE
  5
2F6
330
17
100
AcDbEntity
  8
A-FURN
100
AcDbLine
 10
24.3
 20
7.3
 30
0.0
 11
24.3
 21
6.8
 31
0.0
  0
TEXT
  5
2F7
330
17
100
AcDbEntity
  8
A-FURN
100
AcDbText
 10
24.85
 20
7.05
 30
0.0
 40
0.18
  1
WR
  7
PJ_STANDARD
 72
1
 11
24.85
 21
7.05
 31
0.0
100
AcDbText
 73
2
  0
TEXT
  5
2F8
330
17
100
AcDbEntity
  8
A-TEXT
100
AcDbText
 10
31.1
 20
8.25
 30
0.0
 40
0.2
  1
Bedroom 4
  7
PJ_STANDARD
 72
1
 11
31.1
 21
8.25
 31
0.0
100
AcDbText
 73
2
  0
LINE
  5
2F9
330
17
100
AcDbEntity
  8
A-FURN
100
AcDbLine
 10
29.8
 20
6.8
 30
0.0
 11
30.9
 21
6.8
 31
0.0
  0
LINE
  5
2FA
330
17
100
AcDbEntity
  8
A-FURN
100
AcDbLine
 10
30.9
 20
6.8
 30
0.0
 11
30.9
 21
8.7
 31
0.0
  0
LINE
  5
2FB
330
17
100
AcDbEntity
  8
A-FURN
100
AcDbLine
 10
30.9
 20
8.7
 30
0.0
 11
29.8
 21
8.7
 31
0.0
  0
LINE
  5
2FC
330
17
100
AcDbEntity
  8
A-FURN
100
AcDbLine
 10
29.8
 20
8.7
 30
0.0
 11
29.8
 21
6.8
 31
0.0
  0
TEXT
  5
2FD
330
17
100
AcDbEntity
  8
A-FURN
100
AcDbText
 10
30.35
 20
7.75
 30
0.0
 40
0.18
  1
Bed
  7
PJ_STANDARD
 72
1
 11
30.35
 21
7.75
 31
0.0
100
AcDbText
 73
2
  0
LINE
  5
2FE
330
17
100
AcDbEntity
  8
A-FURN
100
AcDbLine
 10
31.400000000000002
 20
6.8
 30
0.0
 11
32.5
 21
6.8
 31
0.0
  0
LINE
  5
2FF
330
17
100
AcDbEntity
  8
A-FURN
100
AcDbLine
 10
32.5
 20
6.8
 30
0.0
 11
32.5
 21
7.3
 31
0.0
  0
LINE
  5
300
330
17
100
AcDbEntity
  8
A-FURN
100
AcDbLine
 10
32.5
 20
7.3
 30
0.0
 11
31.400000000000002
 21
7.3
 31
0.0
  0
LINE
  5
301
330
17
100
AcDbEntity
  8
A-FURN
100
AcDbLine
 10
31.400000000000002
 20
7.3
 30
0.0
 11
31.400000000000002
 21
6.8
 31
0.0
  0
TEXT
  5
302
330
17
100
AcDbEntity
  8
A-FURN
100
AcDbText
 10
31.950000000000003
 20
7.05
 30
0.0
 40
0.18
  1
WR
  7
PJ_STANDARD
 72
1
 11
31.950000000000003
 21
7.05
 31
0.0
100
AcDbText
 73
2
  0
LINE
  5
303
330
17
100
AcDbEntity
  8
A-STAIR
100
AcDbLine
 10
33.2
 20
2.2
 30
0.0
 11
34.8
 21
2.2
 31
0.0
  0
LINE
  5
304
330
17
100
AcDbEntity
  8
A-STAIR
100
AcDbLine
 10
34.8
 20
2.2
 30
0.0
 11
34.8
 21
5.8
 31
0.0
  0
LINE
  5
305
330
17
100
AcDbEntity
  8
A-STAIR
100
AcDbLine
 10
34.8
 20
5.8
 30
0.0
 11
33.2
 21
5.8
 31
0.0
  0
LINE
  5
306
330
17
100
AcDbEntity
  8
A-STAIR
100
AcDbLine
 10
33.2
 20
5.8
 30
0.0
 11
33.2
 21
2.2
 31
0.0
  0
LINE
  5
307
330
17
100
AcDbEntity
  8
A-STAIR
100
AcDbLine
 10
33.2
 20
2.6
 30
0.0
 11
34.8
 21
2.6
 31
0.0
  0
LINE
  5
308
330
17
100
AcDbEntity
  8
A-STAIR
100
AcDbLine
 10
33.2
 20
3.0
 30
0.0
 11
34.8
 21
3.0
 31
0.0
  0
LINE
  5
309
330
17
100
AcDbEntity
  8
A-STAIR
100
AcDbLine
 10
33.2
 20
3.4000000000000004
 30
0.0
 11
34.8
 21
3.4000000000000004
 31
0.0
  0
LINE
  5
30A
330
17
100
AcDbEntity
  8
A-STAIR
100
AcDbLine
 10
33.2
 20
3.8
 30
0.0
 11
34.8
 21
3.8
 31
0.0
  0
LINE
  5
30B
330
17
100
AcDbEntity
  8
A-STAIR
100
AcDbLine
 10
33.2
 20
4.2
 30
0.0
 11
34.8
 21
4.2
 31
0.0
  0
LINE
  5
30C
330
17
100
AcDbEntity
  8
A-STAIR
100
AcDbLine
 10
33.2
 20
4.6
 30
0.0
 11
34.8
 21
4.6
 31
0.0
  0
LINE
  5
30D
330
17
100
AcDbEntity
  8
A-STAIR
100
AcDbLine
 10
33.2
 20
5.0
 30
0.0
 11
34.8
 21
5.0
 31
0.0
  0
LINE
  5
30E
330
17
100
AcDbEntity
  8
A-STAIR
100
AcDbLine
 10
33.2
 20
5.4
 30
0.0
 11
34.8
 21
5.4
 31
0.0
  0
LINE
  5
30F
330
17
100
AcDbEntity
  8
A-STAIR
100
AcDbLine
 10
34.0
 20
2.45
 30
0.0
 11
34.0
 21
5.55
 31
0.0
  0
TEXT
  5
310
330
17
100
AcDbEntity
  8
A-STAIR
100
AcDbText
 10
34.25
 20
4.0
 30
0.0
 40
0.22
  1
DN
  7
PJ_STANDARD
 11
34.25
 21
4.0
 31
0.0
100
AcDbText
  0
TEXT
  5
311
330
17
100
AcDbEntity
  8
A-TEXT
100
AcDbText
 10
34.0
 20
6.25
 30
0.0
 40
0.2
  1
Stairs
  7
PJ_STANDARD
 72
1
 11
34.0
 21
6.25
 31
0.0
100
AcDbText
 73
2
  0
TEXT
  5
312
330
17
100
AcDbEntity
  8
A-TEXT
100
AcDbText
 10
27.5
 20
7.9
 30
0.0
 40
0.2
  1
Bathroom 2
  7
PJ_STANDARD
 72
1
 11
27.5
 21
7.9
 31
0.0
100
AcDbText
 73
2
  0
CIRCLE
  5
313
330
17
100
AcDbEntity
  8
A-SANITARY
100
AcDbCircle
 10
27.7
 20
8.7
 30
0.0
 40
0.18
  0
LINE
  5
314
330
17
100
AcDbEntity
  8
A-SANITARY
100
AcDbLine
 10
27.45
 20
8.149999999999999
 30
0.0
 11
27.95
 21
8.149999999999999
 31
0.0
  0
LINE
  5
315
330
17
100
AcDbEntity
  8
A-SANITARY
100
AcDbLine
 10
27.95
 20
8.149999999999999
 30
0.0
 11
27.95
 21
8.5
 31
0.0
  0
LINE
  5
316
330
17
100
AcDbEntity
  8
A-SANITARY
100
AcDbLine
 10
27.95
 20
8.5
 30
0.0
 11
27.45
 21
8.5
 31
0.0
  0
LINE
  5
317
330
17
100
AcDbEntity
  8
A-SANITARY
100
AcDbLine
 10
27.45
 20
8.5
 30
0.0
 11
27.45
 21
8.149999999999999
 31
0.0
  0
LINE
  5
318
330
17
100
AcDbEntity
  8
A-SANITARY
100
AcDbLine
 10
26.85
 20
8.02
 30
0.0
 11
27.35
 21
8.02
 31
0.0
  0
LINE
  5
319
330
17
100
AcDbEntity
  8
A-SANITARY
100
AcDbLine
 10
27.35
 20
8.02
 30
0.0
 11
27.35
 21
8.379999999999999
 31
0.0
  0
LINE
  5
31A
330
17
100
AcDbEntity
  8
A-SANITARY
100
AcDbLine
 10
27.35
 20
8.379999999999999
 30
0.0
 11
26.85
 21
8.379999999999999
 31
0.0
  0
LINE
  5
31B
330
17
100
AcDbEntity
  8
A-SANITARY
100
AcDbLine
 10
26.85
 20
8.379999999999999
 30
0.0
 11
26.85
 21
8.02
 31
0.0
  0
CIRCLE
  5
31C
330
17
100
AcDbEntity
  8
A-SANITARY
100
AcDbCircle
 10
27.1
 20
8.2
 30
0.0
 40
0.07
  0
TEXT
  5
31D
330
17
100
AcDbEntity
  8
A-TEXT
100
AcDbText
 10
28.0
 20
4.0
 30
0.0
 40
0.2
  1
Hall
  7
PJ_STANDARD
 72
1
 11
28.0
 21
4.0
 31
0.0
100
AcDbText
 73
2
  0
LINE
  5
31E
330
17
100
AcDbEntity
  8
A-DOOR
100
AcDbLine
 10
23.2
 20
6.0
 30
0.0
 11
24.0
 21
6.0
 31
0.0
  0
LINE
  5
31F
330
17
100
AcDbEntity
  8
A-DOOR
100
AcDbLine
 10
23.2
 20
6.0
 30
0.0
 11
23.2
 21
6.8
 31
0.0
  0
ARC
  5
320
330
17
100
AcDbEntity
  8
A-DOOR
100
AcDbCircle
 10
23.2
 20
6.0
 30
0.0
 40
0.8
100
AcDbArc
 50
0.0
 51
90.0
  0
LINE
  5
321
330
17
100
AcDbEntity
  8
A-DOOR
100
AcDbLine
 10
30.1
 20
6.0
 30
0.0
 11
30.900000000000002
 21
6.0
 31
0.0
  0
LINE
  5
322
330
17
100
AcDbEntity
  8
A-DOOR
100
AcDbLine
 10
30.1
 20
6.0
 30
0.0
 11
30.1
 21
6.8
 31
0.0
  0
ARC
  5
323
330
17
100
AcDbEntity
  8
A-DOOR
100
AcDbCircle
 10
30.1
 20
6.0
 30
0.0
 40
0.8
100
AcDbArc
 50
0.0
 51
90.0
  0
LINE
  5
324
330
17
100
AcDbEntity
  8
A-DOOR
100
AcDbLine
 10
29.0
 20
2.3
 30
0.0
 11
29.0
 21
3.0999999999999996
 31
0.0
  0
LINE
  5
325
330
17
100
AcDbEntity
  8
A-DOOR
100
AcDbLine
 10
29.0
 20
2.3
 30
0.0
 11
29.8
 21
2.3
 31
0.0
  0
ARC
  5
326
330
17
100
AcDbEntity
  8
A-DOOR
100
AcDbCircle
 10
29.0
 20
2.3
 30
0.0
 40
0.8
100
AcDbArc
 50
0.0
 51
90.0
  0
LINE
  5
327
330
17
100
AcDbEntity
  8
A-DOOR
100
AcDbLine
 10
26.0
 20
7.0
 30
0.0
 11
26.0
 21
7.8
 31
0.0
  0
LINE
  5
328
330
17
100
AcDbEntity
  8
A-DOOR
100
AcDbLine
 10
26.0
 20
7.0
 30
0.0
 11
26.8
 21
7.0
 31
0.0
  0
ARC
  5
329
330
17
100
AcDbEntity
  8
A-DOOR
100
AcDbCircle
 10
26.0
 20
7.0
 30
0.0
 40
0.8
100
AcDbArc
 50
0.0
 51
90.0
  0
LINE
  5
32A
330
17
100
AcDbEntity
  8
A-WINDOW
100
AcDbLine
 10
22.2
 20
14.0
 30
0.0
 11
24.2
 21
14.0
 31
0.0
  0
LINE
  5
32B
330
17
100
AcDbEntity
  8
A-WINDOW
100
AcDbLine
 10
22.2
 20
14.08
 30
0.0
 11
24.2
 21
14.08
 31
0.0
  0
LINE
  5
32C
330
17
100
AcDbEntity
  8
A-WINDOW
100
AcDbLine
 10
22.2
 20
13.92
 30
0.0
 11
24.2
 21
13.92
 31
0.0
  0
LINE
  5
32D
330
17
100
AcDbEntity
  8
A-WINDOW
100
AcDbLine
 10
30.2
 20
14.0
 30
0.0
 11
32.2
 21
14.0
 31
0.0
  0
LINE
  5
32E
330
17
100
AcDbEntity
  8
A-WINDOW
100
AcDbLine
 10
30.2
 20
14.08
 30
0.0
 11
32.2
 21
14.08
 31
0.0
  0
LINE
  5
32F
330
17
100
AcDbEntity
  8
A-WINDOW
100
AcDbLine
 10
30.2
 20
13.92
 30
0.0
 11
32.2
 21
13.92
 31
0.0
  0
LINE
  5
330
330
17
100
AcDbEntity
  8
A-WINDOW
100
AcDbLine
 10
22.2
 20
0.0
 30
0.0
 11
24.2
 21
0.0
 31
0.0
  0
LINE
  5
331
330
17
100
AcDbEntity
  8
A-WINDOW
100
AcDbLine
 10
22.2
 20
0.08
 30
0.0
 11
24.2
 21
0.08
 31
0.0
  0
LINE
  5
332
330
17
100
AcDbEntity
  8
A-WINDOW
100
AcDbLine
 10
22.2
 20
-0.08
 30
0.0
 11
24.2
 21
-0.08
 31
0.0
  0
LINE
  5
333
330
17
100
AcDbEntity
  8
A-WINDOW
100
AcDbLine
 10
30.2
 20
0.0
 30
0.0
 11
32.2
 21
0.0
 31
0.0
  0
LINE
  5
334
330
17
100
AcDbEntity
  8
A-WINDOW
100
AcDbLine
 10
30.2
 20
0.08
 30
0.0
 11
32.2
 21
0.08
 31
0.0
  0
LINE
  5
335
330
17
100
AcDbEntity
  8
A-WINDOW
100
AcDbLine
 10
30.2
 20
-0.08
 30
0.0
 11
32.2
 21
-0.08
 31
0.0
  0
LINE
  5
336
330
17
100
AcDbEntity
  8
A-TITLE
100
AcDbLine
 10
43.0
 20
-2.95
 30
0.0
 11
52.55
 21
-2.95
 31
0.0
  0
LINE
  5
337
330
17
100
AcDbEntity
  8
A-TITLE
100
AcDbLine
 10
52.55
 20
-2.95
 30
0.0
 11
52.55
 21
20.25
 31
0.0
  0
LINE
  5
338
330
17
100
AcDbEntity
  8
A-TITLE
100
AcDbLine
 10
52.55
 20
20.25
 30
0.0
 11
43.0
 21
20.25
 31
0.0
  0
LINE
  5
339
330
17
100
AcDbEntity
  8
A-TITLE
100
AcDbLine
 10
43.0
 20
20.25
 30
0.0
 11
43.0
 21
-2.95
 31
0.0
  0
LINE
  5
33A
330
17
100
AcDbEntity
  8
A-TITLE
100
AcDbLine
 10
43.0
 20
18.25
 30
0.0
 11
52.55
 21
18.25
 31
0.0
  0
LINE
  5
33B
330
17
100
AcDbEntity
  8
A-TITLE
100
AcDbLine
 10
43.0
 20
16.65
 30
0.0
 11
52.55
 21
16.65
 31
0.0
  0
LINE
  5
33C
330
17
100
AcDbEntity
  8
A-TITLE
100
AcDbLine
 10
43.0
 20
15.45
 30
0.0
 11
52.55
 21
15.45
 31
0.0
  0
LINE
  5
33D
330
17
100
AcDbEntity
  8
A-TITLE
100
AcDbLine
 10
43.0
 20
14.25
 30
0.0
 11
52.55
 21
14.25
 31
0.0
  0
LINE
  5
33E
330
17
100
AcDbEntity
  8
A-TITLE
100
AcDbLine
 10
43.0
 20
12.25
 30
0.0
 11
52.55
 21
12.25
 31
0.0
  0
LINE
  5
33F
330
17
100
AcDbEntity
  8
A-TITLE
100
AcDbLine
 10
43.0
 20
11.05
 30
0.0
 11
52.55
 21
11.05
 31
0.0
  0
LINE
  5
340
330
17
100
AcDbEntity
  8
A-TITLE
100
AcDbLine
 10
43.0
 20
9.65
 30
0.0
 11
52.55
 21
9.65
 31
0.0
  0
LINE
  5
341
330
17
100
AcDbEntity
  8
A-TITLE
100
AcDbLine
 10
43.0
 20
7.45
 30
0.0
 11
52.55
 21
7.45
 31
0.0
  0
LINE
  5
342
330
17
100
AcDbEntity
  8
A-TITLE
100
AcDbLine
 10
43.0
 20
6.45
 30
0.0
 11
52.55
 21
6.45
 31
0.0
  0
LINE
  5
343
330
17
100
AcDbEntity
  8
A-TITLE
100
AcDbLine
 10
43.0
 20
5.45
 30
0.0
 11
52.55
 21
5.45
 31
0.0
  0
LINE
  5
344
330
17
100
AcDbEntity
  8
A-TITLE
100
AcDbLine
 10
43.0
 20
4.45
 30
0.0
 11
52.55
 21
4.45
 31
0.0
  0
TEXT
  5
345
330
17
100
AcDbEntity
  8
A-TITLE
100
AcDbText
 10
47.775
 20
19.6
 30
0.0
 40
0.3
  1
บริษัท พี เจ เดฟ จำกัด
  7
PJ_STANDARD
 72
1
 11
47.775
 21
19.6
 31
0.0
100
AcDbText
 73
2
  0
TEXT
  5
346
330
17
100
AcDbEntity
  8
A-TITLE
100
AcDbText
 10
47.775
 20
19.0
 30
0.0
 40
0.3
  1
PJ DEV Co., Ltd.
  7
PJ_STANDARD
 72
1
 11
47.775
 21
19.0
 31
0.0
100
AcDbText
 73
2
  0
TEXT
  5
347
330
17
100
AcDbEntity
  8
A-TITLE
100
AcDbText
 10
43.25
 20
18.0
 30
0.0
 40
0.18
  1
Project Name:
  7
PJ_STANDARD
 11
43.25
 21
18.0
 31
0.0
100
AcDbText
  0
TEXT
  5
348
330
17
100
AcDbEntity
  8
A-TITLE
100
AcDbText
 10
47.775
 20
17.35
 30
0.0
 40
0.28
  1
อาคารอยู่อาศัย คสล.
  7
PJ_STANDARD
 72
1
 11
47.775
 21
17.35
 31
0.0
100
AcDbText
 73
2
  0
TEXT
  5
349
330
17
100
AcDbEntity
  8
A-TITLE
100
AcDbText
 10
43.25
 20
16.4
 30
0.0
 40
0.18
  1
Owner:
  7
PJ_STANDARD
 11
43.25
 21
16.4
 31
0.0
100
AcDbText
  0
TEXT
  5
34A
330
17
100
AcDbEntity
  8
A-TITLE
100
AcDbText
 10
47.775
 20
15.749999999999998
 30
0.0
 40
0.28
  1
PJ
  7
PJ_STANDARD
 72
1
 11
47.775
 21
15.749999999999998
 31
0.0
100
AcDbText
 73
2
  0
TEXT
  5
34B
330
17
100
AcDbEntity
  8
A-TITLE
100
AcDbText
 10
43.25
 20
15.2
 30
0.0
 40
0.18
  1
Location:
  7
PJ_STANDARD
 11
43.25
 21
15.2
 31
0.0
100
AcDbText
  0
TEXT
  5
34C
330
17
100
AcDbEntity
  8
A-TITLE
100
AcDbText
 10
47.775
 20
14.549999999999999
 30
0.0
 40
0.28
  1
BKK
  7
PJ_STANDARD
 72
1
 11
47.775
 21
14.549999999999999
 31
0.0
100
AcDbText
 73
2
  0
TEXT
  5
34D
330
17
100
AcDbEntity
  8
A-TITLE
100
AcDbText
 10
43.25
 20
14.0
 30
0.0
 40
0.18
  1
Engineer / Architect:
  7
PJ_STANDARD
 11
43.25
 21
14.0
 31
0.0
100
AcDbText
  0
LINE
  5
34E
330
17
100
AcDbEntity
  8
A-TITLE
100
AcDbLine
 10
44.0
 20
13.1
 30
0.0
 11
51.55
 21
13.1
 31
0.0
  0
TEXT
  5
34F
330
17
100
AcDbEntity
  8
A-TITLE
100
AcDbText
 10
51.099999999999994
 20
12.85
 30
0.0
 40
0.14
  1
(Signature)
  7
PJ_STANDARD
 72
1
 11
51.099999999999994
 21
12.85
 31
0.0
100
AcDbText
 73
2
  0
TEXT
  5
350
330
17
100
AcDbEntity
  8
A-TITLE
100
AcDbText
 10
44.0
 20
12.45
 30
0.0
 40
0.14
  1
License No.
  7
PJ_STANDARD
 11
44.0
 21
12.45
 31
0.0
100
AcDbText
  0
TEXT
  5
351
330
17
100
AcDbEntity
  8
A-TITLE
100
AcDbText
 10
43.25
 20
12.0
 30
0.0
 40
0.18
  1
Drafted By:
  7
PJ_STANDARD
 11
43.25
 21
12.0
 31
0.0
100
AcDbText
  0
TEXT
  5
352
330
17
100
AcDbEntity
  8
A-TITLE
100
AcDbText
 10
47.775
 20
11.35
 30
0.0
 40
0.28
  1
PJ Team
  7
PJ_STANDARD
 72
1
 11
47.775
 21
11.35
 31
0.0
100
AcDbText
 73
2
  0
TEXT
  5
353
330
17
100
AcDbEntity
  8
A-TITLE
100
AcDbText
 10
43.25
 20
10.8
 30
0.0
 40
0.18
  1
Drawing Title:
  7
PJ_STANDARD
 11
43.25
 21
10.8
 31
0.0
100
AcDbText
  0
TEXT
  5
354
330
17
100
AcDbEntity
  8
A-TITLE
100
AcDbText
 10
47.775
 20
10.15
 30
0.0
 40
0.28
  1
แบบแปลนพื้น
  7
PJ_STANDARD
 72
1
 11
47.775
 21
10.15
 31
0.0
100
AcDbText
 73
2
  0
TEXT
  5
355
330
17
100
AcDbEntity
  8
A-TITLE
100
AcDbText
 10
43.25
 20
9.4
 30
0.0
 40
0.18
  1
Drawing No.:
  7
PJ_STANDARD
 11
43.25
 21
9.4
 31
0.0
100
AcDbText
  0
TEXT
  5
356
330
17
100
AcDbEntity
  8
A-TITLE
100
AcDbText
 10
47.775
 20
8.5
 30
0.0
 40
0.75
  1
A-01
  7
PJ_STANDARD
 72
1
 11
47.775
 21
8.5
 31
0.0
100
AcDbText
 73
2
  0
TEXT
  5
357
330
17
100
AcDbEntity
  8
A-TITLE
100
AcDbText
 10
43.25
 20
7.2
 30
0.0
 40
0.18
  1
Sheet No.:
  7
PJ_STANDARD
 11
43.25
 21
7.2
 31
0.0
100
AcDbText
  0
TEXT
  5
358
330
17
100
AcDbEntity
  8
A-TITLE
100
AcDbText
 10
47.775
 20
6.55
 30
0.0
 40
0.28
  1
01 / 01
  7
PJ_STANDARD
 72
1
 11
47.775
 21
6.55
 31
0.0
100
AcDbText
 73
2
  0
TEXT
  5
359
330
17
100
AcDbEntity
  8
A-TITLE
100
AcDbText
 10
43.25
 20
6.2
 30
0.0
 40
0.18
  1
Scale:
  7
PJ_STANDARD
 11
43.25
 21
6.2
 31
0.0
100
AcDbText
  0
TEXT
  5
35A
330
17
100
AcDbEntity
  8
A-TITLE
100
AcDbText
 10
47.775
 20
5.55
 30
0.0
 40
0.28
  1
1:100
  7
PJ_STANDARD
 72
1
 11
47.775
 21
5.55
 31
0.0
100
AcDbText
 73
2
  0
TEXT
  5
35B
330
17
100
AcDbEntity
  8
A-TITLE
100
AcDbText
 10
43.25
 20
5.2
 30
0.0
 40
0.18
  1
Date:
  7
PJ_STANDARD
 11
43.25
 21
5.2
 31
0.0
100
AcDbText
  0
TEXT
  5
35C
330
17
100
AcDbEntity
  8
A-TITLE
100
AcDbText
 10
47.775
 20
4.55
 30
0.0
 40
0.28
  1
28/04/2569
  7
PJ_STANDARD
 72
1
 11
47.775
 21
4.55
 31
0.0
100
AcDbText
 73
2
  0
TEXT
  5
35D
330
17
100
AcDbEntity
  8
A-TITLE
100
AcDbText
 10
43.25
 20
0.25
 30
0.0
 40
0.2
  1
Notes
  7
PJ_STANDARD
 11
43.25
 21
0.25
 31
0.0
100
AcDbText
  0
TEXT
  5
35E
330
17
100
AcDbEntity
  8
A-ANNO
100
AcDbText
 10
20.0
 20
-2.0
 30
0.0
 40
0.22
  1
COLUMN CENTERLINES ALIGN ON BOTH FLOORS
  7
PJ_STANDARD
 72
1
 11
20.0
 21
-2.0
 31
0.0
100
AcDbText
 73
2
  0
TEXT
  5
35F
330
17
100
AcDbEntity
  8
A-ANNO
100
AcDbText
 10
20.0
 20
-2.35
 30
0.0
 40
0.22
  1
แนวเสาชั้น 1 และชั้น 2 ตรงกัน
  7
PJ_STANDARD
 72
1
 11
20.0
 21
-2.35
 31
0.0
100
AcDbText
 73
2
  0
ENDSEC
  0
SECTION
  2
OBJECTS
  0
DICTIONARY
  5
A
330
0
100
AcDbDictionary
281
1
  3
ACAD_COLOR
350
B
  3
ACAD_GROUP
350
C
  3
ACAD_LAYOUT
350
D
  3
ACAD_MATERIAL
350
E
  3
ACAD_MLEADERSTYLE
350
F
  3
ACAD_MLINESTYLE
350
10
  3
ACAD_PLOTSETTINGS
350
11
  3
ACAD_PLOTSTYLENAME
350
12
  3
ACAD_SCALELIST
350
14
  3
ACAD_TABLESTYLE
350
15
  3
ACAD_VISUALSTYLE
350
16
  3
EZDXF_META
350
2D
  0
DICTIONARY
  5
B
330
A
100
AcDbDictionary
281
1
  0
DICTIONARY
  5
C
330
A
100
AcDbDictionary
281
1
  0
DICTIONARY
  5
D
330
A
100
AcDbDictionary
281
1
  3
Model
350
1A
  3
Layout1
350
1E
  0
DICTIONARY
  5
E
330
A
100
AcDbDictionary
281
1
  3
ByBlock
350
1F
  3
ByLayer
350
20
  3
Global
350
21
  0
DICTIONARY
  5
F
330
A
100
AcDbDictionary
281
1
  3
Standard
350
2C
  0
DICTIONARY
  5
10
330
A
100
AcDbDictionary
281
1
  3
Standard
350
22
  0
DICTIONARY
  5
11
330
A
100
AcDbDictionary
281
1
  0
ACDBDICTIONARYWDFLT
  5
12
330
A
100
AcDbDictionary
281
1
  3
Normal
350
13
100
AcDbDictionaryWithDefault
340
13
  0
ACDBPLACEHOLDER
  5
13
330
12
  0
DICTIONARY
  5
14
330
A
100
AcDbDictionary
281
1
  0
DICTIONARY
  5
15
330
A
100
AcDbDictionary
281
1
  0
DICTIONARY
  5
16
330
A
100
AcDbDictionary
281
1
  3
2dWireframe
350
5A
  3
Basic
350
5B
  3
Brighten
350
5C
  3
ColorChange
350
5D
  3
Conceptual
350
5E
  3
Dim
350
5F
  3
EdgeColorOff
350
60
  3
Facepattern
350
61
  3
Flat
350
62
  3
FlatWithEdges
350
63
  3
Gouraud
350
64
  3
GouraudWithEdges
350
65
  3
Hidden
350
66
  3
JitterOff
350
67
  3
Linepattern
350
68
  3
Modeling
350
69
  3
OverhangOff
350
6A
  3
Realistic
350
6B
  3
Shaded
350
6C
  3
Shaded with edges
350
6D
  3
Shades of Gray
350
6E
  3
Sketchy
350
6F
  3
Thicken
350
70
  3
Wireframe
350
71
  3
X-Ray
350
72
  0
LAYOUT
  5
1A
330
D
100
AcDbPlotSettings
  1

  4
A3
  6

 40
7.5
 41
20.0
 42
7.5
 43
20.0
 44
420.0
 45
297.0
 46
0.0
 47
0.0
 48
0.0
 49
0.0
140
0.0
141
0.0
142
1.0
143
1.0
 70
1024
 72
1
 73
0
 74
5
  7

 75
16
 76
0
 77
2
 78
300
147
1.0
148
0.0
149
0.0
100
AcDbLayout
  1
Model
 70
1
 71
0
 10
0.0
 20
0.0
 11
420.0
 21
297.0
 12
0.0
 22
0.0
 32
0.0
 14
1e+20
 24
1e+20
 34
1e+20
 15
-1e+20
 25
-1e+20
 35
-1e+20
146
0.0
 13
0.0
 23
0.0
 33
0.0
 16
1.0
 26
0.0
 36
0.0
 17
0.0
 27
1.0
 37
0.0
 76
1
330
17
  0
LAYOUT
  5
1E
330
D
100
AcDbPlotSettings
  1

  4
A3
  6

 40
7.5
 41
20.0
 42
7.5
 43
20.0
 44
420.0
 45
297.0
 46
0.0
 47
0.0
 48
0.0
 49
0.0
140
0.0
141
0.0
142
1.0
143
1.0
 70
0
 72
1
 73
0
 74
5
  7

 75
16
 76
0
 77
2
 78
300
147
1.0
148
0.0
149
0.0
100
AcDbLayout
  1
Layout1
 70
1
 71
1
 10
0.0
 20
0.0
 11
420.0
 21
297.0
 12
0.0
 22
0.0
 32
0.0
 14
1e+20
 24
1e+20
 34
1e+20
 15
-1e+20
 25
-1e+20
 35
-1e+20
146
0.0
 13
0.0
 23
0.0
 33
0.0
 16
1.0
 26
0.0
 36
0.0
 17
0.0
 27
1.0
 37
0.0
 76
1
330
1B
  0
MATERIAL
  5
1F
102
{ACAD_REACTORS
330
E
102
}
330
E
100
AcDbMaterial
  1
ByBlock
  2

 70
0
 40
1.0
 71
1
 41
1.0
 91
-1023410177
 42
1.0
 72
1
  3

 73
1
 74
1
 75
1
 44
0.5
 73
0
 45
1.0
 46
1.0
 77
1
  4

 78
1
 79
1
170
1
 48
1.0
171
1
  6

172
1
173
1
174
1
140
1.0
141
1.0
175
1
  7

176
1
177
1
178
1
143
1.0
179
1
  8

270
1
271
1
272
1
145
1.0
146
1.0
273
1
  9

274
1
275
1
276
1
 42
1.0
 72
1
  3

 73
1
 74
1
 75
1
 94
63
  0
MATERIAL
  5
20
102
{ACAD_REACTORS
330
E
102
}
330
E
100
AcDbMaterial
  1
ByLayer
  2

 70
0
 40
1.0
 71
1
 41
1.0
 91
-1023410177
 42
1.0
 72
1
  3

 73
1
 74
1
 75
1
 44
0.5
 73
0
 45
1.0
 46
1.0
 77
1
  4

 78
1
 79
1
170
1
 48
1.0
171
1
  6

172
1
173
1
174
1
140
1.0
141
1.0
175
1
  7

176
1
177
1
178
1
143
1.0
179
1
  8

270
1
271
1
272
1
145
1.0
146
1.0
273
1
  9

274
1
275
1
276
1
 42
1.0
 72
1
  3

 73
1
 74
1
 75
1
 94
63
  0
MATERIAL
  5
21
102
{ACAD_REACTORS
330
E
102
}
330
E
100
AcDbMaterial
  1
Global
  2

 70
0
 40
1.0
 71
1
 41
1.0
 91
-1023410177
 42
1.0
 72
1
  3

 73
1
 74
1
 75
1
 44
0.5
 73
0
 45
1.0
 46
1.0
 77
1
  4

 78
1
 79
1
170
1
 48
1.0
171
1
  6

172
1
173
1
174
1
140
1.0
141
1.0
175
1
  7

176
1
177
1
178
1
143
1.0
179
1
  8

270
1
271
1
272
1
145
1.0
146
1.0
273
1
  9

274
1
275
1
276
1
 42
1.0
 72
1
  3

 73
1
 74
1
 75
1
 94
63
  0
MLINESTYLE
  5
22
102
{ACAD_REACTORS
330
10
102
}
330
10
100
AcDbMlineStyle
  2
Standard
 70
0
  3

 62
256
 51
90.0
 52
90.0
 71
2
 49
0.5
 62
256
  6
BYLAYER
 49
-0.5
 62
256
  6
BYLAYER
  0
MLEADERSTYLE
  5
2C
102
{ACAD_REACTORS
330
F
102
}
330
F
100
AcDbMLeaderStyle
179
2
170
2
171
1
172
0
 90
2
 40
0.0
 41
0.0
173
1
 91
-1056964608
 92
-2
290
1
 42
2.0
291
1
 43
8.0
  3
Standard
 44
4.0
300

342
29
174
1
175
1
176
0
178
1
 93
-1056964608
 45
4.0
292
0
297
0
 46
4.0
 94
-1056964608
 47
1.0
 49
1.0
140
1.0
294
1
141
0.0
177
0
142
1.0
295
0
296
0
143
3.75
271
0
272
9
273
9
  0
DICTIONARY
  5
2D
330
A
100
AcDbDictionary
280
1
281
1
  3
CREATED_BY_EZDXF
350
2E
  3
WRITTEN_BY_EZDXF
350
362
  0
DICTIONARYVAR
  5
2E
330
2D
100
DictionaryVariables
280
0
  1
1.4.3 @ 2026-04-28T05:14:31.492966+00:00
  0
VISUALSTYLE
  5
5A
102
{ACAD_REACTORS
330
16
102
}
330
16
100
AcDbVisualStyle
  2
2dWireframe
 70
4
 90
0
 40
0.6
 62
7
290
0
291
0
  0
VISUALSTYLE
  5
5B
102
{ACAD_REACTORS
330
16
102
}
330
16
100
AcDbVisualStyle
  2
Basic
 70
7
 90
1
 40
0.6
 62
7
290
0
291
1
  0
VISUALSTYLE
  5
5C
102
{ACAD_REACTORS
330
16
102
}
330
16
100
AcDbVisualStyle
  2
Brighten
 70
12
 90
2
 40
0.6
 62
7
290
0
291
1
  0
VISUALSTYLE
  5
5D
102
{ACAD_REACTORS
330
16
102
}
330
16
100
AcDbVisualStyle
  2
ColorChange
 70
16
 90
2
 40
0.6
 62
8
290
0
291
1
  0
VISUALSTYLE
  5
5E
102
{ACAD_REACTORS
330
16
102
}
330
16
100
AcDbVisualStyle
  2
Conceptual
 70
9
 90
3
 40
0.6
 62
7
290
0
291
0
  0
VISUALSTYLE
  5
5F
102
{ACAD_REACTORS
330
16
102
}
330
16
100
AcDbVisualStyle
  2
Dim
 70
11
 90
2
 40
0.6
 62
7
290
0
291
1
  0
VISUALSTYLE
  5
60
102
{ACAD_REACTORS
330
16
102
}
330
16
100
AcDbVisualStyle
  2
EdgeColorOff
 70
22
 90
2
 40
0.6
 62
7
290
0
291
1
  0
VISUALSTYLE
  5
61
102
{ACAD_REACTORS
330
16
102
}
330
16
100
AcDbVisualStyle
  2
Facepattern
 70
15
 90
2
 40
0.6
 62
7
290
0
291
1
  0
VISUALSTYLE
  5
62
102
{ACAD_REACTORS
330
16
102
}
330
16
100
AcDbVisualStyle
  2
Flat
 70
0
 90
2
 40
0.6
 62
7
290
0
291
1
  0
VISUALSTYLE
  5
63
102
{ACAD_REACTORS
330
16
102
}
330
16
100
AcDbVisualStyle
  2
FlatWithEdges
 70
1
 90
2
 40
0.6
 62
7
290
0
291
1
  0
VISUALSTYLE
  5
64
102
{ACAD_REACTORS
330
16
102
}
330
16
100
AcDbVisualStyle
  2
Gouraud
 70
2
 90
2
 40
0.6
 62
7
290
0
291
1
  0
VISUALSTYLE
  5
65
102
{ACAD_REACTORS
330
16
102
}
330
16
100
AcDbVisualStyle
  2
GouraudWithEdges
 70
3
 90
2
 40
0.6
 62
7
290
0
291
1
  0
VISUALSTYLE
  5
66
102
{ACAD_REACTORS
330
16
102
}
330
16
100
AcDbVisualStyle
  2
Hidden
 70
6
 90
1
 40
0.6
 62
7
290
0
291
0
  0
VISUALSTYLE
  5
67
102
{ACAD_REACTORS
330
16
102
}
330
16
100
AcDbVisualStyle
  2
JitterOff
 70
20
 90
2
 40
0.6
 62
7
290
0
291
1
  0
VISUALSTYLE
  5
68
102
{ACAD_REACTORS
330
16
102
}
330
16
100
AcDbVisualStyle
  2
Linepattern
 70
14
 90
2
 40
0.6
 62
7
290
0
291
1
  0
VISUALSTYLE
  5
69
102
{ACAD_REACTORS
330
16
102
}
330
16
100
AcDbVisualStyle
  2
Modeling
 70
10
 90
2
 40
0.6
 62
7
290
0
291
0
  0
VISUALSTYLE
  5
6A
102
{ACAD_REACTORS
330
16
102
}
330
16
100
AcDbVisualStyle
  2
OverhangOff
 70
21
 90
2
 40
0.6
 62
7
290
0
291
1
  0
VISUALSTYLE
  5
6B
102
{ACAD_REACTORS
330
16
102
}
330
16
100
AcDbVisualStyle
  2
Realistic
 70
8
 90
2
 40
0.6
 62
7
290
0
291
0
  0
VISUALSTYLE
  5
6C
102
{ACAD_REACTORS
330
16
102
}
330
16
100
AcDbVisualStyle
  2
Shaded
 70
27
 90
2
 40
0.6
 62
7
290
0
291
0
  0
VISUALSTYLE
  5
6D
102
{ACAD_REACTORS
330
16
102
}
330
16
100
AcDbVisualStyle
  2
Shaded with edges
 70
26
 90
2
 40
0.6
 62
7
290
0
291
0
  0
VISUALSTYLE
  5
6E
102
{ACAD_REACTORS
330
16
102
}
330
16
100
AcDbVisualStyle
  2
Shades of Gray
 70
23
 90
2
 40
0.6
 62
7
290
0
291
0
  0
VISUALSTYLE
  5
6F
102
{ACAD_REACTORS
330
16
102
}
330
16
100
AcDbVisualStyle
  2
Sketchy
 70
24
 90
1
 40
0.6
 62
7
290
0
291
0
  0
VISUALSTYLE
  5
70
102
{ACAD_REACTORS
330
16
102
}
330
16
100
AcDbVisualStyle
  2
Thicken
 70
13
 90
2
 40
0.6
 62
7
290
0
291
1
  0
VISUALSTYLE
  5
71
102
{ACAD_REACTORS
330
16
102
}
330
16
100
AcDbVisualStyle
  2
Wireframe
 70
5
 90
0
 40
0.6
 62
7
290
0
291
0
  0
VISUALSTYLE
  5
72
102
{ACAD_REACTORS
330
16
102
}
330
16
100
AcDbVisualStyle
  2
X-Ray
 70
25
 90
2
 40
0.5
 62
7
290
0
291
0
  0
DICTIONARYVAR
  5
362
330
2D
100
DictionaryVariables
280
0
  1
1.4.3 @ 2026-04-28T05:14:31.514096+00:00
  0
ENDSEC
  0
EOF
